{"glyphs":{"0":{"ha":733,"x_min":54,"x_max":681,"o":"m 367 -17 q 224 25 286 -17 q 126 137 161 67 q 72 290 90 207 q 54 463 54 372 q 84 690 54 586 q 187 867 114 794 q 367 940 260 940 q 547 867 474 940 q 651 690 621 794 q 681 463 681 586 q 663 290 681 372 q 609 137 644 207 q 511 25 574 67 q 367 -17 449 -17 m 367 119 q 524 463 524 119 q 367 804 524 804 q 211 463 211 804 q 367 119 211 119 z "},"1":{"ha":489,"x_min":15,"x_max":400,"o":"m 400 0 l 246 0 l 246 728 l 106 579 l 15 672 l 265 926 l 400 926 l 400 0 z "},"2":{"ha":708,"x_min":50,"x_max":638,"o":"m 638 0 l 65 0 l 65 125 q 404 491 331 397 q 478 669 478 585 q 438 767 478 731 q 342 804 399 804 q 144 694 219 804 l 50 790 q 344 940 158 940 q 551 867 469 940 q 633 671 633 794 q 560 458 633 567 q 289 135 486 350 l 638 135 l 638 0 z "},"3":{"ha":692,"x_min":33,"x_max":635,"o":"m 333 -17 q 155 26 233 -17 q 33 135 76 68 l 129 229 q 328 119 204 119 q 443 159 404 119 q 482 267 482 199 q 318 406 482 406 q 239 403 267 406 l 239 542 q 315 540 253 540 q 427 573 385 540 q 469 669 469 606 q 430 769 469 735 q 324 804 390 804 q 136 704 211 804 l 44 792 q 335 940 146 940 q 543 876 465 940 q 621 692 621 811 q 571 552 621 611 q 450 479 521 493 q 578 406 522 468 q 635 253 635 344 q 553 58 635 132 q 333 -17 472 -17 z "},"4":{"ha":685,"x_min":31,"x_max":654,"o":"m 557 0 l 404 0 l 404 214 l 31 214 l 31 346 l 361 926 l 557 926 l 557 350 l 654 350 l 654 214 l 557 214 l 557 0 m 404 350 l 404 765 l 169 350 l 404 350 z "},"5":{"ha":714,"x_min":63,"x_max":661,"o":"m 357 -17 q 63 132 164 -17 l 158 229 q 353 119 229 119 q 463 169 421 119 q 506 290 506 219 q 467 416 506 371 q 360 461 428 461 q 200 381 267 461 l 88 413 l 88 926 l 610 926 l 610 792 l 242 792 l 242 515 q 413 594 306 594 q 590 515 519 594 q 661 294 661 435 q 577 70 661 157 q 357 -17 493 -17 z "},"6":{"ha":713,"x_min":54,"x_max":664,"o":"m 376 -17 q 252 9 307 -17 q 160 78 197 35 q 99 184 124 122 q 65 315 75 246 q 54 463 54 383 q 144 806 54 671 q 401 940 233 940 q 629 833 547 940 l 551 722 q 403 804 494 804 q 260 710 311 804 q 210 488 210 617 l 210 465 q 291 555 236 518 q 411 592 346 592 q 592 513 519 592 q 664 293 664 435 q 585 72 664 161 q 376 -17 506 -17 m 368 119 q 472 170 435 119 q 508 288 508 221 q 468 417 508 375 q 365 460 428 460 q 278 427 318 460 q 211 344 238 394 q 222 268 214 304 q 247 197 231 232 q 295 140 264 161 q 368 119 326 119 z "},"7":{"ha":625,"x_min":32,"x_max":596,"o":"m 301 0 l 135 0 l 422 792 l 32 792 l 32 926 l 596 926 l 596 819 l 301 0 z "},"8":{"ha":707,"x_min":53,"x_max":656,"o":"m 354 -17 q 135 50 218 -17 q 53 233 53 117 q 106 383 53 317 q 235 478 158 449 q 114 562 163 504 q 65 701 65 619 q 150 879 65 818 q 354 940 235 940 q 557 879 472 940 q 642 701 642 818 q 594 562 642 619 q 474 478 546 504 q 602 383 549 449 q 656 233 656 317 q 572 50 656 117 q 354 -17 489 -17 m 354 533 q 442 579 397 543 q 488 676 488 615 q 451 769 488 735 q 354 804 414 804 q 256 769 293 804 q 219 676 219 735 q 265 579 219 615 q 354 533 310 543 m 354 119 q 458 156 417 119 q 500 254 500 192 q 448 366 500 322 q 354 415 396 410 q 259 366 311 410 q 207 254 207 322 q 249 156 207 192 q 354 119 290 119 z "},"9":{"ha":713,"x_min":49,"x_max":658,"o":"m 311 -15 q 83 92 165 -15 l 161 203 q 310 121 218 121 q 453 215 403 121 q 503 438 503 308 l 503 460 q 422 370 476 407 q 301 333 367 333 q 121 412 193 333 q 49 632 49 490 q 128 853 49 764 q 336 942 207 942 q 460 916 406 942 q 552 847 515 890 q 613 741 589 803 q 648 610 638 679 q 658 463 658 542 q 569 119 658 254 q 311 -15 479 -15 m 347 465 q 501 581 440 465 q 485 683 499 636 q 435 767 471 729 q 346 806 400 806 q 241 755 278 806 q 204 638 204 704 q 244 508 204 550 q 347 465 285 465 z "}," ":{"ha":293,"x_min":0,"x_max":0,"o":""},"!":{"ha":336,"x_min":75,"x_max":261,"o":"m 228 279 l 108 279 l 83 926 l 253 926 l 228 279 m 234 13 q 220 0 234 13 q 168 -14 207 -14 q 102 13 129 -14 q 75 79 75 40 q 102 144 75 117 q 168 171 129 171 q 234 144 207 171 q 261 79 261 117 q 234 13 261 40 z "},"\"":{"ha":518,"x_min":68,"x_max":450,"o":"m 179 549 l 115 549 q 68 863 68 839 q 92 917 68 894 q 147 940 115 940 q 202 917 179 940 q 225 863 225 894 l 179 549 m 403 549 l 340 549 q 293 863 293 839 q 316 917 293 894 q 372 940 339 940 q 427 917 404 940 q 450 863 450 894 l 403 549 z "},"#":{"ha":728,"x_min":25,"x_max":704,"o":"m 396 0 l 290 0 l 361 244 l 243 244 l 175 0 l 68 0 l 138 244 l 25 244 l 50 336 l 165 336 l 236 590 l 121 590 l 144 681 l 263 681 l 331 926 l 438 926 l 368 681 l 485 681 l 553 926 l 658 926 l 589 681 l 704 681 l 681 590 l 564 590 l 492 336 l 611 336 l 586 244 l 465 244 l 396 0 m 385 336 l 458 590 l 342 590 l 271 336 l 385 336 z "},"$":{"ha":679,"x_min":35,"x_max":636,"o":"m 297 -139 l 297 -15 q 35 101 135 -3 l 113 221 q 297 121 186 135 l 297 407 q 211 449 243 431 q 140 499 179 467 q 81 577 100 532 q 63 682 63 622 q 126 851 63 781 q 297 938 190 921 l 297 1067 l 403 1067 l 403 939 q 618 840 532 925 l 544 724 q 403 799 488 783 l 403 539 q 488 496 456 515 q 560 442 521 476 q 617 362 599 408 q 636 256 636 315 q 576 80 636 153 q 403 -11 515 7 l 403 -139 l 297 -139 m 479 244 q 403 357 479 310 l 403 132 q 479 244 479 161 m 219 692 q 297 588 219 632 l 297 796 q 219 692 219 771 z "},"%":{"ha":921,"x_min":36,"x_max":885,"o":"m 385 546 q 357 513 385 546 q 239 481 329 481 q 92 546 149 481 q 36 710 36 611 q 92 875 36 810 q 239 940 149 940 q 385 875 329 940 q 442 710 442 810 q 385 546 442 611 m 257 0 l 179 0 l 667 926 l 746 926 l 257 0 m 828 48 q 800 16 828 48 q 682 -17 772 -17 q 535 48 592 -17 q 479 211 479 113 q 535 377 479 311 q 682 443 592 443 q 828 377 772 443 q 885 211 885 311 q 828 48 885 113 m 239 569 q 313 608 285 569 q 342 710 342 647 q 313 813 342 772 q 239 853 285 853 q 163 813 192 853 q 135 710 135 772 q 163 608 135 647 q 239 569 192 569 m 606 110 q 620 90 606 110 q 682 71 635 71 q 758 110 729 71 q 786 211 786 149 q 758 315 786 275 q 682 354 729 354 q 606 315 635 354 q 578 211 578 275 q 606 110 578 149 z "},"&":{"ha":747,"x_min":42,"x_max":735,"o":"m 735 0 l 569 0 q 508 76 519 61 q 290 -17 413 -17 q 112 51 182 -17 q 42 242 42 119 q 86 399 42 338 q 211 515 131 461 q 153 717 153 635 q 213 877 153 814 q 365 940 274 940 q 503 888 447 940 q 560 750 560 835 q 545 663 560 701 q 498 591 531 624 q 440 540 465 558 q 368 490 415 521 q 440 379 399 438 q 513 276 475 328 q 581 464 553 360 l 693 413 q 588 178 647 274 q 735 0 610 150 m 313 94 q 440 164 378 94 q 346 293 371 254 q 265 418 306 353 q 185 251 185 347 q 222 138 185 181 q 313 94 260 94 m 285 715 q 319 583 285 663 q 408 658 378 621 q 439 744 439 694 q 419 813 439 789 q 368 838 399 838 q 307 806 329 838 q 285 715 285 774 z "},"'":{"ha":293,"x_min":68,"x_max":225,"o":"m 179 549 l 115 549 q 68 863 68 839 q 92 917 68 894 q 147 940 115 940 q 202 917 179 940 q 225 863 225 894 l 179 549 z "},"(":{"ha":357,"x_min":63,"x_max":331,"o":"m 331 -221 l 238 -276 q 63 338 63 -1 q 238 951 63 676 l 331 897 q 213 338 213 626 q 331 -221 213 49 z "},")":{"ha":357,"x_min":26,"x_max":294,"o":"m 26 -221 l 118 -276 q 294 338 294 0 q 118 951 294 675 l 26 897 q 144 338 144 621 q 26 -221 144 53 z "},"*":{"ha":458,"x_min":31,"x_max":428,"o":"m 267 526 l 192 526 l 199 682 l 68 597 l 31 663 l 169 733 l 31 804 l 68 868 l 199 783 l 192 940 l 267 940 l 258 783 l 390 868 l 428 804 l 289 733 l 428 663 l 390 597 l 258 682 l 267 526 z "},"+":{"ha":613,"x_min":40,"x_max":572,"o":"m 572 424 l 356 424 l 356 175 l 257 175 l 257 424 l 40 424 l 40 514 l 257 514 l 257 751 l 356 751 l 356 514 l 572 514 l 572 424 z "},",":{"ha":338,"x_min":75,"x_max":268,"o":"m 268 49 q 233 -81 268 -19 q 142 -182 199 -143 l 79 -131 q 142 -73 113 -111 q 176 -1 171 -35 q 154 -4 171 -4 q 98 19 121 -4 q 75 81 75 43 q 101 144 75 118 q 165 171 128 171 q 238 138 208 171 q 268 49 268 106 z "},"-":{"ha":375,"x_min":42,"x_max":333,"o":"m 333 276 l 42 276 l 42 396 l 333 396 l 333 276 z "},".":{"ha":336,"x_min":75,"x_max":261,"o":"m 168 -14 q 103 13 131 -14 q 75 79 75 40 q 103 144 75 117 q 168 171 131 171 q 234 144 207 171 q 261 79 261 117 q 234 13 261 40 q 168 -14 207 -14 z "},"/":{"ha":368,"x_min":0,"x_max":368,"o":"m 101 -28 l 0 -28 l 267 954 l 368 954 l 101 -28 z "},":":{"ha":331,"x_min":75,"x_max":261,"o":"m 168 494 q 103 522 131 494 q 75 588 75 550 q 103 653 75 625 q 168 681 131 681 q 234 653 207 681 q 261 588 261 625 q 234 522 261 550 q 168 494 207 494 m 168 -14 q 103 13 131 -14 q 75 79 75 40 q 103 144 75 117 q 168 171 131 171 q 234 144 207 171 q 261 79 261 117 q 234 13 261 40 q 168 -14 207 -14 z "},";":{"ha":336,"x_min":75,"x_max":268,"o":"m 168 494 q 103 522 131 494 q 75 588 75 550 q 103 653 75 626 q 168 681 131 681 q 234 653 207 681 q 261 588 261 626 q 234 522 261 550 q 168 494 207 494 m 268 53 q 234 -78 268 -17 q 142 -179 200 -139 l 79 -128 q 142 -69 114 -107 q 176 3 171 -32 q 154 0 171 0 q 98 24 121 0 q 75 83 75 47 q 101 148 75 121 q 165 175 128 175 q 238 142 208 175 q 268 53 268 110 z "},"<":{"ha":613,"x_min":40,"x_max":572,"o":"m 572 172 l 40 415 l 40 514 l 572 758 l 572 651 l 147 464 l 572 279 l 572 172 z "},"=":{"ha":613,"x_min":40,"x_max":572,"o":"m 572 551 l 40 551 l 40 642 l 572 642 l 572 551 m 572 286 l 40 286 l 40 376 l 572 376 l 572 286 z "},">":{"ha":613,"x_min":40,"x_max":572,"o":"m 572 415 l 40 172 l 40 279 l 467 464 l 40 651 l 40 758 l 572 514 l 572 415 z "},"?":{"ha":542,"x_min":31,"x_max":513,"o":"m 219 269 q 176 389 176 317 q 205 490 176 444 q 267 561 233 535 q 328 626 300 588 q 357 706 357 664 q 328 776 357 747 q 246 806 299 806 q 107 735 164 806 l 31 832 q 272 940 124 940 q 447 882 381 940 q 513 733 513 824 q 492 637 513 681 q 440 563 471 593 q 379 504 410 532 q 328 444 349 476 q 307 378 307 413 q 335 313 307 340 l 219 269 m 269 -14 q 204 13 232 -14 q 176 79 176 40 q 204 144 176 117 q 269 171 232 171 q 335 144 308 171 q 363 79 363 117 q 335 13 363 40 q 269 -14 308 -14 z "},"@":{"ha":976,"x_min":49,"x_max":928,"o":"m 431 -97 q 154 19 260 -97 q 49 319 49 135 q 119 598 49 467 q 309 808 190 729 q 563 886 428 886 q 826 778 725 886 q 928 501 928 671 q 854 226 928 335 q 688 118 781 118 q 603 147 636 118 q 565 219 571 175 l 564 229 q 382 118 488 118 q 258 171 306 118 q 210 321 210 224 q 296 579 210 465 q 500 693 382 693 q 639 596 601 693 l 654 671 l 778 671 l 701 311 q 699 279 699 297 q 747 214 697 214 q 831 292 789 214 q 874 501 874 369 q 788 745 874 654 q 560 836 703 836 q 238 678 375 836 q 101 321 101 521 q 194 56 101 160 q 438 -49 286 -49 q 665 29 553 -49 l 692 -10 q 431 -97 567 -97 m 433 218 q 579 319 514 218 l 619 510 q 585 568 610 543 q 524 593 561 593 q 392 511 444 593 q 339 335 339 429 q 363 249 339 281 q 433 218 388 218 z "},"A":{"ha":747,"x_min":4,"x_max":743,"o":"m 743 0 l 578 0 l 526 183 l 221 183 l 169 0 l 4 0 l 282 926 l 465 926 l 743 0 m 496 319 l 374 763 l 251 319 l 496 319 z "},"B":{"ha":751,"x_min":89,"x_max":694,"o":"m 450 0 l 89 0 l 89 926 l 440 926 q 617 860 554 926 q 679 690 679 793 q 638 550 679 606 q 533 478 597 494 q 648 402 601 468 q 694 250 694 336 q 632 69 694 138 q 450 0 569 0 m 406 540 q 492 574 463 540 q 521 665 521 608 q 492 757 521 722 q 406 792 463 792 l 242 792 l 242 540 l 406 540 m 413 135 q 504 170 472 135 q 536 271 536 206 q 504 367 536 329 q 413 406 472 406 l 242 406 l 242 135 l 413 135 z "},"C":{"ha":763,"x_min":54,"x_max":729,"o":"m 433 -17 q 158 117 261 -17 q 54 463 54 250 q 158 808 54 675 q 433 942 261 942 q 728 738 631 942 l 601 681 q 433 806 544 806 q 272 710 332 806 q 211 463 211 614 q 272 215 211 311 q 433 119 332 119 q 535 157 492 119 q 601 256 578 194 l 729 200 q 433 -17 632 -17 z "},"D":{"ha":811,"x_min":89,"x_max":757,"o":"m 367 0 l 89 0 l 89 926 l 365 926 q 653 797 549 926 q 757 463 757 668 q 654 128 757 256 q 367 0 551 0 m 365 135 q 539 225 478 135 q 600 463 600 315 q 540 703 600 614 q 365 792 479 792 l 242 792 l 242 135 l 365 135 z "},"E":{"ha":657,"x_min":89,"x_max":597,"o":"m 597 0 l 89 0 l 89 926 l 597 926 l 597 792 l 242 792 l 242 540 l 588 540 l 588 406 l 242 406 l 242 135 l 597 135 l 597 0 z "},"F":{"ha":644,"x_min":89,"x_max":597,"o":"m 242 0 l 89 0 l 89 926 l 597 926 l 597 792 l 242 792 l 242 540 l 588 540 l 588 406 l 242 406 l 242 0 z "},"G":{"ha":803,"x_min":54,"x_max":735,"o":"m 433 -17 q 158 115 263 -17 q 54 463 54 247 q 158 810 54 678 q 433 942 263 942 q 729 744 633 942 l 606 685 q 433 806 544 806 q 272 713 333 806 q 211 463 211 621 q 272 213 211 306 q 433 119 333 119 q 590 186 532 119 l 590 358 l 393 358 l 393 493 l 735 493 l 735 125 q 433 -17 618 -17 z "},"H":{"ha":826,"x_min":89,"x_max":738,"o":"m 738 0 l 585 0 l 585 408 l 242 408 l 242 0 l 89 0 l 89 926 l 242 926 l 242 544 l 585 544 l 585 926 l 738 926 l 738 0 z "},"I":{"ha":331,"x_min":89,"x_max":242,"o":"m 242 0 l 89 0 l 89 926 l 242 926 l 242 0 z "},"J":{"ha":569,"x_min":11,"x_max":482,"o":"m 208 -17 q 11 60 88 -17 l 71 181 q 194 119 122 119 q 292 157 257 119 q 328 261 328 194 l 328 926 l 482 926 l 482 256 q 408 51 482 119 q 208 -17 333 -17 z "},"K":{"ha":744,"x_min":89,"x_max":735,"o":"m 735 0 l 553 0 l 314 382 l 242 275 l 242 0 l 89 0 l 89 926 l 242 926 l 242 481 l 532 926 l 711 926 l 408 489 l 735 0 z "},"L":{"ha":596,"x_min":83,"x_max":560,"o":"m 560 0 l 83 0 l 83 926 l 236 926 l 236 135 l 560 135 l 560 0 z "},"M":{"ha":992,"x_min":89,"x_max":903,"o":"m 903 0 l 751 0 l 751 678 l 525 0 l 467 0 l 242 678 l 242 0 l 89 0 l 89 926 l 296 926 l 496 324 l 697 926 l 903 926 l 903 0 z "},"N":{"ha":825,"x_min":89,"x_max":736,"o":"m 736 0 l 589 0 l 242 625 l 242 0 l 89 0 l 89 926 l 244 926 l 582 319 l 582 926 l 736 926 l 736 0 z "},"O":{"ha":854,"x_min":54,"x_max":800,"o":"m 426 -17 q 154 118 254 -17 q 54 463 54 253 q 154 807 54 672 q 426 942 254 942 q 700 807 600 942 q 800 463 800 672 q 700 118 800 253 q 426 -17 600 -17 m 268 216 q 297 168 268 216 q 426 119 325 119 q 585 216 528 119 q 642 463 642 313 q 585 710 642 614 q 426 806 528 806 q 268 710 325 806 q 211 463 211 614 q 268 216 211 313 z "},"P":{"ha":715,"x_min":89,"x_max":679,"o":"m 242 0 l 89 0 l 89 926 l 404 926 q 608 844 536 926 q 679 639 679 761 q 607 433 679 515 q 404 351 535 351 l 242 351 l 242 0 m 386 486 q 485 528 449 486 q 522 639 522 569 q 485 749 522 707 q 386 792 449 792 l 242 792 l 242 486 l 386 486 z "},"Q":{"ha":854,"x_min":54,"x_max":800,"o":"m 426 -17 q 154 118 254 -17 q 54 463 54 253 q 154 807 54 672 q 426 942 254 942 q 700 807 600 942 q 800 463 800 672 q 669 83 800 217 l 711 17 l 604 -49 l 565 11 q 426 -17 501 -17 m 426 119 q 489 131 458 119 l 388 292 l 496 358 l 585 217 q 642 463 642 310 q 585 710 642 614 q 426 806 528 806 q 268 710 325 806 q 211 463 211 614 q 268 216 211 313 q 426 119 325 119 z "},"R":{"ha":743,"x_min":89,"x_max":688,"o":"m 688 0 l 515 0 l 357 350 l 242 350 l 242 0 l 89 0 l 89 926 l 408 926 q 605 847 529 926 q 681 640 681 768 q 629 463 681 529 q 507 376 578 396 l 688 0 m 386 486 q 485 528 449 486 q 522 639 522 569 q 485 750 522 708 q 386 792 449 792 l 242 792 l 242 486 l 386 486 z "},"S":{"ha":678,"x_min":31,"x_max":632,"o":"m 331 -17 q 31 101 144 -17 l 108 221 q 329 119 197 119 q 438 156 400 119 q 475 244 475 192 q 432 332 475 296 q 328 393 389 368 q 206 449 267 418 q 101 538 144 479 q 58 682 58 597 q 138 867 58 793 q 347 942 218 942 q 614 840 513 942 l 540 724 q 343 804 461 804 q 251 773 286 804 q 215 692 215 742 q 258 613 215 646 q 363 553 301 579 q 485 496 424 528 q 589 403 546 464 q 632 256 632 342 q 553 60 632 138 q 331 -17 475 -17 z "},"T":{"ha":644,"x_min":32,"x_max":611,"o":"m 399 0 l 246 0 l 246 792 l 32 792 l 32 926 l 611 926 l 611 792 l 399 792 l 399 0 z "},"U":{"ha":824,"x_min":89,"x_max":735,"o":"m 413 -17 q 175 69 261 -17 q 89 313 89 156 l 89 926 l 243 926 l 243 311 q 287 169 243 218 q 413 119 331 119 q 537 169 493 119 q 581 311 581 218 l 581 926 l 735 926 l 735 313 q 649 69 735 156 q 413 -17 563 -17 z "},"V":{"ha":747,"x_min":4,"x_max":743,"o":"m 465 0 l 282 0 l 4 926 l 169 926 l 374 183 l 578 926 l 743 926 l 465 0 z "},"W":{"ha":1038,"x_min":14,"x_max":1024,"o":"m 814 0 l 653 0 l 519 664 l 385 0 l 225 0 l 14 926 l 179 926 l 313 236 l 457 926 l 581 926 l 725 236 l 858 926 l 1024 926 l 814 0 z "},"X":{"ha":747,"x_min":4,"x_max":744,"o":"m 744 0 l 567 0 l 374 351 l 181 0 l 4 0 l 279 474 l 19 926 l 197 926 l 374 593 l 550 926 l 728 926 l 468 475 l 744 0 z "},"Y":{"ha":728,"x_min":0,"x_max":728,"o":"m 440 0 l 288 0 l 288 386 l 0 926 l 169 926 l 364 531 l 558 926 l 728 926 l 440 386 l 440 0 z "},"Z":{"ha":663,"x_min":53,"x_max":610,"o":"m 610 0 l 53 0 l 53 128 l 414 792 l 53 792 l 53 926 l 600 926 l 600 801 l 236 135 l 610 135 l 610 0 z "},"[":{"ha":318,"x_min":54,"x_max":294,"o":"m 294 -264 l 54 -264 l 54 942 l 294 942 l 294 846 l 157 846 l 157 -168 l 294 -168 l 294 -264 z "},"\\":{"ha":368,"x_min":0,"x_max":369,"o":"m 267 -28 l 0 954 l 103 954 l 369 -28 l 267 -28 z "},"]":{"ha":318,"x_min":24,"x_max":264,"o":"m 264 -264 l 24 -264 l 24 -168 l 161 -168 l 161 846 l 24 846 l 24 942 l 264 942 l 264 -264 z "},"^":{"ha":536,"x_min":26,"x_max":510,"o":"m 510 463 l 404 463 l 268 822 l 131 463 l 26 463 l 217 926 l 319 926 l 510 463 z "},"_":{"ha":586,"x_min":-4,"x_max":590,"o":"m 590 -151 l -4 -151 l -4 -56 l 590 -56 l 590 -151 z "},"`":{"ha":282,"x_min":0,"x_max":282,"o":"m 282 772 l 188 772 l 0 972 l 128 972 l 282 772 z "},"a":{"ha":651,"x_min":47,"x_max":569,"o":"m 569 0 l 431 0 l 431 71 q 253 -17 369 -17 q 108 44 168 -17 q 47 206 47 104 q 107 367 47 310 q 253 425 167 425 q 431 342 374 425 l 431 442 q 397 536 431 503 q 300 569 363 569 q 132 492 208 569 l 78 589 q 325 688 175 688 q 503 632 438 688 q 569 460 569 576 l 569 0 m 303 79 q 431 149 393 79 l 431 258 q 303 329 393 329 q 218 294 250 329 q 186 204 186 258 q 218 115 186 150 q 303 79 250 79 z "},"b":{"ha":688,"x_min":82,"x_max":639,"o":"m 219 197 q 276 132 239 158 q 353 106 313 106 q 460 169 422 106 q 497 335 497 233 q 460 501 497 438 q 353 565 422 565 q 276 538 314 565 q 219 472 239 511 l 219 197 m 219 0 l 82 0 l 82 926 l 219 926 l 219 581 q 296 660 250 633 q 393 688 342 688 q 573 592 507 688 q 639 335 639 496 q 573 78 639 172 q 393 -17 507 -17 q 219 89 283 -17 l 219 0 z "},"c":{"ha":579,"x_min":49,"x_max":549,"o":"m 343 -17 q 130 83 211 -17 q 49 336 49 182 q 130 588 49 489 q 343 688 211 688 q 549 597 476 688 l 479 503 q 358 565 431 565 q 237 500 282 565 q 192 336 192 435 q 237 172 192 238 q 358 106 282 106 q 479 168 429 106 l 549 74 q 343 -17 478 -17 z "},"d":{"ha":688,"x_min":49,"x_max":606,"o":"m 606 0 l 468 0 l 468 89 q 294 -17 404 -17 q 115 78 181 -17 q 49 335 49 172 q 115 591 49 494 q 294 688 182 688 q 468 581 408 688 l 468 926 l 606 926 l 606 0 m 336 106 q 413 132 376 106 q 468 197 450 158 l 468 474 q 413 539 450 513 q 336 565 376 565 q 228 501 265 565 q 192 335 192 438 q 228 169 192 233 q 336 106 265 106 z "},"e":{"ha":661,"x_min":49,"x_max":617,"o":"m 351 -17 q 131 81 214 -17 q 49 336 49 179 q 128 587 49 486 q 338 688 207 688 q 544 588 471 688 q 617 332 617 489 l 617 290 l 189 290 q 239 151 193 204 q 365 97 285 97 q 518 169 457 97 l 585 86 q 351 -17 493 -17 m 483 389 q 446 518 482 463 q 336 574 410 574 q 227 517 264 574 q 188 389 190 461 l 483 389 z "},"f":{"ha":379,"x_min":22,"x_max":432,"o":"m 247 0 l 110 0 l 110 550 l 22 550 l 22 671 l 110 671 l 110 732 q 160 885 110 831 q 299 940 210 940 q 432 893 385 940 l 386 794 q 324 821 361 821 q 267 797 288 821 q 247 732 247 774 l 247 671 l 358 671 l 358 550 l 247 550 l 247 0 z "},"g":{"ha":688,"x_min":49,"x_max":606,"o":"m 315 -272 q 76 -186 168 -272 l 135 -78 q 308 -153 201 -153 q 423 -112 378 -153 q 468 11 468 -72 l 468 108 q 392 28 438 57 q 294 0 346 0 q 115 91 181 0 q 49 343 49 182 q 115 595 49 503 q 294 688 181 688 q 468 581 407 688 l 468 671 l 606 671 l 606 11 q 581 -125 606 -68 q 515 -213 557 -182 q 423 -258 472 -244 q 315 -272 374 -272 m 336 122 q 413 149 375 122 q 468 214 450 175 l 468 474 q 413 539 450 513 q 336 565 375 565 q 228 505 265 565 q 192 343 192 444 q 228 183 192 243 q 336 122 265 122 z "},"h":{"ha":675,"x_min":82,"x_max":593,"o":"m 593 0 l 456 0 l 456 458 q 358 565 456 565 q 279 538 317 565 q 221 472 242 510 l 221 0 l 82 0 l 82 926 l 221 926 l 221 581 q 303 656 250 625 q 417 688 357 688 q 593 507 593 688 l 593 0 z "},"i":{"ha":301,"x_min":64,"x_max":238,"o":"m 151 756 q 90 781 115 756 q 64 842 64 807 q 90 903 64 878 q 151 928 115 928 q 213 903 188 928 q 238 842 238 878 q 212 781 238 806 q 151 756 186 756 m 219 0 l 82 0 l 82 671 l 219 671 l 219 0 z "},"j":{"ha":301,"x_min":-94,"x_max":238,"o":"m 151 756 q 90 781 115 756 q 64 842 64 807 q 90 903 64 878 q 151 928 115 928 q 213 903 188 928 q 238 842 238 878 q 212 781 238 806 q 151 756 186 756 m 24 -272 q -94 -229 -47 -272 l -56 -122 q 10 -153 -28 -153 q 82 -57 82 -153 l 82 671 l 219 671 l 219 -57 q 24 -272 219 -272 z "},"k":{"ha":635,"x_min":82,"x_max":624,"o":"m 624 0 l 461 0 l 301 281 l 219 172 l 219 0 l 82 0 l 82 926 l 219 926 l 219 342 l 458 671 l 619 671 l 397 369 l 624 0 z "},"l":{"ha":301,"x_min":82,"x_max":219,"o":"m 219 0 l 82 0 l 82 926 l 219 926 l 219 0 z "},"m":{"ha":1004,"x_min":82,"x_max":922,"o":"m 922 0 l 785 0 l 785 465 q 700 565 785 565 q 626 538 661 565 q 571 472 590 510 l 571 0 l 433 0 l 433 465 q 349 565 433 565 q 275 538 310 565 q 219 472 240 510 l 219 0 l 82 0 l 82 671 l 219 671 l 219 581 q 297 653 243 619 q 407 688 350 688 q 512 656 471 688 q 564 569 553 625 q 644 652 590 617 q 758 688 699 688 q 922 511 922 688 l 922 0 z "},"n":{"ha":675,"x_min":82,"x_max":593,"o":"m 593 0 l 454 0 l 454 457 q 358 565 454 565 q 279 538 317 565 q 219 472 242 510 l 219 0 l 82 0 l 82 671 l 219 671 l 219 581 q 304 656 250 625 q 417 688 358 688 q 593 504 593 688 l 593 0 z "},"o":{"ha":681,"x_min":49,"x_max":632,"o":"m 555 85 q 516 34 555 85 q 340 -17 478 -17 q 126 85 203 -17 q 49 336 49 186 q 126 586 49 485 q 340 688 203 688 q 555 586 478 688 q 632 336 632 485 q 555 85 632 186 m 340 106 q 450 172 413 106 q 488 336 488 238 q 450 500 488 435 q 340 565 413 565 q 229 499 267 565 q 192 336 192 433 q 229 172 192 238 q 340 106 267 106 z "},"p":{"ha":686,"x_min":82,"x_max":639,"o":"m 393 -17 q 219 90 281 -17 l 219 -256 l 82 -256 l 82 671 l 219 671 l 219 582 q 393 688 283 688 q 573 593 507 688 q 639 336 639 499 q 573 79 639 175 q 393 -17 507 -17 m 353 106 q 459 169 422 106 q 496 336 496 233 q 459 501 496 438 q 353 565 422 565 q 276 540 313 565 q 219 475 239 514 l 219 197 q 276 133 238 160 q 353 106 314 106 z "},"q":{"ha":686,"x_min":47,"x_max":604,"o":"m 335 106 q 411 133 374 106 q 467 197 449 160 l 467 475 q 410 540 447 514 q 335 565 374 565 q 227 501 264 565 q 190 336 190 438 q 227 169 190 233 q 335 106 264 106 m 293 -17 q 113 79 179 -17 q 47 336 47 175 q 113 593 47 499 q 293 688 179 688 q 467 582 403 688 l 467 671 l 604 671 l 604 -256 l 467 -256 l 467 90 q 293 -17 406 -17 z "},"r":{"ha":428,"x_min":82,"x_max":406,"o":"m 219 0 l 82 0 l 82 671 l 219 671 l 219 572 q 301 654 250 622 q 406 686 351 686 l 406 549 q 369 553 389 553 q 284 525 328 553 q 219 460 240 497 l 219 0 z "},"s":{"ha":558,"x_min":29,"x_max":518,"o":"m 275 -17 q 29 79 118 -17 l 92 176 q 172 117 124 140 q 272 93 221 93 q 355 117 325 93 q 385 181 385 140 q 351 239 385 215 q 267 279 317 263 q 169 317 218 296 q 85 383 119 338 q 51 496 51 428 q 114 633 51 578 q 283 688 176 688 q 506 601 415 688 l 446 507 q 285 578 388 578 q 210 556 239 578 q 182 500 182 533 q 217 446 182 468 q 301 408 251 424 q 399 369 350 392 q 483 300 449 347 q 518 185 518 253 q 452 40 518 96 q 275 -17 386 -17 z "},"t":{"ha":392,"x_min":19,"x_max":382,"o":"m 261 -17 q 107 150 107 -17 l 107 550 l 19 550 l 19 671 l 107 671 l 107 854 l 244 854 l 244 671 l 356 671 l 356 550 l 244 550 l 244 179 q 296 106 244 106 q 349 128 332 106 l 382 22 q 261 -17 339 -17 z "},"u":{"ha":675,"x_min":82,"x_max":592,"o":"m 592 0 l 454 0 l 454 88 q 371 13 424 43 q 258 -17 318 -17 q 82 164 82 -17 l 82 671 l 219 671 l 219 213 q 317 106 219 106 q 395 132 358 106 q 454 196 432 158 l 454 671 l 592 671 l 592 0 z "},"v":{"ha":600,"x_min":1,"x_max":599,"o":"m 374 0 l 225 0 l 1 671 l 150 671 l 300 165 l 451 671 l 599 671 l 374 0 z "},"w":{"ha":929,"x_min":10,"x_max":919,"o":"m 739 0 l 594 0 l 464 492 l 335 0 l 190 0 l 10 671 l 153 671 l 271 182 l 399 671 l 526 671 l 658 182 l 775 671 l 919 671 l 739 0 z "},"x":{"ha":592,"x_min":8,"x_max":583,"o":"m 583 0 l 432 0 l 296 243 l 160 0 l 8 0 l 210 342 l 19 671 l 171 671 l 296 440 l 421 671 l 572 671 l 381 342 l 583 0 z "},"y":{"ha":600,"x_min":1,"x_max":599,"o":"m 60 -262 l 81 -140 q 124 -150 96 -150 q 200 -93 179 -150 l 229 -12 l 1 671 l 150 671 l 300 167 l 451 671 l 599 671 l 332 -125 q 257 -238 304 -206 q 135 -272 210 -271 q 60 -262 89 -272 z "},"z":{"ha":556,"x_min":53,"x_max":503,"o":"m 503 0 l 53 0 l 53 106 l 324 550 l 53 550 l 53 671 l 497 671 l 497 569 l 225 121 l 503 121 l 503 0 z "},"{":{"ha":339,"x_min":7,"x_max":315,"o":"m 315 -264 l 253 -264 q 131 -213 183 -264 q 79 -83 79 -162 l 79 203 q 60 270 79 243 q 7 297 42 297 l 7 381 q 60 408 42 381 q 79 475 79 435 l 79 761 q 131 891 79 840 q 253 942 183 942 l 315 942 l 315 846 l 253 846 q 202 822 222 846 q 182 761 182 799 l 182 463 q 118 339 182 367 q 182 215 182 311 l 182 -83 q 203 -144 182 -121 q 253 -168 224 -168 l 315 -168 l 315 -264 z "},"|":{"ha":272,"x_min":89,"x_max":185,"o":"m 185 -28 l 89 -28 l 89 954 l 185 954 l 185 -28 z "},"}":{"ha":339,"x_min":24,"x_max":332,"o":"m 24 -264 l 24 -168 l 86 -168 q 136 -144 115 -168 q 157 -83 157 -121 l 157 215 q 221 339 157 311 q 157 463 157 367 l 157 761 q 137 822 157 799 q 86 846 117 846 l 24 846 l 24 942 l 86 942 q 208 891 156 942 q 260 761 260 840 l 260 475 q 278 408 260 435 q 332 381 297 381 l 332 297 q 278 270 297 297 q 260 203 260 243 l 260 -83 q 208 -213 260 -162 q 86 -264 156 -264 l 24 -264 z "},"~":{"ha":636,"x_min":38,"x_max":599,"o":"m 501 926 l 599 917 q 585 799 593 849 q 558 694 576 749 q 503 610 539 639 q 418 581 468 581 q 331 621 364 581 q 289 708 299 661 q 262 796 279 756 q 218 836 244 836 q 163 775 181 836 q 135 579 146 714 l 38 590 q 218 925 58 925 q 306 885 272 925 q 349 797 339 844 q 375 708 358 749 q 418 668 392 668 q 474 730 456 668 q 501 926 492 792 z "}," ":{"ha":293,"x_min":0,"x_max":0,"o":""},"¡":{"ha":336,"x_min":75,"x_max":261,"o":"m 83 -256 l 108 392 l 226 392 l 253 -256 l 83 -256 m 75 592 q 102 658 75 631 q 168 685 129 685 q 233 658 206 685 q 261 592 261 631 q 233 527 261 554 q 168 500 206 500 q 102 527 129 500 q 75 592 75 554 z "},"¢":{"ha":579,"x_min":49,"x_max":549,"o":"m 279 -139 l 279 -10 q 110 107 172 13 q 49 336 49 201 q 110 563 49 469 q 279 681 172 657 l 279 785 l 382 785 l 382 685 q 549 597 488 674 l 479 503 q 382 564 439 556 l 382 107 q 479 168 436 115 l 549 74 q 382 -14 489 -3 l 382 -139 l 279 -139 m 192 336 q 279 129 192 186 l 279 542 q 192 336 192 485 z "},"£":{"ha":656,"x_min":36,"x_max":640,"o":"m 36 376 l 36 469 l 132 469 q 65 664 65 575 q 151 860 65 781 q 351 940 236 940 q 513 897 446 940 q 610 772 581 854 l 488 710 q 363 814 454 814 q 269 772 308 814 q 231 661 231 731 q 234 614 231 636 q 247 570 238 592 q 263 537 257 549 q 283 501 268 525 q 301 469 297 476 l 456 469 l 456 376 l 338 376 q 342 329 342 353 q 316 231 342 279 q 251 151 290 182 q 313 164 276 164 q 398 142 350 164 q 476 119 446 119 q 586 168 551 119 l 640 46 q 467 -18 582 -18 q 348 13 408 -18 q 251 43 288 43 q 113 -10 194 43 l 64 99 q 166 185 128 133 q 204 293 204 238 q 186 376 204 331 l 36 376 z "},"¤":{"ha":725,"x_min":50,"x_max":675,"o":"m 675 190 l 635 150 l 557 229 q 363 158 474 158 q 168 229 251 158 l 89 150 l 50 190 l 128 268 q 58 463 58 356 q 128 657 58 572 l 50 736 l 89 775 l 168 697 q 363 767 250 767 q 557 697 472 767 l 635 775 l 675 736 l 597 657 q 667 463 667 572 q 597 268 667 356 l 675 190 m 531 294 q 565 329 531 294 q 600 463 600 364 q 531 631 600 561 q 363 700 461 700 q 194 631 264 700 q 125 463 125 561 q 194 294 125 364 q 363 225 264 225 q 531 294 461 225 z "},"¥":{"ha":728,"x_min":0,"x_max":728,"o":"m 440 0 l 288 0 l 288 165 l 32 165 l 32 254 l 288 254 l 288 386 l 32 386 l 32 476 l 239 476 l 0 926 l 169 926 l 364 531 l 558 926 l 728 926 l 488 476 l 694 476 l 694 386 l 440 386 l 440 254 l 694 254 l 694 165 l 440 165 l 440 0 z "},"¦":{"ha":272,"x_min":89,"x_max":185,"o":"m 185 -28 l 89 -28 l 89 411 l 185 411 l 185 -28 m 185 515 l 89 515 l 89 954 l 185 954 l 185 515 z "},"§":{"ha":564,"x_min":31,"x_max":518,"o":"m 518 438 q 407 265 518 322 q 518 90 518 203 q 449 -56 518 0 q 275 -112 381 -112 q 31 -15 125 -112 l 92 75 q 169 15 121 40 q 269 -11 217 -11 q 353 15 322 -11 q 385 83 385 42 q 360 141 385 117 q 298 178 335 165 q 218 210 261 192 q 138 250 175 229 q 76 311 101 271 q 51 407 51 351 q 88 511 51 467 q 182 574 125 556 q 51 756 51 639 q 115 888 51 835 q 278 940 178 940 q 504 853 422 940 l 446 769 q 288 842 382 842 q 211 818 240 842 q 182 756 182 794 q 217 696 182 719 q 301 655 251 672 q 399 616 350 638 q 483 549 449 594 q 518 438 518 504 m 389 411 q 285 532 389 492 q 179 426 179 507 q 211 357 179 383 q 308 304 243 331 q 389 411 389 342 z "},"¨":{"ha":386,"x_min":-11,"x_max":399,"o":"m 375 898 q 387 886 375 898 q 399 843 399 875 q 375 788 399 811 q 319 765 351 765 q 265 788 288 765 q 242 843 242 811 q 265 898 242 875 q 319 921 288 921 q 375 898 351 921 m 122 898 q 133 886 122 898 q 144 843 144 875 q 122 788 144 811 q 67 765 99 765 q 12 788 35 765 q -11 843 -11 811 q 12 898 -11 875 q 67 921 35 921 q 122 898 99 921 z "},"©":{"ha":1081,"x_min":61,"x_max":1019,"o":"m 879 803 q 949 733 879 803 q 1019 464 1019 663 q 879 125 1019 265 q 540 -15 739 -15 q 201 126 342 -15 q 61 464 61 267 q 201 803 61 663 q 540 943 342 943 q 879 803 739 943 m 846 158 q 910 222 846 158 q 974 464 974 286 q 846 769 974 642 q 540 897 718 897 q 235 769 363 897 q 107 464 107 642 q 235 158 107 286 q 540 31 363 31 q 846 158 718 31 m 711 300 l 750 263 q 546 169 671 169 q 341 255 425 169 q 257 465 257 340 q 341 676 257 592 q 546 760 425 760 q 749 668 671 760 l 711 629 q 639 688 683 665 q 546 710 594 710 q 382 641 450 710 q 314 465 314 572 q 382 290 314 361 q 546 219 450 219 q 711 300 651 219 z "},"ª":{"ha":469,"x_min":40,"x_max":403,"o":"m 403 453 l 301 453 l 301 499 q 179 442 257 442 q 81 481 122 442 q 40 586 40 519 q 81 690 40 653 q 179 728 121 728 q 301 675 258 728 l 301 738 q 277 799 301 778 q 214 821 253 821 q 100 765 150 821 l 60 833 q 232 900 128 900 q 356 861 310 900 q 403 740 403 822 l 403 453 m 218 508 q 301 554 275 508 l 301 619 q 218 665 275 665 q 163 644 183 665 q 142 588 142 622 q 163 530 142 551 q 218 508 183 508 z "},"«":{"ha":588,"x_min":42,"x_max":546,"o":"m 546 88 l 426 88 l 253 338 l 426 583 l 546 583 l 372 338 l 546 88 m 336 88 l 215 88 l 42 338 l 215 583 l 336 583 l 163 338 l 336 88 z "},"¬":{"ha":618,"x_min":40,"x_max":572,"o":"m 572 642 l 572 286 l 479 286 l 479 551 l 40 551 l 40 642 l 572 642 z "},"®":{"ha":686,"x_min":49,"x_max":638,"o":"m 638 646 q 551 438 638 524 q 343 351 465 351 q 135 438 221 351 q 49 646 49 524 q 135 854 49 768 q 343 940 221 940 q 552 855 467 940 q 638 646 638 769 m 596 646 q 522 825 596 751 q 343 899 449 899 q 164 825 238 899 q 90 646 90 751 q 164 467 90 542 q 343 393 238 393 q 522 467 449 393 q 596 646 596 542 m 481 476 l 424 476 l 336 610 l 276 610 l 276 476 l 231 476 l 231 814 l 368 814 q 444 785 413 814 q 476 711 476 757 q 445 637 476 663 q 390 611 414 611 l 481 476 m 429 711 q 410 756 429 738 q 368 774 392 774 l 276 774 l 276 651 l 368 651 q 410 669 392 651 q 429 711 429 686 z "},"¯":{"ha":429,"x_min":0,"x_max":429,"o":"m 429 821 l 0 821 l 0 903 l 429 903 l 429 821 z "},"°":{"ha":417,"x_min":31,"x_max":386,"o":"m 386 761 q 333 637 386 689 q 207 585 281 585 q 82 637 133 585 q 31 761 31 689 q 83 888 31 835 q 207 940 135 940 q 333 888 281 940 q 386 761 386 835 m 306 761 q 276 831 306 801 q 207 860 247 860 q 140 831 168 860 q 111 761 111 801 q 139 694 111 722 q 207 665 167 665 q 276 694 247 665 q 306 761 306 722 z "},"±":{"ha":613,"x_min":40,"x_max":572,"o":"m 572 438 l 356 438 l 356 189 l 257 189 l 257 438 l 40 438 l 40 526 l 257 526 l 257 765 l 356 765 l 356 526 l 572 526 l 572 438 m 572 22 l 40 22 l 40 113 l 572 113 l 572 22 z "},"²":{"ha":469,"x_min":43,"x_max":428,"o":"m 428 585 l 54 585 l 54 664 q 267 870 215 810 q 318 981 318 931 q 293 1041 318 1019 q 231 1063 268 1063 q 104 993 150 1063 l 43 1058 q 235 1149 113 1149 q 372 1106 318 1149 q 425 986 425 1063 q 374 856 425 922 q 197 671 324 789 l 428 671 l 428 585 z "},"³":{"ha":469,"x_min":38,"x_max":429,"o":"m 429 738 q 376 620 429 665 q 233 575 322 575 q 38 665 99 575 l 100 731 q 229 661 149 661 q 299 683 275 661 q 324 743 324 706 q 217 826 324 826 q 168 825 176 826 l 168 911 q 214 910 176 910 q 317 986 317 910 q 292 1043 317 1024 q 225 1063 267 1063 q 103 1000 150 1063 l 44 1060 q 233 1149 111 1149 q 370 1110 319 1149 q 421 999 421 1071 q 388 915 421 950 q 311 872 356 881 q 393 828 357 865 q 429 738 429 792 z "},"´":{"ha":282,"x_min":0,"x_max":282,"o":"m 282 972 l 94 772 l 0 772 l 153 972 l 282 972 z "},"µ":{"ha":675,"x_min":82,"x_max":592,"o":"m 219 -256 l 82 -256 l 82 671 l 219 671 l 219 213 q 317 104 219 104 q 395 131 358 104 q 454 196 432 158 l 454 671 l 592 671 l 592 0 l 454 0 l 454 88 q 371 13 424 43 q 258 -17 318 -17 q 219 -14 242 -17 l 219 -256 z "},"¶":{"ha":624,"x_min":38,"x_max":540,"o":"m 540 -139 l 467 -139 l 467 853 l 350 853 l 350 -139 l 276 -139 l 276 449 q 108 519 178 449 q 38 688 38 589 q 108 856 38 786 q 276 926 178 926 l 540 926 l 540 -139 z "},"·":{"ha":336,"x_min":75,"x_max":261,"o":"m 261 340 q 234 274 261 301 q 168 247 207 247 q 102 274 129 247 q 75 340 75 301 q 102 405 75 378 q 168 432 129 432 q 234 405 207 432 q 261 340 261 378 z "},"¸":{"ha":271,"x_min":0,"x_max":271,"o":"m 131 -268 q 0 -225 50 -268 l 29 -165 q 128 -204 79 -204 q 176 -190 156 -204 q 197 -153 197 -176 q 156 -110 197 -110 q 114 -131 131 -110 l 60 -100 l 101 15 l 175 15 l 140 -74 q 185 -60 158 -60 q 246 -86 221 -60 q 271 -154 271 -112 q 231 -237 271 -206 q 131 -268 192 -268 z "},"¹":{"ha":343,"x_min":15,"x_max":269,"o":"m 269 585 l 163 585 l 163 1003 l 76 914 l 15 978 l 176 1140 l 269 1140 l 269 585 z "},"º":{"ha":492,"x_min":43,"x_max":449,"o":"m 244 442 q 97 508 151 442 q 43 671 43 575 q 97 834 43 768 q 244 900 151 900 q 394 834 340 900 q 449 671 449 768 q 394 508 449 575 q 244 442 339 442 m 244 525 q 318 565 293 525 q 343 671 343 606 q 318 776 343 736 q 244 815 293 815 q 173 775 197 815 q 149 671 149 735 q 173 565 149 606 q 244 525 197 525 z "},"»":{"ha":588,"x_min":42,"x_max":546,"o":"m 336 338 l 163 88 l 42 88 l 215 338 l 42 583 l 163 583 l 336 338 m 546 338 l 372 88 l 253 88 l 426 338 l 253 583 l 372 583 l 546 338 z "},"¼":{"ha":989,"x_min":15,"x_max":958,"o":"m 756 926 l 267 0 l 189 0 l 676 926 l 756 926 m 958 131 l 897 131 l 897 0 l 790 0 l 790 131 l 553 131 l 553 210 l 758 556 l 897 556 l 897 215 l 958 215 l 958 131 m 790 215 l 790 451 l 651 215 l 790 215 m 269 371 l 163 371 l 163 789 l 76 700 l 15 764 l 176 926 l 269 926 l 269 371 z "},"½":{"ha":1038,"x_min":15,"x_max":996,"o":"m 756 926 l 267 0 l 189 0 l 676 926 l 756 926 m 996 0 l 622 0 l 622 79 q 835 285 783 225 q 886 396 886 346 q 861 456 886 435 q 799 478 836 478 q 672 408 718 478 l 611 474 q 803 564 681 564 q 940 521 886 564 q 993 401 993 478 q 942 271 993 338 q 765 86 892 204 l 996 86 l 996 0 m 269 371 l 163 371 l 163 789 l 76 700 l 15 764 l 176 926 l 269 926 l 269 371 z "},"¾":{"ha":1083,"x_min":38,"x_max":1051,"o":"m 849 926 l 360 0 l 282 0 l 769 926 l 849 926 m 1051 131 l 990 131 l 990 0 l 883 0 l 883 131 l 646 131 l 646 210 l 851 556 l 990 556 l 990 215 l 1051 215 l 1051 131 m 883 215 l 883 451 l 744 215 l 883 215 m 429 524 q 376 406 429 451 q 233 361 322 361 q 38 451 99 361 l 100 517 q 229 447 149 447 q 299 469 275 447 q 324 529 324 492 q 217 613 324 613 q 168 611 176 613 l 168 697 q 214 696 176 696 q 317 772 317 696 q 292 829 317 810 q 225 849 267 849 q 103 786 150 849 l 44 846 q 233 935 111 935 q 370 896 319 935 q 421 785 421 857 q 388 701 421 736 q 311 658 356 667 q 393 615 357 651 q 429 524 429 578 z "},"¿":{"ha":471,"x_min":31,"x_max":513,"o":"m 324 399 q 365 281 365 353 q 347 197 365 235 q 301 133 328 160 q 249 83 275 107 q 203 28 222 58 q 185 -37 185 -3 q 215 -108 185 -79 q 296 -137 244 -137 q 435 -65 378 -137 l 513 -162 q 271 -272 419 -272 q 96 -213 161 -272 q 31 -64 31 -154 q 63 53 31 0 q 133 136 94 106 q 203 208 171 167 q 235 290 235 249 q 207 356 235 331 l 324 399 m 272 685 q 338 658 311 685 q 365 592 365 631 q 338 527 365 554 q 272 500 311 500 q 207 527 235 500 q 179 592 179 554 q 207 658 179 631 q 272 685 235 685 z "},"À":{"ha":747,"x_min":4,"x_max":743,"o":"m 468 1011 l 374 1011 l 186 1211 l 314 1211 l 468 1011 m 743 0 l 578 0 l 526 183 l 221 183 l 169 0 l 4 0 l 282 926 l 465 926 l 743 0 m 496 319 l 374 763 l 251 319 l 496 319 z "},"Á":{"ha":747,"x_min":4,"x_max":743,"o":"m 564 1211 l 376 1011 l 282 1011 l 435 1211 l 564 1211 m 743 0 l 578 0 l 526 183 l 221 183 l 169 0 l 4 0 l 282 926 l 465 926 l 743 0 m 496 319 l 374 763 l 251 319 l 496 319 z "},"Â":{"ha":747,"x_min":4,"x_max":743,"o":"m 550 1011 l 467 1011 l 374 1146 l 285 1011 l 201 1011 l 310 1211 l 438 1211 l 550 1011 m 743 0 l 578 0 l 526 183 l 221 183 l 169 0 l 4 0 l 282 926 l 465 926 l 743 0 m 496 319 l 374 763 l 251 319 l 496 319 z "},"Ã":{"ha":747,"x_min":4,"x_max":743,"o":"m 444 1008 q 394 1026 415 1008 q 361 1065 372 1043 q 335 1103 350 1086 q 304 1121 321 1121 q 253 1017 253 1121 l 178 1017 q 211 1152 178 1101 q 306 1203 244 1203 q 356 1185 335 1203 q 388 1147 378 1168 q 414 1108 399 1125 q 446 1090 429 1090 q 496 1194 496 1090 l 571 1194 q 538 1059 571 1110 q 444 1008 506 1008 m 743 0 l 578 0 l 526 183 l 221 183 l 169 0 l 4 0 l 282 926 l 465 926 l 743 0 m 496 319 l 374 763 l 251 319 l 496 319 z "},"Ä":{"ha":747,"x_min":4,"x_max":743,"o":"m 556 1135 q 567 1124 556 1135 q 579 1081 579 1113 q 556 1026 579 1049 q 500 1003 532 1003 q 445 1026 468 1003 q 422 1081 422 1049 q 445 1135 422 1113 q 500 1158 468 1158 q 556 1135 532 1158 m 302 1135 q 314 1124 302 1135 q 325 1081 325 1113 q 302 1026 325 1049 q 247 1003 279 1003 q 192 1026 215 1003 q 169 1081 169 1049 q 192 1135 169 1113 q 247 1158 215 1158 q 302 1135 279 1158 m 743 0 l 578 0 l 526 183 l 221 183 l 169 0 l 4 0 l 282 926 l 465 926 l 743 0 m 496 319 l 374 763 l 251 319 l 496 319 z "},"Å":{"ha":747,"x_min":4,"x_max":743,"o":"m 375 961 q 282 1000 321 961 q 243 1093 243 1039 q 282 1185 243 1147 q 375 1224 321 1224 q 466 1185 428 1224 q 504 1093 504 1147 q 466 1000 504 1039 q 375 961 428 961 m 375 1026 q 420 1046 401 1026 q 439 1093 439 1065 q 420 1140 439 1121 q 375 1158 401 1158 q 328 1140 347 1158 q 308 1093 308 1121 q 328 1046 308 1065 q 375 1026 347 1026 m 743 0 l 578 0 l 526 183 l 221 183 l 169 0 l 4 0 l 282 926 l 465 926 l 743 0 m 496 319 l 374 763 l 251 319 l 496 319 z "},"Æ":{"ha":1075,"x_min":6,"x_max":1017,"o":"m 1017 0 l 510 0 l 510 183 l 254 183 l 171 0 l 6 0 l 446 926 l 1017 926 l 1017 792 l 663 792 l 663 540 l 1007 540 l 1007 406 l 663 406 l 663 135 l 1017 135 l 1017 0 m 510 319 l 510 763 l 308 319 l 510 319 z "},"Ç":{"ha":763,"x_min":54,"x_max":729,"o":"m 426 -262 q 296 -219 346 -262 l 325 -160 q 424 -199 375 -199 q 472 -185 451 -199 q 493 -147 493 -171 q 451 -104 493 -104 q 410 -125 426 -104 l 356 -94 l 385 -12 q 143 135 232 6 q 54 463 54 265 q 158 808 54 675 q 433 942 261 942 q 728 738 631 942 l 601 681 q 433 806 544 806 q 272 710 332 806 q 211 463 211 614 q 272 215 211 311 q 433 119 332 119 q 535 157 492 119 q 601 256 578 194 l 729 200 q 456 -15 638 -4 l 436 -68 q 481 -54 454 -54 q 542 -81 517 -54 q 567 -149 567 -107 q 527 -231 567 -200 q 426 -262 488 -262 z "},"È":{"ha":657,"x_min":89,"x_max":597,"o":"m 438 1011 l 343 1011 l 156 1211 l 283 1211 l 438 1011 m 597 0 l 89 0 l 89 926 l 597 926 l 597 792 l 242 792 l 242 540 l 588 540 l 588 406 l 242 406 l 242 135 l 597 135 l 597 0 z "},"É":{"ha":657,"x_min":89,"x_max":597,"o":"m 535 1211 l 347 1011 l 253 1011 l 406 1211 l 535 1211 m 597 0 l 89 0 l 89 926 l 597 926 l 597 792 l 242 792 l 242 540 l 588 540 l 588 406 l 242 406 l 242 135 l 597 135 l 597 0 z "},"Ê":{"ha":657,"x_min":89,"x_max":597,"o":"m 518 1011 l 435 1011 l 342 1146 l 253 1011 l 169 1011 l 278 1211 l 406 1211 l 518 1011 m 597 0 l 89 0 l 89 926 l 597 926 l 597 792 l 242 792 l 242 540 l 588 540 l 588 406 l 242 406 l 242 135 l 597 135 l 597 0 z "},"Ë":{"ha":657,"x_min":89,"x_max":597,"o":"m 526 1135 q 538 1124 526 1135 q 550 1081 550 1113 q 526 1026 550 1049 q 471 1003 503 1003 q 416 1026 439 1003 q 393 1081 393 1049 q 416 1135 393 1113 q 471 1158 439 1158 q 526 1135 503 1158 m 273 1135 q 284 1124 273 1135 q 296 1081 296 1113 q 273 1026 296 1049 q 218 1003 250 1003 q 163 1026 186 1003 q 140 1081 140 1049 q 163 1135 140 1113 q 218 1158 186 1158 q 273 1135 250 1158 m 597 0 l 89 0 l 89 926 l 597 926 l 597 792 l 242 792 l 242 540 l 588 540 l 588 406 l 242 406 l 242 135 l 597 135 l 597 0 z "},"Ì":{"ha":331,"x_min":-24,"x_max":258,"o":"m 258 1011 l 164 1011 l -24 1211 l 104 1211 l 258 1011 m 242 0 l 89 0 l 89 926 l 242 926 l 242 0 z "},"Í":{"ha":331,"x_min":75,"x_max":357,"o":"m 357 1211 l 169 1011 l 75 1011 l 228 1211 l 357 1211 m 242 0 l 89 0 l 89 926 l 242 926 l 242 0 z "},"Î":{"ha":331,"x_min":-8,"x_max":340,"o":"m 340 1011 l 257 1011 l 164 1146 l 75 1011 l -8 1011 l 100 1211 l 228 1211 l 340 1011 m 242 0 l 89 0 l 89 926 l 242 926 l 242 0 z "},"Ï":{"ha":331,"x_min":-37,"x_max":372,"o":"m 349 1135 q 360 1124 349 1135 q 372 1081 372 1113 q 349 1026 372 1049 q 293 1003 325 1003 q 238 1026 261 1003 q 215 1081 215 1049 q 238 1135 215 1113 q 293 1158 261 1158 q 349 1135 325 1158 m 95 1135 q 107 1124 95 1135 q 118 1081 118 1113 q 95 1026 118 1049 q 40 1003 72 1003 q -15 1026 8 1003 q -37 1081 -37 1049 q -15 1135 -37 1113 q 40 1158 8 1158 q 95 1135 72 1158 m 242 0 l 89 0 l 89 926 l 242 926 l 242 0 z "},"Ð":{"ha":844,"x_min":19,"x_max":790,"o":"m 400 0 l 122 0 l 122 401 l 19 401 l 19 513 l 122 513 l 122 926 l 399 926 q 686 797 582 926 q 790 463 790 668 q 688 128 790 256 q 400 0 585 0 m 436 401 l 275 401 l 275 135 l 399 135 q 572 225 511 135 q 633 463 633 315 q 573 703 633 614 q 399 792 513 792 l 275 792 l 275 513 l 436 513 l 436 401 z "},"Ñ":{"ha":825,"x_min":89,"x_max":736,"o":"m 481 1008 q 430 1026 451 1008 q 397 1065 408 1043 q 372 1103 386 1086 q 340 1121 357 1121 q 289 1017 289 1121 l 214 1017 q 247 1152 214 1101 q 342 1203 281 1203 q 392 1185 371 1203 q 424 1147 414 1168 q 450 1108 435 1125 q 482 1090 465 1090 q 532 1194 532 1090 l 607 1194 q 574 1059 607 1110 q 481 1008 542 1008 m 736 0 l 589 0 l 242 625 l 242 0 l 89 0 l 89 926 l 244 926 l 582 319 l 582 926 l 736 926 l 736 0 z "},"Ò":{"ha":854,"x_min":54,"x_max":800,"o":"m 522 1011 l 428 1011 l 240 1211 l 368 1211 l 522 1011 m 426 -17 q 154 118 254 -17 q 54 463 54 253 q 154 807 54 672 q 426 942 254 942 q 700 807 600 942 q 800 463 800 672 q 700 118 800 253 q 426 -17 600 -17 m 268 216 q 297 168 268 216 q 426 119 325 119 q 585 216 528 119 q 642 463 642 313 q 585 710 642 614 q 426 806 528 806 q 268 710 325 806 q 211 463 211 614 q 268 216 211 313 z "},"Ó":{"ha":854,"x_min":54,"x_max":800,"o":"m 618 1211 l 431 1011 l 336 1011 l 489 1211 l 618 1211 m 426 -17 q 154 118 254 -17 q 54 463 54 253 q 154 807 54 672 q 426 942 254 942 q 700 807 600 942 q 800 463 800 672 q 700 118 800 253 q 426 -17 600 -17 m 268 216 q 297 168 268 216 q 426 119 325 119 q 585 216 528 119 q 642 463 642 313 q 585 710 642 614 q 426 806 528 806 q 268 710 325 806 q 211 463 211 614 q 268 216 211 313 z "},"Ô":{"ha":854,"x_min":54,"x_max":800,"o":"m 603 1011 l 519 1011 l 426 1146 l 338 1011 l 254 1011 l 363 1211 l 490 1211 l 603 1011 m 426 -17 q 154 118 254 -17 q 54 463 54 253 q 154 807 54 672 q 426 942 254 942 q 700 807 600 942 q 800 463 800 672 q 700 118 800 253 q 426 -17 600 -17 m 268 216 q 297 168 268 216 q 426 119 325 119 q 585 216 528 119 q 642 463 642 313 q 585 710 642 614 q 426 806 528 806 q 268 710 325 806 q 211 463 211 614 q 268 216 211 313 z "},"Õ":{"ha":854,"x_min":54,"x_max":800,"o":"m 497 1008 q 447 1026 468 1008 q 414 1065 425 1043 q 388 1103 403 1086 q 357 1121 374 1121 q 306 1017 306 1121 l 231 1017 q 264 1152 231 1101 q 358 1203 297 1203 q 409 1185 388 1203 q 441 1147 431 1168 q 467 1108 451 1125 q 499 1090 482 1090 q 549 1194 549 1090 l 624 1194 q 591 1059 624 1110 q 497 1008 558 1008 m 426 -17 q 154 118 254 -17 q 54 463 54 253 q 154 807 54 672 q 426 942 254 942 q 700 807 600 942 q 800 463 800 672 q 700 118 800 253 q 426 -17 600 -17 m 268 216 q 297 168 268 216 q 426 119 325 119 q 585 216 528 119 q 642 463 642 313 q 585 710 642 614 q 426 806 528 806 q 268 710 325 806 q 211 463 211 614 q 268 216 211 313 z "},"Ö":{"ha":854,"x_min":54,"x_max":800,"o":"m 610 1135 q 622 1124 610 1135 q 633 1081 633 1113 q 610 1026 633 1049 q 554 1003 586 1003 q 499 1026 522 1003 q 476 1081 476 1049 q 499 1135 476 1113 q 554 1158 522 1158 q 610 1135 586 1158 m 356 1135 q 368 1124 356 1135 q 379 1081 379 1113 q 356 1026 379 1049 q 301 1003 333 1003 q 247 1026 269 1003 q 224 1081 224 1049 q 247 1135 224 1113 q 301 1158 269 1158 q 356 1135 333 1158 m 426 -17 q 154 118 254 -17 q 54 463 54 253 q 154 807 54 672 q 426 942 254 942 q 700 807 600 942 q 800 463 800 672 q 700 118 800 253 q 426 -17 600 -17 m 268 216 q 297 168 268 216 q 426 119 325 119 q 585 216 528 119 q 642 463 642 313 q 585 710 642 614 q 426 806 528 806 q 268 710 325 806 q 211 463 211 614 q 268 216 211 313 z "},"×":{"ha":613,"x_min":71,"x_max":542,"o":"m 479 228 l 307 401 l 135 228 l 71 292 l 243 464 l 71 636 l 135 700 l 307 526 l 479 700 l 542 636 l 371 464 l 542 292 l 479 228 z "},"Ø":{"ha":854,"x_min":54,"x_max":800,"o":"m 426 -17 q 228 44 315 -17 l 203 0 l 99 0 l 161 108 q 54 463 54 240 q 154 807 54 672 q 426 942 254 942 q 618 885 535 942 l 643 926 l 747 926 l 686 824 q 800 463 800 689 q 700 118 800 253 q 426 -17 600 -17 m 426 119 q 585 216 528 119 q 642 463 642 313 q 601 678 642 589 l 303 171 q 426 119 351 119 m 211 463 q 249 256 211 342 l 544 758 q 426 806 494 806 q 268 710 325 806 q 211 463 211 614 z "},"Ù":{"ha":824,"x_min":89,"x_max":735,"o":"m 507 1011 l 413 1011 l 225 1211 l 353 1211 l 507 1011 m 413 -17 q 175 69 261 -17 q 89 313 89 156 l 89 926 l 243 926 l 243 311 q 287 169 243 218 q 413 119 331 119 q 537 169 493 119 q 581 311 581 218 l 581 926 l 735 926 l 735 313 q 649 69 735 156 q 413 -17 563 -17 z "},"Ú":{"ha":824,"x_min":89,"x_max":735,"o":"m 603 1211 l 415 1011 l 321 1011 l 474 1211 l 603 1211 m 413 -17 q 175 69 261 -17 q 89 313 89 156 l 89 926 l 243 926 l 243 311 q 287 169 243 218 q 413 119 331 119 q 537 169 493 119 q 581 311 581 218 l 581 926 l 735 926 l 735 313 q 649 69 735 156 q 413 -17 563 -17 z "},"Û":{"ha":824,"x_min":89,"x_max":735,"o":"m 590 1011 l 507 1011 l 414 1146 l 325 1011 l 242 1011 l 350 1211 l 478 1211 l 590 1011 m 413 -17 q 175 69 261 -17 q 89 313 89 156 l 89 926 l 243 926 l 243 311 q 287 169 243 218 q 413 119 331 119 q 537 169 493 119 q 581 311 581 218 l 581 926 l 735 926 l 735 313 q 649 69 735 156 q 413 -17 563 -17 z "},"Ü":{"ha":824,"x_min":89,"x_max":735,"o":"m 594 1135 q 606 1124 594 1135 q 618 1081 618 1113 q 594 1026 618 1049 q 539 1003 571 1003 q 484 1026 507 1003 q 461 1081 461 1049 q 484 1135 461 1113 q 539 1158 507 1158 q 594 1135 571 1158 m 341 1135 q 352 1124 341 1135 q 364 1081 364 1113 q 341 1026 364 1049 q 286 1003 318 1003 q 231 1026 254 1003 q 208 1081 208 1049 q 231 1135 208 1113 q 286 1158 254 1158 q 341 1135 318 1158 m 413 -17 q 175 69 261 -17 q 89 313 89 156 l 89 926 l 243 926 l 243 311 q 287 169 243 218 q 413 119 331 119 q 537 169 493 119 q 581 311 581 218 l 581 926 l 735 926 l 735 313 q 649 69 735 156 q 413 -17 563 -17 z "},"Ý":{"ha":728,"x_min":0,"x_max":728,"o":"m 558 1211 l 371 1011 l 276 1011 l 429 1211 l 558 1211 m 440 0 l 288 0 l 288 386 l 0 926 l 169 926 l 364 531 l 558 926 l 728 926 l 440 386 l 440 0 z "},"Þ":{"ha":715,"x_min":89,"x_max":679,"o":"m 242 0 l 89 0 l 89 926 l 242 926 l 242 768 l 404 768 q 608 685 536 768 q 679 479 679 601 q 607 275 679 357 q 404 193 535 193 l 242 193 l 242 0 m 386 328 q 485 369 449 328 q 522 479 522 411 q 485 591 522 549 q 386 633 449 633 l 242 633 l 242 328 l 386 328 z "},"ß":{"ha":774,"x_min":88,"x_max":753,"o":"m 753 186 q 688 42 753 101 q 518 -17 624 -17 q 288 81 382 -17 l 344 178 q 506 94 411 94 q 584 119 554 94 q 614 182 614 144 q 582 241 614 217 q 505 283 550 265 q 415 322 460 300 q 338 386 369 343 q 306 492 306 429 q 331 575 306 538 q 385 633 356 613 q 440 680 415 653 q 465 735 465 707 q 433 794 465 771 q 354 818 400 818 q 261 783 297 818 q 225 685 225 749 l 225 0 l 88 0 l 88 685 q 160 867 88 794 q 354 940 233 940 q 531 887 457 940 q 604 751 604 833 q 578 662 604 701 q 522 601 553 622 q 465 554 490 581 q 439 499 439 528 q 472 445 439 467 q 550 408 504 424 q 642 369 596 392 q 720 301 688 347 q 753 186 753 254 z "},"à":{"ha":651,"x_min":47,"x_max":569,"o":"m 569 0 l 431 0 l 431 71 q 253 -17 369 -17 q 108 44 168 -17 q 47 206 47 104 q 107 367 47 310 q 253 425 167 425 q 431 342 374 425 l 431 442 q 397 536 431 503 q 300 569 363 569 q 132 492 208 569 l 78 589 q 325 688 175 688 q 503 632 438 688 q 569 460 569 576 l 569 0 m 303 79 q 431 149 393 79 l 431 258 q 303 329 393 329 q 218 294 250 329 q 186 204 186 258 q 218 115 186 150 q 303 79 250 79 m 419 772 l 325 772 l 138 972 l 265 972 l 419 772 z "},"á":{"ha":651,"x_min":47,"x_max":569,"o":"m 569 0 l 431 0 l 431 71 q 253 -17 369 -17 q 108 44 168 -17 q 47 206 47 104 q 107 367 47 310 q 253 425 167 425 q 431 342 374 425 l 431 442 q 397 536 431 503 q 300 569 363 569 q 132 492 208 569 l 78 589 q 325 688 175 688 q 503 632 438 688 q 569 460 569 576 l 569 0 m 303 79 q 431 149 393 79 l 431 258 q 303 329 393 329 q 218 294 250 329 q 186 204 186 258 q 218 115 186 150 q 303 79 250 79 m 518 972 l 331 772 l 236 772 l 389 972 l 518 972 z "},"â":{"ha":651,"x_min":47,"x_max":569,"o":"m 569 0 l 431 0 l 431 71 q 253 -17 369 -17 q 108 44 168 -17 q 47 206 47 104 q 107 367 47 310 q 253 425 167 425 q 431 342 374 425 l 431 442 q 397 536 431 503 q 300 569 363 569 q 132 492 208 569 l 78 589 q 325 688 175 688 q 503 632 438 688 q 569 460 569 576 l 569 0 m 303 79 q 431 149 393 79 l 431 258 q 303 329 393 329 q 218 294 250 329 q 186 204 186 258 q 218 115 186 150 q 303 79 250 79 m 504 772 l 421 772 l 328 907 l 239 772 l 156 772 l 264 972 l 392 972 l 504 772 z "},"ã":{"ha":651,"x_min":47,"x_max":569,"o":"m 569 0 l 431 0 l 431 71 q 253 -17 369 -17 q 108 44 168 -17 q 47 206 47 104 q 107 367 47 310 q 253 425 167 425 q 431 342 374 425 l 431 442 q 397 536 431 503 q 300 569 363 569 q 132 492 208 569 l 78 589 q 325 688 175 688 q 503 632 438 688 q 569 460 569 576 l 569 0 m 303 79 q 431 149 393 79 l 431 258 q 303 329 393 329 q 218 294 250 329 q 186 204 186 258 q 218 115 186 150 q 303 79 250 79 m 397 769 q 347 787 368 769 q 314 826 325 804 q 288 865 303 847 q 257 882 274 882 q 206 778 206 882 l 131 778 q 164 913 131 863 q 258 964 197 964 q 309 947 288 964 q 341 908 331 929 q 367 869 351 886 q 399 851 382 851 q 449 956 449 851 l 524 956 q 491 820 524 871 q 397 769 458 769 z "},"ä":{"ha":651,"x_min":47,"x_max":569,"o":"m 569 0 l 431 0 l 431 71 q 253 -17 369 -17 q 108 44 168 -17 q 47 206 47 104 q 107 367 47 310 q 253 425 167 425 q 431 342 374 425 l 431 442 q 397 536 431 503 q 300 569 363 569 q 132 492 208 569 l 78 589 q 325 688 175 688 q 503 632 438 688 q 569 460 569 576 l 569 0 m 303 79 q 431 149 393 79 l 431 258 q 303 329 393 329 q 218 294 250 329 q 186 204 186 258 q 218 115 186 150 q 303 79 250 79 m 507 898 q 519 886 507 898 q 531 843 531 875 q 507 788 531 811 q 451 765 483 765 q 397 788 419 765 q 374 843 374 811 q 397 898 374 875 q 451 921 419 921 q 507 898 483 921 m 253 898 q 265 886 253 898 q 276 843 276 875 q 253 788 276 811 q 199 765 231 765 q 144 788 167 765 q 121 843 121 811 q 144 898 121 875 q 199 921 167 921 q 253 898 231 921 z "},"å":{"ha":651,"x_min":47,"x_max":569,"o":"m 569 0 l 431 0 l 431 71 q 253 -17 369 -17 q 108 44 168 -17 q 47 206 47 104 q 107 367 47 310 q 253 425 167 425 q 431 342 374 425 l 431 442 q 397 536 431 503 q 300 569 363 569 q 132 492 208 569 l 78 589 q 325 688 175 688 q 503 632 438 688 q 569 460 569 576 l 569 0 m 303 79 q 431 149 393 79 l 431 258 q 303 329 393 329 q 218 294 250 329 q 186 204 186 258 q 218 115 186 150 q 303 79 250 79 m 326 756 q 233 794 272 756 q 194 888 194 833 q 233 980 194 942 q 326 1018 272 1018 q 417 980 379 1018 q 456 888 456 942 q 417 794 456 833 q 326 756 379 756 m 326 821 q 372 840 353 821 q 390 888 390 860 q 372 934 390 915 q 326 953 353 953 q 279 934 299 953 q 260 888 260 915 q 279 840 260 860 q 326 821 299 821 z "},"æ":{"ha":1040,"x_min":47,"x_max":996,"o":"m 996 290 l 567 290 q 618 151 572 204 q 743 97 664 97 q 896 171 833 97 l 963 86 q 731 -17 872 -17 q 490 107 576 -17 q 258 -17 404 -17 q 108 42 169 -17 q 47 204 47 101 q 106 365 47 306 q 253 425 165 425 q 431 342 372 425 l 431 442 q 397 536 431 503 q 300 569 363 569 q 132 492 208 569 l 78 589 q 325 688 175 688 q 519 578 475 688 q 722 688 586 688 q 923 588 850 688 q 996 331 996 488 l 996 290 m 567 389 l 863 389 q 825 518 861 463 q 714 574 789 574 q 606 517 643 574 q 567 389 569 461 m 446 171 q 431 257 431 214 q 303 329 393 329 q 219 295 251 329 q 186 204 186 261 q 218 113 186 146 q 303 79 250 79 q 446 171 401 79 z "},"ç":{"ha":579,"x_min":49,"x_max":549,"o":"m 343 -265 q 213 -222 263 -265 l 242 -162 q 340 -201 292 -201 q 389 -187 368 -201 q 410 -150 410 -174 q 368 -107 410 -107 q 326 -128 343 -107 l 272 -97 l 301 -14 q 117 98 186 1 q 49 336 49 194 q 130 588 49 489 q 343 688 211 688 q 549 597 476 688 l 479 503 q 358 565 431 565 q 237 500 282 565 q 192 336 192 435 q 237 172 192 238 q 358 106 282 106 q 479 168 429 106 l 549 74 q 374 -15 486 -6 l 353 -71 q 397 -57 371 -57 q 458 -83 433 -57 q 483 -151 483 -110 q 444 -234 483 -203 q 343 -265 404 -265 z "},"è":{"ha":661,"x_min":49,"x_max":617,"o":"m 351 -17 q 131 81 214 -17 q 49 336 49 179 q 128 587 49 486 q 338 688 207 688 q 544 588 471 688 q 617 332 617 489 l 617 290 l 189 290 q 239 151 193 204 q 365 97 285 97 q 518 169 457 97 l 585 86 q 351 -17 493 -17 m 483 389 q 446 518 482 463 q 336 574 410 574 q 227 517 264 574 q 188 389 190 461 l 483 389 m 432 772 l 338 772 l 150 972 l 278 972 l 432 772 z "},"é":{"ha":661,"x_min":49,"x_max":617,"o":"m 351 -17 q 131 81 214 -17 q 49 336 49 179 q 128 587 49 486 q 338 688 207 688 q 544 588 471 688 q 617 332 617 489 l 617 290 l 189 290 q 239 151 193 204 q 365 97 285 97 q 518 169 457 97 l 585 86 q 351 -17 493 -17 m 483 389 q 446 518 482 463 q 336 574 410 574 q 227 517 264 574 q 188 389 190 461 l 483 389 m 531 972 l 343 772 l 249 772 l 401 972 l 531 972 z "},"ê":{"ha":661,"x_min":49,"x_max":617,"o":"m 351 -17 q 131 81 214 -17 q 49 336 49 179 q 128 587 49 486 q 338 688 207 688 q 544 588 471 688 q 617 332 617 489 l 617 290 l 189 290 q 239 151 193 204 q 365 97 285 97 q 518 169 457 97 l 585 86 q 351 -17 493 -17 m 483 389 q 446 518 482 463 q 336 574 410 574 q 227 517 264 574 q 188 389 190 461 l 483 389 m 513 772 l 429 772 l 336 907 l 247 772 l 164 772 l 272 972 l 400 972 l 513 772 z "},"ë":{"ha":661,"x_min":49,"x_max":617,"o":"m 351 -17 q 131 81 214 -17 q 49 336 49 179 q 128 587 49 486 q 338 688 207 688 q 544 588 471 688 q 617 332 617 489 l 617 290 l 189 290 q 239 151 193 204 q 365 97 285 97 q 518 169 457 97 l 585 86 q 351 -17 493 -17 m 483 389 q 446 518 482 463 q 336 574 410 574 q 227 517 264 574 q 188 389 190 461 l 483 389 m 518 898 q 530 886 518 898 q 542 843 542 875 q 518 788 542 811 q 463 765 494 765 q 408 788 431 765 q 385 843 385 811 q 408 898 385 875 q 463 921 431 921 q 518 898 494 921 m 265 898 q 276 886 265 898 q 288 843 288 875 q 265 788 288 811 q 210 765 242 765 q 155 788 178 765 q 132 843 132 811 q 155 898 132 875 q 210 921 178 921 q 265 898 242 921 z "},"ì":{"ha":301,"x_min":-39,"x_max":243,"o":"m 243 772 l 149 772 l -39 972 l 89 972 l 243 772 m 219 0 l 82 0 l 82 671 l 219 671 l 219 0 z "},"í":{"ha":301,"x_min":60,"x_max":342,"o":"m 342 972 l 154 772 l 60 772 l 213 972 l 342 972 m 219 0 l 82 0 l 82 671 l 219 671 l 219 0 z "},"î":{"ha":301,"x_min":-22,"x_max":326,"o":"m 326 772 l 243 772 l 150 907 l 61 772 l -22 772 l 86 972 l 214 972 l 326 772 m 219 0 l 82 0 l 82 671 l 219 671 l 219 0 z "},"ï":{"ha":301,"x_min":-53,"x_max":357,"o":"m 333 898 q 345 886 333 898 q 357 843 357 875 q 333 788 357 811 q 278 765 310 765 q 223 788 246 765 q 200 843 200 811 q 223 898 200 875 q 278 921 246 921 q 333 898 310 921 m 80 898 q 91 886 80 898 q 103 843 103 875 q 80 788 103 811 q 25 765 57 765 q -30 788 -7 765 q -53 843 -53 811 q -30 898 -53 875 q 25 921 -7 921 q 80 898 57 921 m 219 0 l 82 0 l 82 671 l 219 671 l 219 0 z "},"ð":{"ha":681,"x_min":49,"x_max":632,"o":"m 169 685 l 139 754 l 289 819 q 213 892 250 858 l 311 976 q 413 874 357 935 l 536 928 l 564 861 l 463 815 q 632 357 632 596 q 556 86 632 189 q 340 -17 479 -17 q 126 79 204 -17 q 49 319 49 175 q 117 558 49 463 q 301 653 186 653 q 474 544 411 653 q 342 761 436 647 l 169 685 m 230 167 q 249 136 230 167 q 340 106 268 106 q 450 167 413 106 q 488 319 488 228 q 450 470 488 408 q 340 532 413 532 q 230 470 268 532 q 192 319 192 408 q 230 167 192 229 z "},"ñ":{"ha":675,"x_min":85,"x_max":596,"o":"m 596 0 l 457 0 l 457 457 q 361 565 457 565 q 282 538 319 565 q 222 472 244 510 l 222 0 l 85 0 l 85 671 l 222 671 l 222 581 q 307 656 253 625 q 419 688 361 688 q 596 504 596 688 l 596 0 m 410 769 q 359 787 381 769 q 326 826 338 804 q 301 865 315 847 q 269 882 286 882 q 218 778 218 882 l 143 778 q 176 913 143 863 q 271 964 210 964 q 322 947 300 964 q 353 908 343 929 q 379 869 364 886 q 411 851 394 851 q 461 956 461 851 l 536 956 q 503 820 536 871 q 410 769 471 769 z "},"ò":{"ha":681,"x_min":49,"x_max":632,"o":"m 555 85 q 516 34 555 85 q 340 -17 478 -17 q 126 85 203 -17 q 49 336 49 186 q 126 586 49 485 q 340 688 203 688 q 555 586 478 688 q 632 336 632 485 q 555 85 632 186 m 340 106 q 450 172 413 106 q 488 336 488 238 q 450 500 488 435 q 340 565 413 565 q 229 499 267 565 q 192 336 192 433 q 229 172 192 238 q 340 106 267 106 m 433 772 l 339 772 l 151 972 l 279 972 l 433 772 z "},"ó":{"ha":681,"x_min":49,"x_max":632,"o":"m 555 85 q 516 34 555 85 q 340 -17 478 -17 q 126 85 203 -17 q 49 336 49 186 q 126 586 49 485 q 340 688 203 688 q 555 586 478 688 q 632 336 632 485 q 555 85 632 186 m 340 106 q 450 172 413 106 q 488 336 488 238 q 450 500 488 435 q 340 565 413 565 q 229 499 267 565 q 192 336 192 433 q 229 172 192 238 q 340 106 267 106 m 531 972 l 343 772 l 249 772 l 401 972 l 531 972 z "},"ô":{"ha":681,"x_min":49,"x_max":632,"o":"m 555 85 q 516 34 555 85 q 340 -17 478 -17 q 126 85 203 -17 q 49 336 49 186 q 126 586 49 485 q 340 688 203 688 q 555 586 478 688 q 632 336 632 485 q 555 85 632 186 m 340 106 q 450 172 413 106 q 488 336 488 238 q 450 500 488 435 q 340 565 413 565 q 229 499 267 565 q 192 336 192 433 q 229 172 192 238 q 340 106 267 106 m 515 772 l 432 772 l 339 907 l 250 772 l 167 772 l 275 972 l 403 972 l 515 772 z "},"õ":{"ha":681,"x_min":49,"x_max":632,"o":"m 555 85 q 516 34 555 85 q 340 -17 478 -17 q 126 85 203 -17 q 49 336 49 186 q 126 586 49 485 q 340 688 203 688 q 555 586 478 688 q 632 336 632 485 q 555 85 632 186 m 340 106 q 450 172 413 106 q 488 336 488 238 q 450 500 488 435 q 340 565 413 565 q 229 499 267 565 q 192 336 192 433 q 229 172 192 238 q 340 106 267 106 m 410 769 q 359 787 381 769 q 326 826 338 804 q 301 865 315 847 q 269 882 286 882 q 218 778 218 882 l 143 778 q 176 913 143 863 q 271 964 210 964 q 322 947 300 964 q 353 908 343 929 q 379 869 364 886 q 411 851 394 851 q 461 956 461 851 l 536 956 q 503 820 536 871 q 410 769 471 769 z "},"ö":{"ha":681,"x_min":49,"x_max":632,"o":"m 555 85 q 516 34 555 85 q 340 -17 478 -17 q 126 85 203 -17 q 49 336 49 186 q 126 586 49 485 q 340 688 203 688 q 555 586 478 688 q 632 336 632 485 q 555 85 632 186 m 340 106 q 450 172 413 106 q 488 336 488 238 q 450 500 488 435 q 340 565 413 565 q 229 499 267 565 q 192 336 192 433 q 229 172 192 238 q 340 106 267 106 m 522 898 q 534 886 522 898 q 546 843 546 875 q 522 788 546 811 q 467 765 499 765 q 412 788 435 765 q 389 843 389 811 q 412 898 389 875 q 467 921 435 921 q 522 898 499 921 m 269 898 q 280 886 269 898 q 292 843 292 875 q 269 788 292 811 q 214 765 246 765 q 159 788 182 765 q 136 843 136 811 q 159 898 136 875 q 214 921 182 921 q 269 898 246 921 z "},"÷":{"ha":615,"x_min":40,"x_max":575,"o":"m 360 747 q 371 737 360 747 q 382 696 382 726 q 360 644 382 665 q 308 622 339 622 q 256 644 278 622 q 235 696 235 665 q 256 747 235 726 q 308 768 278 768 q 360 747 339 768 m 575 424 l 40 424 l 40 514 l 575 514 l 575 424 m 360 289 q 371 278 360 289 q 382 238 382 268 q 360 185 382 207 q 308 164 339 164 q 256 185 278 164 q 235 238 235 207 q 256 289 235 268 q 308 310 278 310 q 360 289 339 310 z "},"ø":{"ha":681,"x_min":49,"x_max":632,"o":"m 149 0 l 63 0 l 124 88 q 49 336 49 186 q 126 586 49 485 q 340 688 203 688 q 503 636 433 688 l 528 671 l 613 671 l 554 586 q 632 336 632 489 q 555 85 632 186 q 340 -17 478 -17 q 174 36 244 -17 l 149 0 m 340 106 q 450 172 413 106 q 488 336 488 238 q 468 461 488 406 l 249 144 q 340 106 285 106 m 192 336 q 210 213 192 265 l 428 528 q 340 565 393 565 q 229 499 267 565 q 192 336 192 433 z "},"ù":{"ha":675,"x_min":82,"x_max":592,"o":"m 592 0 l 454 0 l 454 88 q 371 13 424 43 q 258 -17 318 -17 q 82 164 82 -17 l 82 671 l 219 671 l 219 213 q 317 106 219 106 q 395 132 358 106 q 454 196 432 158 l 454 671 l 592 671 l 592 0 m 432 772 l 338 772 l 150 972 l 278 972 l 432 772 z "},"ú":{"ha":675,"x_min":82,"x_max":592,"o":"m 592 0 l 454 0 l 454 88 q 371 13 424 43 q 258 -17 318 -17 q 82 164 82 -17 l 82 671 l 219 671 l 219 213 q 317 106 219 106 q 395 132 358 106 q 454 196 432 158 l 454 671 l 592 671 l 592 0 m 529 972 l 342 772 l 247 772 l 400 972 l 529 972 z "},"û":{"ha":675,"x_min":82,"x_max":592,"o":"m 592 0 l 454 0 l 454 88 q 371 13 424 43 q 258 -17 318 -17 q 82 164 82 -17 l 82 671 l 219 671 l 219 213 q 317 106 219 106 q 395 132 358 106 q 454 196 432 158 l 454 671 l 592 671 l 592 0 m 513 772 l 429 772 l 336 907 l 247 772 l 164 772 l 272 972 l 400 972 l 513 772 z "},"ü":{"ha":675,"x_min":82,"x_max":592,"o":"m 592 0 l 454 0 l 454 88 q 371 13 424 43 q 258 -17 318 -17 q 82 164 82 -17 l 82 671 l 219 671 l 219 213 q 317 106 219 106 q 395 132 358 106 q 454 196 432 158 l 454 671 l 592 671 l 592 0 m 522 898 q 534 886 522 898 q 546 843 546 875 q 522 788 546 811 q 467 765 499 765 q 412 788 435 765 q 389 843 389 811 q 412 898 389 875 q 467 921 435 921 q 522 898 499 921 m 269 898 q 280 886 269 898 q 292 843 292 875 q 269 788 292 811 q 214 765 246 765 q 159 788 182 765 q 136 843 136 811 q 159 898 136 875 q 214 921 182 921 q 269 898 246 921 z "},"ý":{"ha":600,"x_min":1,"x_max":599,"o":"m 60 -262 l 81 -140 q 124 -150 96 -150 q 200 -93 179 -150 l 229 -12 l 1 671 l 150 671 l 300 167 l 451 671 l 599 671 l 332 -125 q 257 -238 304 -206 q 135 -272 210 -271 q 60 -262 89 -272 m 490 972 l 303 772 l 208 772 l 361 972 l 490 972 z "},"þ":{"ha":686,"x_min":82,"x_max":639,"o":"m 393 -17 q 219 89 281 -17 l 219 -256 l 82 -256 l 82 926 l 219 926 l 219 583 q 393 688 282 688 q 573 593 507 688 q 639 336 639 499 q 573 79 639 175 q 393 -17 507 -17 m 353 106 q 459 169 422 106 q 496 336 496 233 q 459 501 496 438 q 353 565 422 565 q 276 540 313 565 q 219 475 239 514 l 219 197 q 276 133 238 160 q 353 106 314 106 z "},"ÿ":{"ha":600,"x_min":1,"x_max":599,"o":"m 60 -262 l 81 -140 q 124 -150 96 -150 q 200 -93 179 -150 l 229 -12 l 1 671 l 150 671 l 300 167 l 451 671 l 599 671 l 332 -125 q 257 -238 304 -206 q 135 -272 210 -271 q 60 -262 89 -272 m 482 898 q 494 886 482 898 q 506 843 506 875 q 482 788 506 811 q 426 765 458 765 q 372 788 394 765 q 349 843 349 811 q 372 898 349 875 q 426 921 394 921 q 482 898 458 921 m 228 898 q 240 886 228 898 q 251 843 251 875 q 228 788 251 811 q 174 765 206 765 q 119 788 142 765 q 96 843 96 811 q 119 898 96 875 q 174 921 142 921 q 228 898 206 921 z "},"Ā":{"ha":747,"x_min":4,"x_max":743,"o":"m 743 0 l 578 0 l 526 183 l 221 183 l 169 0 l 4 0 l 282 926 l 465 926 l 743 0 m 496 319 l 374 763 l 251 319 l 496 319 m 588 1039 l 158 1039 l 158 1121 l 588 1121 l 588 1039 z "},"ā":{"ha":651,"x_min":47,"x_max":569,"o":"m 569 0 l 431 0 l 431 71 q 253 -17 369 -17 q 108 44 168 -17 q 47 206 47 104 q 107 367 47 310 q 253 425 167 425 q 431 342 374 425 l 431 442 q 397 536 431 503 q 300 569 363 569 q 132 492 208 569 l 78 589 q 325 688 175 688 q 503 632 438 688 q 569 460 569 576 l 569 0 m 303 79 q 431 149 393 79 l 431 258 q 303 329 393 329 q 218 294 250 329 q 186 204 186 258 q 218 115 186 150 q 303 79 250 79 m 539 800 l 110 800 l 110 882 l 539 882 l 539 800 z "},"Ă":{"ha":747,"x_min":4,"x_max":743,"o":"m 743 0 l 578 0 l 526 183 l 221 183 l 169 0 l 4 0 l 282 926 l 465 926 l 743 0 m 496 319 l 374 763 l 251 319 l 496 319 m 579 1103 q 372 999 504 999 q 165 1103 243 999 l 231 1154 q 372 1081 283 1081 q 514 1154 465 1081 l 579 1103 z "},"ă":{"ha":651,"x_min":47,"x_max":569,"o":"m 569 0 l 431 0 l 431 71 q 253 -17 369 -17 q 108 44 168 -17 q 47 206 47 104 q 107 367 47 310 q 253 425 167 425 q 431 342 374 425 l 431 442 q 397 536 431 503 q 300 569 363 569 q 132 492 208 569 l 78 589 q 325 688 175 688 q 503 632 438 688 q 569 460 569 576 l 569 0 m 303 79 q 431 149 393 79 l 431 258 q 303 329 393 329 q 218 294 250 329 q 186 204 186 258 q 218 115 186 150 q 303 79 250 79 m 531 882 q 324 778 456 778 q 117 882 194 778 l 182 933 q 324 860 235 860 q 465 933 417 860 l 531 882 z "},"Ą":{"ha":747,"x_min":4,"x_max":810,"o":"m 749 -147 l 810 -181 q 696 -258 775 -258 q 610 -229 643 -258 q 576 -142 576 -200 q 643 0 576 -62 l 578 0 l 526 183 l 221 183 l 169 0 l 4 0 l 282 926 l 465 926 l 743 0 q 650 -136 650 -54 q 696 -194 650 -194 q 749 -147 735 -194 m 496 319 l 374 763 l 251 319 l 496 319 z "},"ą":{"ha":651,"x_min":47,"x_max":636,"o":"m 575 -147 l 636 -181 q 522 -258 601 -258 q 436 -229 469 -258 q 403 -142 403 -200 q 469 0 403 -62 l 431 0 l 431 71 q 253 -17 369 -17 q 108 44 168 -17 q 47 206 47 104 q 107 367 47 310 q 253 425 167 425 q 431 342 374 425 l 431 442 q 397 536 431 503 q 300 569 363 569 q 132 492 208 569 l 78 589 q 325 688 175 688 q 503 632 438 688 q 569 460 569 576 l 569 0 q 476 -136 476 -54 q 522 -194 476 -194 q 575 -147 561 -194 m 303 79 q 431 149 393 79 l 431 258 q 303 329 393 329 q 218 294 250 329 q 186 204 186 258 q 218 115 186 150 q 303 79 250 79 z "},"Ć":{"ha":763,"x_min":54,"x_max":729,"o":"m 433 -17 q 158 117 261 -17 q 54 463 54 250 q 158 808 54 675 q 433 942 261 942 q 728 738 631 942 l 601 681 q 433 806 544 806 q 272 710 332 806 q 211 463 211 614 q 272 215 211 311 q 433 119 332 119 q 535 157 492 119 q 601 256 578 194 l 729 200 q 433 -17 632 -17 m 624 1211 l 436 1011 l 342 1011 l 494 1211 l 624 1211 z "},"ć":{"ha":579,"x_min":49,"x_max":549,"o":"m 343 -17 q 130 83 211 -17 q 49 336 49 182 q 130 588 49 489 q 343 688 211 688 q 549 597 476 688 l 479 503 q 358 565 431 565 q 237 500 282 565 q 192 336 192 435 q 237 172 192 238 q 358 106 282 106 q 479 168 429 106 l 549 74 q 343 -17 478 -17 m 538 972 l 350 772 l 256 772 l 408 972 l 538 972 z "},"Ĉ":{"ha":763,"x_min":54,"x_max":729,"o":"m 433 -17 q 158 117 261 -17 q 54 463 54 250 q 158 808 54 675 q 433 942 261 942 q 728 738 631 942 l 601 681 q 433 806 544 806 q 272 710 332 806 q 211 463 211 614 q 272 215 211 311 q 433 119 332 119 q 535 157 492 119 q 601 256 578 194 l 729 200 q 433 -17 632 -17 m 608 1011 l 525 1011 l 432 1146 l 343 1011 l 260 1011 l 368 1211 l 496 1211 l 608 1011 z "},"ĉ":{"ha":579,"x_min":49,"x_max":549,"o":"m 343 -17 q 130 83 211 -17 q 49 336 49 182 q 130 588 49 489 q 343 688 211 688 q 549 597 476 688 l 479 503 q 358 565 431 565 q 237 500 282 565 q 192 336 192 435 q 237 172 192 238 q 358 106 282 106 q 479 168 429 106 l 549 74 q 343 -17 478 -17 m 522 772 l 439 772 l 346 907 l 257 772 l 174 772 l 282 972 l 410 972 l 522 772 z "},"Ċ":{"ha":763,"x_min":54,"x_max":729,"o":"m 433 -17 q 158 117 261 -17 q 54 463 54 250 q 158 808 54 675 q 433 942 261 942 q 728 738 631 942 l 601 681 q 433 806 544 806 q 272 710 332 806 q 211 463 211 614 q 272 215 211 311 q 433 119 332 119 q 535 157 492 119 q 601 256 578 194 l 729 200 q 433 -17 632 -17 m 490 1026 q 478 1014 490 1026 q 435 1003 467 1003 q 380 1026 403 1003 q 357 1082 357 1049 q 380 1137 357 1114 q 435 1160 403 1160 q 490 1137 467 1160 q 514 1082 514 1114 q 490 1026 514 1049 z "},"ċ":{"ha":579,"x_min":49,"x_max":549,"o":"m 343 -17 q 130 83 211 -17 q 49 336 49 182 q 130 588 49 489 q 343 688 211 688 q 549 597 476 688 l 479 503 q 358 565 431 565 q 237 500 282 565 q 192 336 192 435 q 237 172 192 238 q 358 106 282 106 q 479 168 429 106 l 549 74 q 343 -17 478 -17 m 400 805 q 388 793 400 805 q 344 782 376 782 q 290 805 313 782 q 267 861 267 828 q 290 916 267 893 q 344 939 313 939 q 400 916 376 939 q 424 861 424 893 q 400 805 424 828 z "},"Č":{"ha":763,"x_min":54,"x_max":729,"o":"m 433 -17 q 158 117 261 -17 q 54 463 54 250 q 158 808 54 675 q 433 942 261 942 q 728 738 631 942 l 601 681 q 433 806 544 806 q 272 710 332 806 q 211 463 211 614 q 272 215 211 311 q 433 119 332 119 q 535 157 492 119 q 601 256 578 194 l 729 200 q 433 -17 632 -17 m 500 1011 l 372 1011 l 260 1211 l 343 1211 l 436 1076 l 525 1211 l 608 1211 l 500 1011 z "},"č":{"ha":579,"x_min":49,"x_max":549,"o":"m 343 -17 q 130 83 211 -17 q 49 336 49 182 q 130 588 49 489 q 343 688 211 688 q 549 597 476 688 l 479 503 q 358 565 431 565 q 237 500 282 565 q 192 336 192 435 q 237 172 192 238 q 358 106 282 106 q 479 168 429 106 l 549 74 q 343 -17 478 -17 m 414 772 l 286 772 l 174 972 l 257 972 l 350 838 l 439 972 l 522 972 l 414 772 z "},"Ď":{"ha":811,"x_min":89,"x_max":757,"o":"m 367 0 l 89 0 l 89 926 l 365 926 q 653 797 549 926 q 757 463 757 668 q 654 128 757 256 q 367 0 551 0 m 365 135 q 539 225 478 135 q 600 463 600 315 q 540 703 600 614 q 365 792 479 792 l 242 792 l 242 135 l 365 135 m 471 1011 l 343 1011 l 231 1211 l 314 1211 l 407 1076 l 496 1211 l 579 1211 l 471 1011 z "},"ď":{"ha":819,"x_min":49,"x_max":826,"o":"m 606 0 l 468 0 l 468 89 q 294 -17 404 -17 q 115 78 181 -17 q 49 335 49 172 q 115 591 49 494 q 294 688 182 688 q 468 581 408 688 l 468 926 l 606 926 l 606 0 m 336 106 q 413 132 376 106 q 468 197 450 158 l 468 474 q 413 539 450 513 q 336 565 376 565 q 228 501 265 565 q 192 335 192 438 q 228 169 192 233 q 336 106 265 106 m 826 842 q 797 731 826 783 q 719 646 767 679 l 668 688 q 722 740 699 707 q 750 803 746 772 q 733 800 747 800 q 686 819 706 800 q 667 869 667 839 q 689 922 667 900 q 742 943 711 943 q 801 916 776 943 q 826 842 826 889 z "},"Đ":{"ha":844,"x_min":19,"x_max":790,"o":"m 400 0 l 122 0 l 122 401 l 19 401 l 19 513 l 122 513 l 122 926 l 399 926 q 686 797 582 926 q 790 463 790 668 q 688 128 790 256 q 400 0 585 0 m 436 401 l 275 401 l 275 135 l 399 135 q 572 225 511 135 q 633 463 633 315 q 573 703 633 614 q 399 792 513 792 l 275 792 l 275 513 l 436 513 l 436 401 z "},"đ":{"ha":699,"x_min":49,"x_max":683,"o":"m 606 0 l 468 0 l 468 89 q 294 -17 404 -17 q 115 78 181 -17 q 49 335 49 172 q 115 591 49 494 q 294 688 182 688 q 468 581 408 688 l 468 739 l 281 739 l 281 821 l 468 821 l 468 926 l 606 926 l 606 821 l 683 821 l 683 739 l 606 739 l 606 0 m 336 106 q 413 132 376 106 q 468 197 450 158 l 468 474 q 413 539 450 513 q 336 565 376 565 q 228 501 265 565 q 192 335 192 438 q 228 169 192 233 q 336 106 265 106 z "},"Ē":{"ha":657,"x_min":89,"x_max":597,"o":"m 597 0 l 89 0 l 89 926 l 597 926 l 597 792 l 242 792 l 242 540 l 588 540 l 588 406 l 242 406 l 242 135 l 597 135 l 597 0 m 556 1039 l 126 1039 l 126 1121 l 556 1121 l 556 1039 z "},"ē":{"ha":661,"x_min":49,"x_max":617,"o":"m 351 -17 q 131 81 214 -17 q 49 336 49 179 q 128 587 49 486 q 338 688 207 688 q 544 588 471 688 q 617 332 617 489 l 617 290 l 189 290 q 239 151 193 204 q 365 97 285 97 q 518 169 457 97 l 585 86 q 351 -17 493 -17 m 483 389 q 446 518 482 463 q 336 574 410 574 q 227 517 264 574 q 188 389 190 461 l 483 389 m 546 800 l 117 800 l 117 882 l 546 882 l 546 800 z "},"Ĕ":{"ha":657,"x_min":89,"x_max":597,"o":"m 597 0 l 89 0 l 89 926 l 597 926 l 597 792 l 242 792 l 242 540 l 588 540 l 588 406 l 242 406 l 242 135 l 597 135 l 597 0 m 547 1103 q 340 999 472 999 q 133 1103 211 999 l 199 1154 q 340 1081 251 1081 q 482 1154 433 1081 l 547 1103 z "},"ĕ":{"ha":661,"x_min":49,"x_max":617,"o":"m 351 -17 q 131 81 214 -17 q 49 336 49 179 q 128 587 49 486 q 338 688 207 688 q 544 588 471 688 q 617 332 617 489 l 617 290 l 189 290 q 239 151 193 204 q 365 97 285 97 q 518 169 457 97 l 585 86 q 351 -17 493 -17 m 483 389 q 446 518 482 463 q 336 574 410 574 q 227 517 264 574 q 188 389 190 461 l 483 389 m 547 882 q 340 778 472 778 q 133 882 211 778 l 199 933 q 340 860 251 860 q 482 933 433 860 l 547 882 z "},"Ė":{"ha":657,"x_min":89,"x_max":597,"o":"m 597 0 l 89 0 l 89 926 l 597 926 l 597 792 l 242 792 l 242 540 l 588 540 l 588 406 l 242 406 l 242 135 l 597 135 l 597 0 m 404 1026 q 392 1014 404 1026 q 349 1003 381 1003 q 294 1026 317 1003 q 271 1082 271 1049 q 294 1137 271 1114 q 349 1160 317 1160 q 404 1137 381 1160 q 428 1082 428 1114 q 404 1026 428 1049 z "},"ė":{"ha":661,"x_min":49,"x_max":617,"o":"m 351 -17 q 131 81 214 -17 q 49 336 49 179 q 128 587 49 486 q 338 688 207 688 q 544 588 471 688 q 617 332 617 489 l 617 290 l 189 290 q 239 151 193 204 q 365 97 285 97 q 518 169 457 97 l 585 86 q 351 -17 493 -17 m 483 389 q 446 518 482 463 q 336 574 410 574 q 227 517 264 574 q 188 389 190 461 l 483 389 m 393 805 q 381 793 393 805 q 338 782 369 782 q 283 805 306 782 q 260 861 260 828 q 283 916 260 893 q 338 939 306 939 q 393 916 369 939 q 417 861 417 893 q 393 805 417 828 z "},"Ę":{"ha":657,"x_min":89,"x_max":664,"o":"m 603 -147 l 664 -181 q 550 -258 629 -258 q 464 -229 497 -258 q 431 -142 431 -200 q 497 0 431 -62 l 89 0 l 89 926 l 597 926 l 597 792 l 242 792 l 242 540 l 588 540 l 588 406 l 242 406 l 242 135 l 597 135 l 597 0 q 504 -136 504 -54 q 550 -194 504 -194 q 603 -147 589 -194 z "},"ę":{"ha":661,"x_min":49,"x_max":617,"o":"m 460 -147 l 521 -181 q 407 -258 486 -258 q 321 -229 354 -258 q 288 -142 288 -200 q 338 -17 288 -74 q 127 85 206 -11 q 49 336 49 182 q 128 587 49 486 q 338 688 207 688 q 544 588 471 688 q 617 332 617 489 l 617 290 l 189 290 q 239 151 193 204 q 365 97 285 97 q 518 169 457 97 l 585 86 q 454 0 531 25 q 361 -136 361 -54 q 407 -194 361 -194 q 460 -147 446 -194 m 483 389 q 446 518 482 463 q 336 574 410 574 q 227 517 264 574 q 188 389 190 461 l 483 389 z "},"Ě":{"ha":657,"x_min":89,"x_max":597,"o":"m 597 0 l 89 0 l 89 926 l 597 926 l 597 792 l 242 792 l 242 540 l 588 540 l 588 406 l 242 406 l 242 135 l 597 135 l 597 0 m 408 1011 l 281 1011 l 168 1211 l 251 1211 l 344 1076 l 433 1211 l 517 1211 l 408 1011 z "},"ě":{"ha":661,"x_min":49,"x_max":617,"o":"m 351 -17 q 131 81 214 -17 q 49 336 49 179 q 128 587 49 486 q 338 688 207 688 q 544 588 471 688 q 617 332 617 489 l 617 290 l 189 290 q 239 151 193 204 q 365 97 285 97 q 518 169 457 97 l 585 86 q 351 -17 493 -17 m 483 389 q 446 518 482 463 q 336 574 410 574 q 227 517 264 574 q 188 389 190 461 l 483 389 m 403 772 l 275 772 l 163 972 l 246 972 l 339 838 l 428 972 l 511 972 l 403 772 z "},"Ĝ":{"ha":803,"x_min":54,"x_max":735,"o":"m 433 -17 q 158 115 263 -17 q 54 463 54 247 q 158 810 54 678 q 433 942 263 942 q 729 744 633 942 l 606 685 q 433 806 544 806 q 272 713 333 806 q 211 463 211 621 q 272 213 211 306 q 433 119 333 119 q 590 186 532 119 l 590 358 l 393 358 l 393 493 l 735 493 l 735 125 q 433 -17 618 -17 m 611 1011 l 528 1011 l 435 1146 l 346 1011 l 263 1011 l 371 1211 l 499 1211 l 611 1011 z "},"ĝ":{"ha":688,"x_min":49,"x_max":606,"o":"m 315 -272 q 76 -186 168 -272 l 135 -78 q 308 -153 201 -153 q 423 -112 378 -153 q 468 11 468 -72 l 468 108 q 392 28 438 57 q 294 0 346 0 q 115 91 181 0 q 49 343 49 182 q 115 595 49 503 q 294 688 181 688 q 468 581 407 688 l 468 671 l 606 671 l 606 11 q 581 -125 606 -68 q 515 -213 557 -182 q 423 -258 472 -244 q 315 -272 374 -272 m 336 122 q 413 149 375 122 q 468 214 450 175 l 468 474 q 413 539 450 513 q 336 565 375 565 q 228 505 265 565 q 192 343 192 444 q 228 183 192 243 q 336 122 265 122 m 522 763 l 439 763 l 346 897 l 257 763 l 174 763 l 282 963 l 410 963 l 522 763 z "},"Ğ":{"ha":803,"x_min":54,"x_max":735,"o":"m 433 -17 q 158 115 263 -17 q 54 463 54 247 q 158 810 54 678 q 433 942 263 942 q 729 744 633 942 l 606 685 q 433 806 544 806 q 272 713 333 806 q 211 463 211 621 q 272 213 211 306 q 433 119 333 119 q 590 186 532 119 l 590 358 l 393 358 l 393 493 l 735 493 l 735 125 q 433 -17 618 -17 m 643 1103 q 436 999 568 999 q 229 1103 307 999 l 294 1154 q 436 1081 347 1081 q 578 1154 529 1081 l 643 1103 z "},"ğ":{"ha":688,"x_min":49,"x_max":606,"o":"m 315 -272 q 76 -186 168 -272 l 135 -78 q 308 -153 201 -153 q 423 -112 378 -153 q 468 11 468 -72 l 468 108 q 392 28 438 57 q 294 0 346 0 q 115 91 181 0 q 49 343 49 182 q 115 595 49 503 q 294 688 181 688 q 468 581 407 688 l 468 671 l 606 671 l 606 11 q 581 -125 606 -68 q 515 -213 557 -182 q 423 -258 472 -244 q 315 -272 374 -272 m 336 122 q 413 149 375 122 q 468 214 450 175 l 468 474 q 413 539 450 513 q 336 565 375 565 q 228 505 265 565 q 192 343 192 444 q 228 183 192 243 q 336 122 265 122 m 549 882 q 342 778 474 778 q 135 882 213 778 l 200 933 q 342 860 253 860 q 483 933 435 860 l 549 882 z "},"Ġ":{"ha":803,"x_min":54,"x_max":735,"o":"m 433 -17 q 158 115 263 -17 q 54 463 54 247 q 158 810 54 678 q 433 942 263 942 q 729 744 633 942 l 606 685 q 433 806 544 806 q 272 713 333 806 q 211 463 211 621 q 272 213 211 306 q 433 119 333 119 q 590 186 532 119 l 590 358 l 393 358 l 393 493 l 735 493 l 735 125 q 433 -17 618 -17 m 490 1026 q 478 1014 490 1026 q 435 1003 467 1003 q 380 1026 403 1003 q 357 1082 357 1049 q 380 1137 357 1114 q 435 1160 403 1160 q 490 1137 467 1160 q 514 1082 514 1114 q 490 1026 514 1049 z "},"ġ":{"ha":688,"x_min":49,"x_max":606,"o":"m 315 -272 q 76 -186 168 -272 l 135 -78 q 308 -153 201 -153 q 423 -112 378 -153 q 468 11 468 -72 l 468 108 q 392 28 438 57 q 294 0 346 0 q 115 91 181 0 q 49 343 49 182 q 115 595 49 503 q 294 688 181 688 q 468 581 407 688 l 468 671 l 606 671 l 606 11 q 581 -125 606 -68 q 515 -213 557 -182 q 423 -258 472 -244 q 315 -272 374 -272 m 336 122 q 413 149 375 122 q 468 214 450 175 l 468 474 q 413 539 450 513 q 336 565 375 565 q 228 505 265 565 q 192 343 192 444 q 228 183 192 243 q 336 122 265 122 m 401 805 q 390 793 401 805 q 346 782 378 782 q 291 805 314 782 q 268 861 268 828 q 291 916 268 893 q 346 939 314 939 q 401 916 378 939 q 425 861 425 893 q 401 805 425 828 z "},"Ģ":{"ha":803,"x_min":54,"x_max":735,"o":"m 433 -17 q 158 115 263 -17 q 54 463 54 247 q 158 810 54 678 q 433 942 263 942 q 729 744 633 942 l 606 685 q 433 806 544 806 q 272 713 333 806 q 211 463 211 621 q 272 213 211 306 q 433 119 333 119 q 590 186 532 119 l 590 358 l 393 358 l 393 493 l 735 493 l 735 125 q 433 -17 618 -17 m 515 -192 q 485 -302 515 -250 q 408 -387 456 -354 l 357 -346 q 411 -294 388 -326 q 439 -231 435 -261 q 422 -233 436 -233 q 375 -214 394 -233 q 356 -164 356 -194 q 378 -112 356 -133 q 431 -90 400 -90 q 490 -117 465 -90 q 515 -192 515 -144 z "},"ģ":{"ha":688,"x_min":49,"x_max":606,"o":"m 258 868 q 286 985 258 931 q 361 1074 314 1040 l 414 1031 q 360 981 385 1013 q 332 921 335 949 q 339 922 335 922 q 390 901 367 922 q 413 850 413 879 q 390 797 413 819 q 336 775 368 775 q 282 798 306 775 q 258 868 258 821 m 315 -272 q 76 -186 168 -272 l 135 -78 q 308 -153 201 -153 q 423 -112 378 -153 q 468 11 468 -72 l 468 108 q 392 28 438 57 q 294 0 346 0 q 115 91 181 0 q 49 343 49 182 q 115 595 49 503 q 294 688 181 688 q 468 581 407 688 l 468 671 l 606 671 l 606 11 q 581 -125 606 -68 q 515 -213 557 -182 q 423 -258 472 -244 q 315 -272 374 -272 m 336 122 q 413 149 375 122 q 468 214 450 175 l 468 474 q 413 539 450 513 q 336 565 375 565 q 228 505 265 565 q 192 343 192 444 q 228 183 192 243 q 336 122 265 122 z "},"Ĥ":{"ha":826,"x_min":89,"x_max":738,"o":"m 738 0 l 585 0 l 585 408 l 242 408 l 242 0 l 89 0 l 89 926 l 242 926 l 242 544 l 585 544 l 585 926 l 738 926 l 738 0 m 586 1011 l 503 1011 l 410 1146 l 321 1011 l 238 1011 l 346 1211 l 474 1211 l 586 1011 z "},"ĥ":{"ha":675,"x_min":-21,"x_max":593,"o":"m 593 0 l 456 0 l 456 458 q 358 565 456 565 q 279 538 317 565 q 221 472 242 510 l 221 0 l 82 0 l 82 926 l 221 926 l 221 581 q 303 656 250 625 q 417 688 357 688 q 593 507 593 688 l 593 0 m 328 1011 l 244 1011 l 151 1146 l 63 1011 l -21 1011 l 88 1211 l 215 1211 l 328 1011 z "},"Ħ":{"ha":863,"x_min":19,"x_max":836,"o":"m 757 0 l 604 0 l 604 408 l 261 408 l 261 0 l 108 0 l 108 696 l 19 696 l 19 778 l 108 778 l 108 926 l 261 926 l 261 778 l 604 778 l 604 926 l 757 926 l 757 778 l 836 778 l 836 696 l 757 696 l 757 0 m 261 544 l 604 544 l 604 696 l 261 696 l 261 544 z "},"ħ":{"ha":686,"x_min":19,"x_max":604,"o":"m 422 739 l 232 739 l 232 581 q 315 656 261 625 q 428 688 368 688 q 604 507 604 688 l 604 0 l 467 0 l 467 458 q 369 565 467 565 q 290 538 328 565 q 232 472 253 510 l 232 0 l 93 0 l 93 739 l 19 739 l 19 821 l 93 821 l 93 926 l 232 926 l 232 821 l 422 821 l 422 739 z "},"Ĩ":{"ha":331,"x_min":-29,"x_max":364,"o":"m 242 0 l 89 0 l 89 926 l 242 926 l 242 0 m 238 1008 q 187 1026 208 1008 q 154 1065 165 1043 q 128 1103 143 1086 q 97 1121 114 1121 q 46 1017 46 1121 l -29 1017 q 4 1152 -29 1101 q 99 1203 38 1203 q 149 1185 128 1203 q 181 1147 171 1168 q 207 1108 192 1125 q 239 1090 222 1090 q 289 1194 289 1090 l 364 1194 q 331 1059 364 1110 q 238 1008 299 1008 z "},"ĩ":{"ha":301,"x_min":-44,"x_max":349,"o":"m 219 0 l 82 0 l 82 671 l 219 671 l 219 0 m 222 749 q 161 777 185 749 q 120 833 138 806 q 82 861 103 861 q 31 757 31 861 l -44 757 q -11 892 -44 842 q 83 943 22 943 q 134 926 113 943 q 166 887 156 908 q 192 848 176 865 q 224 831 207 831 q 274 935 274 831 l 349 935 q 316 799 349 850 q 222 749 283 749 z "},"Ī":{"ha":331,"x_min":-49,"x_max":381,"o":"m 242 0 l 89 0 l 89 926 l 242 926 l 242 0 m 381 1039 l -49 1039 l -49 1121 l 381 1121 l 381 1039 z "},"ī":{"ha":301,"x_min":-62,"x_max":367,"o":"m 219 0 l 82 0 l 82 671 l 219 671 l 219 0 m 367 800 l -62 800 l -62 882 l 367 882 l 367 800 z "},"Ĭ":{"ha":331,"x_min":-39,"x_max":375,"o":"m 242 0 l 89 0 l 89 926 l 242 926 l 242 0 m 375 1103 q 168 999 300 999 q -39 1103 39 999 l 26 1154 q 168 1081 79 1081 q 310 1154 261 1081 l 375 1103 z "},"ĭ":{"ha":301,"x_min":-56,"x_max":358,"o":"m 219 0 l 82 0 l 82 671 l 219 671 l 219 0 m 358 882 q 151 778 283 778 q -56 882 22 778 l 10 933 q 151 860 63 860 q 293 933 244 860 l 358 882 z "},"Į":{"ha":331,"x_min":75,"x_max":308,"o":"m 247 -147 l 308 -181 q 194 -258 274 -258 q 108 -229 142 -258 q 75 -142 75 -200 q 142 0 75 -62 l 89 0 l 89 926 l 242 926 l 242 0 q 149 -136 149 -54 q 194 -194 149 -194 q 247 -147 233 -194 z "},"į":{"ha":301,"x_min":53,"x_max":286,"o":"m 225 -147 l 286 -181 q 172 -258 251 -258 q 86 -229 119 -258 q 53 -142 53 -200 q 119 0 53 -62 l 82 0 l 82 671 l 219 671 l 219 0 q 126 -136 126 -54 q 172 -194 126 -194 q 225 -147 211 -194 m 151 756 q 90 781 115 756 q 64 842 64 807 q 90 903 64 878 q 151 928 115 928 q 213 903 188 928 q 238 842 238 878 q 212 781 238 806 q 151 756 186 756 z "},"İ":{"ha":331,"x_min":88,"x_max":244,"o":"m 242 0 l 89 0 l 89 926 l 242 926 l 242 0 m 221 1026 q 209 1014 221 1026 q 165 1003 197 1003 q 110 1026 133 1003 q 88 1082 88 1049 q 110 1137 88 1114 q 165 1160 133 1160 q 221 1137 197 1160 q 244 1082 244 1114 q 221 1026 244 1049 z "},"ı":{"ha":301,"x_min":82,"x_max":219,"o":"m 219 0 l 82 0 l 82 671 l 219 671 l 219 0 z "},"Ĳ":{"ha":900,"x_min":89,"x_max":813,"o":"m 242 0 l 89 0 l 89 926 l 242 926 l 242 0 m 539 -17 q 342 60 418 -17 l 401 181 q 525 119 453 119 q 623 157 588 119 q 658 261 658 194 l 658 926 l 813 926 l 813 256 q 738 51 813 119 q 539 -17 664 -17 z "},"ĳ":{"ha":604,"x_min":64,"x_max":539,"o":"m 151 756 q 90 781 115 756 q 64 842 64 807 q 90 903 64 878 q 151 928 115 928 q 213 903 188 928 q 238 842 238 878 q 212 781 238 806 q 151 756 186 756 m 219 0 l 82 0 l 82 671 l 219 671 l 219 0 m 514 781 q 501 768 514 781 q 453 756 489 756 q 391 781 417 756 q 365 842 365 807 q 391 903 365 878 q 453 928 417 928 q 514 903 489 928 q 539 842 539 878 q 514 781 539 806 m 325 -272 q 207 -229 254 -272 l 246 -122 q 311 -153 274 -153 q 383 -57 383 -153 l 383 671 l 521 671 l 521 -57 q 325 -272 521 -272 z "},"Ĵ":{"ha":569,"x_min":11,"x_max":579,"o":"m 208 -17 q 11 60 88 -17 l 71 181 q 194 119 122 119 q 292 157 257 119 q 328 261 328 194 l 328 926 l 482 926 l 482 256 q 408 51 482 119 q 208 -17 333 -17 m 579 1011 l 496 1011 l 403 1146 l 314 1011 l 231 1011 l 339 1211 l 467 1211 l 579 1011 z "},"ĵ":{"ha":301,"x_min":-94,"x_max":328,"o":"m 24 -272 q -94 -229 -47 -272 l -56 -119 q 10 -150 -28 -150 q 82 -57 82 -150 l 82 671 l 219 671 l 219 -57 q 24 -272 219 -272 m 328 772 l 244 772 l 151 907 l 63 772 l -21 772 l 88 972 l 215 972 l 328 772 z "},"Ķ":{"ha":750,"x_min":89,"x_max":735,"o":"m 735 0 l 553 0 l 314 382 l 242 275 l 242 0 l 89 0 l 89 926 l 242 926 l 242 481 l 532 926 l 711 926 l 408 489 l 735 0 m 464 -192 q 434 -302 464 -250 q 357 -387 404 -354 l 306 -346 q 360 -294 336 -326 q 388 -231 383 -261 q 371 -233 385 -233 q 324 -214 343 -233 q 304 -164 304 -194 q 326 -112 304 -133 q 379 -90 349 -90 q 439 -117 414 -90 q 464 -192 464 -144 z "},"ķ":{"ha":635,"x_min":82,"x_max":624,"o":"m 624 0 l 461 0 l 301 281 l 219 172 l 219 0 l 82 0 l 82 926 l 219 926 l 219 342 l 458 671 l 619 671 l 397 369 l 624 0 m 407 -192 q 377 -302 407 -250 q 300 -387 347 -354 l 249 -346 q 303 -294 279 -326 q 331 -231 326 -261 q 314 -233 328 -233 q 267 -214 286 -233 q 247 -164 247 -194 q 269 -112 247 -133 q 322 -90 292 -90 q 382 -117 357 -90 q 407 -192 407 -144 z "},"ĸ":{"ha":635,"x_min":82,"x_max":624,"o":"m 624 0 l 461 0 l 301 281 l 219 172 l 219 0 l 82 0 l 82 671 l 219 671 l 219 342 l 458 671 l 619 671 l 397 369 l 624 0 z "},"Ĺ":{"ha":596,"x_min":83,"x_max":560,"o":"m 560 0 l 83 0 l 83 926 l 236 926 l 236 135 l 560 135 l 560 0 m 500 1211 l 313 1011 l 218 1011 l 371 1211 l 500 1211 z "},"ĺ":{"ha":301,"x_min":58,"x_max":340,"o":"m 219 0 l 82 0 l 82 926 l 219 926 l 219 0 m 340 1211 l 153 1011 l 58 1011 l 211 1211 l 340 1211 z "},"Ļ":{"ha":596,"x_min":83,"x_max":560,"o":"m 560 0 l 83 0 l 83 926 l 236 926 l 236 135 l 560 135 l 560 0 m 385 -192 q 355 -302 385 -250 q 278 -387 325 -354 l 226 -346 q 281 -294 257 -326 q 308 -231 304 -261 q 292 -233 306 -233 q 244 -214 264 -233 q 225 -164 225 -194 q 247 -112 225 -133 q 300 -90 269 -90 q 360 -117 335 -90 q 385 -192 385 -144 z "},"ļ":{"ha":301,"x_min":81,"x_max":240,"o":"m 219 0 l 82 0 l 82 926 l 219 926 l 219 0 m 240 -192 q 210 -302 240 -250 q 133 -387 181 -354 l 82 -346 q 136 -294 113 -326 q 164 -231 160 -261 q 147 -233 161 -233 q 100 -214 119 -233 q 81 -164 81 -194 q 103 -112 81 -133 q 156 -90 125 -90 q 215 -117 190 -90 q 240 -192 240 -144 z "},"Ľ":{"ha":596,"x_min":83,"x_max":560,"o":"m 560 0 l 83 0 l 83 926 l 236 926 l 236 135 l 560 135 l 560 0 m 490 843 q 460 733 490 785 q 383 647 431 681 l 332 689 q 386 741 363 708 q 414 804 410 774 q 397 801 411 801 q 350 821 369 801 q 331 871 331 840 q 353 923 331 901 q 406 944 375 944 q 465 917 440 944 q 490 843 490 890 z "},"ľ":{"ha":431,"x_min":82,"x_max":458,"o":"m 219 0 l 82 0 l 82 926 l 219 926 l 219 0 m 458 842 q 428 731 458 783 q 351 646 399 679 l 300 688 q 354 740 331 707 q 382 803 378 772 q 365 800 379 800 q 318 819 338 800 q 299 869 299 839 q 321 922 299 900 q 374 943 343 943 q 433 916 408 943 q 458 842 458 889 z "},"Ŀ":{"ha":653,"x_min":83,"x_max":582,"o":"m 560 0 l 83 0 l 83 926 l 236 926 l 236 135 l 560 135 l 560 0 m 582 475 q 555 409 582 436 q 489 382 528 382 q 423 409 450 382 q 396 475 396 436 q 423 540 396 513 q 489 567 450 567 q 555 540 528 567 q 582 475 582 513 z "},"ŀ":{"ha":471,"x_min":82,"x_max":479,"o":"m 219 0 l 82 0 l 82 926 l 219 926 l 219 0 m 479 340 q 452 274 479 301 q 386 247 425 247 q 320 274 347 247 q 293 340 293 301 q 320 405 293 378 q 386 432 347 432 q 452 405 425 432 q 479 340 479 378 z "},"Ł":{"ha":621,"x_min":19,"x_max":585,"o":"m 19 303 l 19 431 l 108 482 l 108 926 l 261 926 l 261 569 l 363 629 l 363 501 l 261 442 l 261 135 l 585 135 l 585 0 l 108 0 l 108 354 l 19 303 z "},"ł":{"ha":369,"x_min":19,"x_max":350,"o":"m 19 319 l 19 424 l 115 478 l 115 926 l 253 926 l 253 557 l 350 614 l 350 510 l 253 453 l 253 0 l 115 0 l 115 374 l 19 319 z "},"Ń":{"ha":825,"x_min":89,"x_max":736,"o":"m 736 0 l 589 0 l 242 625 l 242 0 l 89 0 l 89 926 l 244 926 l 582 319 l 582 926 l 736 926 l 736 0 m 601 1211 l 414 1011 l 319 1011 l 472 1211 l 601 1211 z "},"ń":{"ha":675,"x_min":85,"x_max":596,"o":"m 596 0 l 457 0 l 457 457 q 361 565 457 565 q 282 538 319 565 q 222 472 244 510 l 222 0 l 85 0 l 85 671 l 222 671 l 222 581 q 307 656 253 625 q 419 688 361 688 q 596 504 596 688 l 596 0 m 526 972 l 339 772 l 244 772 l 397 972 l 526 972 z "},"Ņ":{"ha":825,"x_min":89,"x_max":736,"o":"m 736 0 l 589 0 l 242 625 l 242 0 l 89 0 l 89 926 l 244 926 l 582 319 l 582 926 l 736 926 l 736 0 m 500 -192 q 470 -302 500 -250 q 393 -387 440 -354 l 342 -346 q 396 -294 372 -326 q 424 -231 419 -261 q 407 -233 421 -233 q 360 -214 379 -233 q 340 -164 340 -194 q 363 -112 340 -133 q 415 -90 385 -90 q 475 -117 450 -90 q 500 -192 500 -144 z "},"ņ":{"ha":675,"x_min":85,"x_max":596,"o":"m 596 0 l 457 0 l 457 457 q 361 565 457 565 q 282 538 319 565 q 222 472 244 510 l 222 0 l 85 0 l 85 671 l 222 671 l 222 581 q 307 656 253 625 q 419 688 361 688 q 596 504 596 688 l 596 0 m 426 -192 q 397 -302 426 -250 q 319 -387 367 -354 l 268 -346 q 322 -294 299 -326 q 350 -231 346 -261 q 333 -233 347 -233 q 286 -214 306 -233 q 267 -164 267 -194 q 289 -112 267 -133 q 342 -90 311 -90 q 401 -117 376 -90 q 426 -192 426 -144 z "},"Ň":{"ha":825,"x_min":89,"x_max":736,"o":"m 736 0 l 589 0 l 242 625 l 242 0 l 89 0 l 89 926 l 244 926 l 582 319 l 582 926 l 736 926 l 736 0 m 478 1011 l 350 1011 l 238 1211 l 321 1211 l 414 1076 l 503 1211 l 586 1211 l 478 1011 z "},"ň":{"ha":675,"x_min":85,"x_max":596,"o":"m 596 0 l 457 0 l 457 457 q 361 565 457 565 q 282 538 319 565 q 222 472 244 510 l 222 0 l 85 0 l 85 671 l 222 671 l 222 581 q 307 656 253 625 q 419 688 361 688 q 596 504 596 688 l 596 0 m 403 772 l 275 772 l 163 972 l 246 972 l 339 838 l 428 972 l 511 972 l 403 772 z "},"ŉ":{"ha":675,"x_min":60,"x_max":596,"o":"m 596 0 l 457 0 l 457 457 q 361 565 457 565 q 282 538 319 565 q 222 472 244 510 l 222 0 l 85 0 l 85 671 l 222 671 l 222 581 q 307 656 253 625 q 419 688 361 688 q 596 504 596 688 l 596 0 m 219 943 q 190 833 219 885 q 113 747 160 781 l 61 789 q 115 841 92 808 q 143 904 139 874 q 126 901 140 901 q 79 921 99 901 q 60 971 60 940 q 82 1023 60 1001 q 135 1044 104 1044 q 194 1017 169 1044 q 219 943 219 990 z "},"Ŋ":{"ha":825,"x_min":89,"x_max":736,"o":"m 463 -272 q 265 -196 342 -272 l 325 -76 q 449 -137 376 -137 q 547 -101 511 -137 q 582 3 582 -64 l 582 13 l 242 625 l 242 0 l 89 0 l 89 926 l 244 926 l 582 319 l 582 926 l 736 926 l 736 0 q 662 -204 736 -136 q 463 -272 588 -272 z "},"ŋ":{"ha":675,"x_min":82,"x_max":593,"o":"m 397 -272 q 278 -229 325 -272 l 317 -119 q 382 -150 344 -150 q 454 -57 454 -150 l 454 457 q 358 565 454 565 q 279 538 317 565 q 219 472 242 510 l 219 0 l 82 0 l 82 671 l 219 671 l 219 581 q 304 656 250 625 q 417 688 358 688 q 593 504 593 688 l 593 -57 q 397 -272 593 -272 z "},"Ō":{"ha":854,"x_min":54,"x_max":800,"o":"m 426 -17 q 154 118 254 -17 q 54 463 54 253 q 154 807 54 672 q 426 942 254 942 q 700 807 600 942 q 800 463 800 672 q 700 118 800 253 q 426 -17 600 -17 m 268 216 q 297 168 268 216 q 426 119 325 119 q 585 216 528 119 q 642 463 642 313 q 585 710 642 614 q 426 806 528 806 q 268 710 325 806 q 211 463 211 614 q 268 216 211 313 m 640 1039 l 211 1039 l 211 1121 l 640 1121 l 640 1039 z "},"ō":{"ha":681,"x_min":49,"x_max":632,"o":"m 555 85 q 516 34 555 85 q 340 -17 478 -17 q 126 85 203 -17 q 49 336 49 186 q 126 586 49 485 q 340 688 203 688 q 555 586 478 688 q 632 336 632 485 q 555 85 632 186 m 340 106 q 450 172 413 106 q 488 336 488 238 q 450 500 488 435 q 340 565 413 565 q 229 499 267 565 q 192 336 192 433 q 229 172 192 238 q 340 106 267 106 m 554 800 l 125 800 l 125 882 l 554 882 l 554 800 z "},"Ŏ":{"ha":854,"x_min":54,"x_max":800,"o":"m 426 -17 q 154 118 254 -17 q 54 463 54 253 q 154 807 54 672 q 426 942 254 942 q 700 807 600 942 q 800 463 800 672 q 700 118 800 253 q 426 -17 600 -17 m 268 216 q 297 168 268 216 q 426 119 325 119 q 585 216 528 119 q 642 463 642 313 q 585 710 642 614 q 426 806 528 806 q 268 710 325 806 q 211 463 211 614 q 268 216 211 313 m 633 1103 q 426 999 558 999 q 219 1103 297 999 l 285 1154 q 426 1081 338 1081 q 568 1154 519 1081 l 633 1103 z "},"ŏ":{"ha":681,"x_min":49,"x_max":632,"o":"m 555 85 q 516 34 555 85 q 340 -17 478 -17 q 126 85 203 -17 q 49 336 49 186 q 126 586 49 485 q 340 688 203 688 q 555 586 478 688 q 632 336 632 485 q 555 85 632 186 m 340 106 q 450 172 413 106 q 488 336 488 238 q 450 500 488 435 q 340 565 413 565 q 229 499 267 565 q 192 336 192 433 q 229 172 192 238 q 340 106 267 106 m 547 882 q 340 778 472 778 q 133 882 211 778 l 199 933 q 340 860 251 860 q 482 933 433 860 l 547 882 z "},"Ő":{"ha":854,"x_min":54,"x_max":800,"o":"m 426 -17 q 154 118 254 -17 q 54 463 54 253 q 154 807 54 672 q 426 942 254 942 q 700 807 600 942 q 800 463 800 672 q 700 118 800 253 q 426 -17 600 -17 m 268 216 q 297 168 268 216 q 426 119 325 119 q 585 216 528 119 q 642 463 642 313 q 585 710 642 614 q 426 806 528 806 q 268 710 325 806 q 211 463 211 614 q 268 216 211 313 m 492 1211 l 356 1011 l 278 1011 l 379 1211 l 492 1211 m 678 1211 l 543 1011 l 465 1011 l 565 1211 l 678 1211 z "},"ő":{"ha":681,"x_min":49,"x_max":632,"o":"m 555 85 q 516 34 555 85 q 340 -17 478 -17 q 126 85 203 -17 q 49 336 49 186 q 126 586 49 485 q 340 688 203 688 q 555 586 478 688 q 632 336 632 485 q 555 85 632 186 m 340 106 q 450 172 413 106 q 488 336 488 238 q 450 500 488 435 q 340 565 413 565 q 229 499 267 565 q 192 336 192 433 q 229 172 192 238 q 340 106 267 106 m 406 972 l 269 772 l 192 772 l 293 972 l 406 972 m 592 972 l 457 772 l 379 772 l 479 972 l 592 972 z "},"Œ":{"ha":1192,"x_min":54,"x_max":1135,"o":"m 1135 0 l 626 0 l 626 108 q 530 15 590 46 q 404 -17 469 -17 q 148 117 242 -17 q 54 463 54 251 q 148 807 54 674 q 404 940 242 940 q 530 910 469 940 q 626 818 590 879 l 626 926 l 1135 926 l 1135 792 l 779 792 l 779 540 l 1125 540 l 1125 406 l 779 406 l 779 135 l 1135 135 l 1135 0 m 626 288 l 626 639 q 549 762 601 719 q 429 804 497 804 q 268 709 325 804 q 211 463 211 614 q 268 215 211 311 q 429 119 325 119 q 548 163 496 119 q 626 288 600 207 z "},"œ":{"ha":1101,"x_min":49,"x_max":1057,"o":"m 1057 290 l 628 290 q 678 151 632 204 q 804 97 725 97 q 957 169 896 97 l 1024 86 q 792 -17 933 -17 q 560 135 636 -17 q 340 -17 488 -17 q 126 85 203 -17 q 49 336 49 186 q 126 586 49 485 q 340 688 203 688 q 560 538 488 688 q 778 688 631 688 q 983 588 910 688 q 1057 331 1057 488 l 1057 290 m 628 389 l 924 389 q 885 518 921 463 q 775 574 849 574 q 667 517 704 574 q 628 389 631 461 m 488 336 q 449 500 488 435 q 340 565 411 565 q 230 500 268 565 q 192 336 192 435 q 230 170 192 236 q 340 104 268 104 q 449 170 411 104 q 488 336 488 236 z "},"Ŕ":{"ha":743,"x_min":89,"x_max":688,"o":"m 688 0 l 515 0 l 357 350 l 242 350 l 242 0 l 89 0 l 89 926 l 408 926 q 605 847 529 926 q 681 640 681 768 q 629 463 681 529 q 507 376 578 396 l 688 0 m 386 486 q 485 528 449 486 q 522 639 522 569 q 485 750 522 708 q 386 792 449 792 l 242 792 l 242 486 l 386 486 m 561 1211 l 374 1011 l 279 1011 l 432 1211 l 561 1211 z "},"ŕ":{"ha":428,"x_min":82,"x_max":432,"o":"m 219 0 l 82 0 l 82 671 l 219 671 l 219 572 q 301 654 250 622 q 406 686 351 686 l 406 549 q 369 553 389 553 q 284 525 328 553 q 219 460 240 497 l 219 0 m 432 972 l 244 772 l 150 772 l 303 972 l 432 972 z "},"Ŗ":{"ha":743,"x_min":89,"x_max":688,"o":"m 688 0 l 515 0 l 357 350 l 242 350 l 242 0 l 89 0 l 89 926 l 408 926 q 605 847 529 926 q 681 640 681 768 q 629 463 681 529 q 507 376 578 396 l 688 0 m 386 486 q 485 528 449 486 q 522 639 522 569 q 485 750 522 708 q 386 792 449 792 l 242 792 l 242 486 l 386 486 m 460 -192 q 430 -302 460 -250 q 353 -387 400 -354 l 301 -346 q 356 -294 332 -326 q 383 -231 379 -261 q 367 -233 381 -233 q 319 -214 339 -233 q 300 -164 300 -194 q 322 -112 300 -133 q 375 -90 344 -90 q 435 -117 410 -90 q 460 -192 460 -144 z "},"ŗ":{"ha":428,"x_min":82,"x_max":406,"o":"m 219 0 l 82 0 l 82 671 l 219 671 l 219 572 q 301 654 250 622 q 406 686 351 686 l 406 549 q 369 553 389 553 q 284 525 328 553 q 219 460 240 497 l 219 0 m 301 -192 q 272 -302 301 -250 q 194 -387 242 -354 l 143 -346 q 197 -294 174 -326 q 225 -231 221 -261 q 208 -233 222 -233 q 161 -214 181 -233 q 142 -164 142 -194 q 164 -112 142 -133 q 217 -90 186 -90 q 276 -117 251 -90 q 301 -192 301 -144 z "},"Ř":{"ha":743,"x_min":89,"x_max":688,"o":"m 688 0 l 515 0 l 357 350 l 242 350 l 242 0 l 89 0 l 89 926 l 408 926 q 605 847 529 926 q 681 640 681 768 q 629 463 681 529 q 507 376 578 396 l 688 0 m 386 486 q 485 528 449 486 q 522 639 522 569 q 485 750 522 708 q 386 792 449 792 l 242 792 l 242 486 l 386 486 m 438 1011 l 310 1011 l 197 1211 l 281 1211 l 374 1076 l 463 1211 l 546 1211 l 438 1011 z "},"ř":{"ha":428,"x_min":67,"x_max":415,"o":"m 219 0 l 82 0 l 82 671 l 219 671 l 219 572 q 301 654 250 622 q 406 686 351 686 l 406 549 q 369 553 389 553 q 284 525 328 553 q 219 460 240 497 l 219 0 m 307 772 l 179 772 l 67 972 l 150 972 l 243 838 l 332 972 l 415 972 l 307 772 z "},"Ś":{"ha":678,"x_min":31,"x_max":632,"o":"m 331 -17 q 31 101 144 -17 l 108 221 q 329 119 197 119 q 438 156 400 119 q 475 244 475 192 q 432 332 475 296 q 328 393 389 368 q 206 449 267 418 q 101 538 144 479 q 58 682 58 597 q 138 867 58 793 q 347 942 218 942 q 614 840 513 942 l 540 724 q 343 804 461 804 q 251 773 286 804 q 215 692 215 742 q 258 613 215 646 q 363 553 301 579 q 485 496 424 528 q 589 403 546 464 q 632 256 632 342 q 553 60 632 138 q 331 -17 475 -17 m 525 1211 l 338 1011 l 243 1011 l 396 1211 l 525 1211 z "},"ś":{"ha":558,"x_min":29,"x_max":518,"o":"m 275 -17 q 29 79 118 -17 l 92 176 q 172 117 124 140 q 272 93 221 93 q 355 117 325 93 q 385 181 385 140 q 351 239 385 215 q 267 279 317 263 q 169 317 218 296 q 85 383 119 338 q 51 496 51 428 q 114 633 51 578 q 283 688 176 688 q 506 601 415 688 l 446 507 q 285 578 388 578 q 210 556 239 578 q 182 500 182 533 q 217 446 182 468 q 301 408 251 424 q 399 369 350 392 q 483 300 449 347 q 518 185 518 253 q 452 40 518 96 q 275 -17 386 -17 m 471 972 l 283 772 l 189 772 l 342 972 l 471 972 z "},"Ŝ":{"ha":672,"x_min":31,"x_max":632,"o":"m 519 1011 l 436 1011 l 343 1146 l 254 1011 l 171 1011 l 279 1211 l 407 1211 l 519 1011 m 331 -17 q 31 101 144 -17 l 108 221 q 329 119 197 119 q 438 156 400 119 q 475 244 475 192 q 432 332 475 296 q 328 393 389 368 q 206 449 267 418 q 101 538 144 479 q 58 682 58 597 q 138 867 58 793 q 347 942 218 942 q 614 840 513 942 l 540 724 q 343 804 461 804 q 251 773 286 804 q 215 692 215 742 q 258 613 215 646 q 363 553 301 579 q 485 496 424 528 q 589 403 546 464 q 632 256 632 342 q 553 60 632 138 q 331 -17 475 -17 z "},"ŝ":{"ha":558,"x_min":29,"x_max":518,"o":"m 275 -17 q 29 79 118 -17 l 92 176 q 172 117 124 140 q 272 93 221 93 q 355 117 325 93 q 385 181 385 140 q 351 239 385 215 q 267 279 317 263 q 169 317 218 296 q 85 383 119 338 q 51 496 51 428 q 114 633 51 578 q 283 688 176 688 q 506 601 415 688 l 446 507 q 285 578 388 578 q 210 556 239 578 q 182 500 182 533 q 217 446 182 468 q 301 408 251 424 q 399 369 350 392 q 483 300 449 347 q 518 185 518 253 q 452 40 518 96 q 275 -17 386 -17 m 456 772 l 372 772 l 279 907 l 190 772 l 107 772 l 215 972 l 343 972 l 456 772 z "},"Ş":{"ha":678,"x_min":31,"x_max":632,"o":"m 321 -268 q 190 -225 240 -268 l 219 -165 q 318 -204 269 -204 q 367 -190 346 -204 q 388 -153 388 -176 q 346 -110 388 -110 q 304 -131 321 -110 l 250 -100 l 281 -14 q 31 101 125 0 l 108 221 q 329 119 197 119 q 438 156 400 119 q 475 244 475 192 q 432 332 475 296 q 328 393 389 368 q 206 449 267 418 q 101 538 144 479 q 58 682 58 597 q 138 867 58 793 q 347 942 218 942 q 614 840 513 942 l 540 724 q 343 804 461 804 q 251 773 286 804 q 215 692 215 742 q 258 613 215 646 q 363 553 301 579 q 485 496 424 528 q 589 403 546 464 q 632 256 632 342 q 559 66 632 142 q 353 -15 486 -10 l 331 -74 q 375 -60 349 -60 q 436 -86 411 -60 q 461 -154 461 -112 q 422 -237 461 -206 q 321 -268 382 -268 z "},"ş":{"ha":558,"x_min":29,"x_max":518,"o":"m 269 -268 q 139 -225 189 -268 l 168 -165 q 267 -204 218 -204 q 315 -190 294 -204 q 336 -153 336 -176 q 294 -110 336 -110 q 253 -131 269 -110 l 199 -100 l 229 -14 q 29 79 103 -1 l 92 176 q 172 117 124 140 q 272 93 221 93 q 355 117 325 93 q 385 181 385 140 q 351 239 385 215 q 267 279 317 263 q 169 317 218 296 q 85 383 119 338 q 51 496 51 428 q 114 633 51 578 q 283 688 176 688 q 506 601 415 688 l 446 507 q 285 578 388 578 q 210 556 239 578 q 182 500 182 533 q 217 446 182 468 q 301 408 251 424 q 399 369 350 392 q 483 300 449 347 q 518 185 518 253 q 460 47 518 101 q 301 -15 401 -8 l 279 -74 q 324 -60 297 -60 q 385 -86 360 -60 q 410 -154 410 -112 q 370 -237 410 -206 q 269 -268 331 -268 z "},"Š":{"ha":672,"x_min":31,"x_max":632,"o":"m 411 1011 l 283 1011 l 171 1211 l 254 1211 l 347 1076 l 436 1211 l 519 1211 l 411 1011 m 331 -17 q 31 101 144 -17 l 108 221 q 329 119 197 119 q 438 156 400 119 q 475 244 475 192 q 432 332 475 296 q 328 393 389 368 q 206 449 267 418 q 101 538 144 479 q 58 682 58 597 q 138 867 58 793 q 347 942 218 942 q 614 840 513 942 l 540 724 q 343 804 461 804 q 251 773 286 804 q 215 692 215 742 q 258 613 215 646 q 363 553 301 579 q 485 496 424 528 q 589 403 546 464 q 632 256 632 342 q 553 60 632 138 q 331 -17 475 -17 z "},"š":{"ha":558,"x_min":29,"x_max":518,"o":"m 275 -17 q 29 79 118 -17 l 92 176 q 172 117 124 140 q 272 93 221 93 q 355 117 325 93 q 385 181 385 140 q 351 239 385 215 q 267 279 317 263 q 169 317 218 296 q 85 383 119 338 q 51 496 51 428 q 114 633 51 578 q 283 688 176 688 q 506 601 415 688 l 446 507 q 285 578 388 578 q 210 556 239 578 q 182 500 182 533 q 217 446 182 468 q 301 408 251 424 q 399 369 350 392 q 483 300 449 347 q 518 185 518 253 q 452 40 518 96 q 275 -17 386 -17 m 347 772 l 219 772 l 107 972 l 190 972 l 283 838 l 372 972 l 456 972 l 347 772 z "},"Ţ":{"ha":644,"x_min":32,"x_max":611,"o":"m 399 0 l 246 0 l 246 792 l 32 792 l 32 926 l 611 926 l 611 792 l 399 792 l 399 0 m 410 -192 q 380 -302 410 -250 q 303 -387 350 -354 l 251 -346 q 306 -294 282 -326 q 333 -231 329 -261 q 317 -233 331 -233 q 269 -214 289 -233 q 250 -164 250 -194 q 272 -112 250 -133 q 325 -90 294 -90 q 385 -117 360 -90 q 410 -192 410 -144 z "},"ţ":{"ha":392,"x_min":19,"x_max":382,"o":"m 261 -17 q 107 150 107 -17 l 107 550 l 19 550 l 19 671 l 107 671 l 107 854 l 244 854 l 244 671 l 356 671 l 356 550 l 244 550 l 244 179 q 296 106 244 106 q 349 128 332 106 l 382 22 q 261 -17 339 -17 m 285 -192 q 255 -302 285 -250 q 178 -387 225 -354 l 126 -346 q 181 -294 157 -326 q 208 -231 204 -261 q 192 -233 206 -233 q 144 -214 164 -233 q 125 -164 125 -194 q 147 -112 125 -133 q 200 -90 169 -90 q 260 -117 235 -90 q 285 -192 285 -144 z "},"Ť":{"ha":644,"x_min":32,"x_max":611,"o":"m 399 0 l 246 0 l 246 792 l 32 792 l 32 926 l 611 926 l 611 792 l 399 792 l 399 0 m 388 1011 l 260 1011 l 147 1211 l 231 1211 l 324 1076 l 413 1211 l 496 1211 l 388 1011 z "},"ť":{"ha":413,"x_min":19,"x_max":472,"o":"m 261 -17 q 107 150 107 -17 l 107 550 l 19 550 l 19 671 l 107 671 l 107 854 l 244 854 l 244 671 l 356 671 l 356 550 l 244 550 l 244 179 q 296 106 244 106 q 349 128 332 106 l 382 22 q 261 -17 339 -17 m 472 943 q 442 833 472 885 q 365 747 413 781 l 314 789 q 368 841 344 808 q 396 904 392 874 q 379 901 393 901 q 332 921 351 901 q 313 971 313 940 q 335 1023 313 1001 q 388 1044 357 1044 q 447 1017 422 1044 q 472 943 472 990 z "},"Ŧ":{"ha":644,"x_min":32,"x_max":611,"o":"m 399 0 l 246 0 l 246 388 l 96 388 l 96 469 l 246 469 l 246 792 l 32 792 l 32 926 l 611 926 l 611 792 l 399 792 l 399 469 l 542 469 l 542 388 l 399 388 l 399 0 z "},"ŧ":{"ha":392,"x_min":19,"x_max":382,"o":"m 317 303 l 244 303 l 244 179 q 296 106 244 106 q 349 128 332 106 l 382 22 q 261 -17 339 -17 q 107 150 107 -17 l 107 303 l 19 303 l 19 385 l 107 385 l 107 550 l 19 550 l 19 671 l 107 671 l 107 854 l 244 854 l 244 671 l 356 671 l 356 550 l 244 550 l 244 385 l 317 385 l 317 303 z "},"Ũ":{"ha":824,"x_min":89,"x_max":735,"o":"m 413 -17 q 175 69 261 -17 q 89 313 89 156 l 89 926 l 243 926 l 243 311 q 287 169 243 218 q 413 119 331 119 q 537 169 493 119 q 581 311 581 218 l 581 926 l 735 926 l 735 313 q 649 69 735 156 q 413 -17 563 -17 m 485 1008 q 434 1026 456 1008 q 401 1065 413 1043 q 376 1103 390 1086 q 344 1121 361 1121 q 293 1017 293 1121 l 218 1017 q 251 1152 218 1101 q 346 1203 285 1203 q 397 1185 375 1203 q 428 1147 418 1168 q 454 1108 439 1125 q 486 1090 469 1090 q 536 1194 536 1090 l 611 1194 q 578 1059 611 1110 q 485 1008 546 1008 z "},"ũ":{"ha":675,"x_min":82,"x_max":592,"o":"m 592 0 l 454 0 l 454 88 q 371 13 424 43 q 258 -17 318 -17 q 82 164 82 -17 l 82 671 l 219 671 l 219 213 q 317 106 219 106 q 395 132 358 106 q 454 196 432 158 l 454 671 l 592 671 l 592 0 m 407 769 q 356 787 378 769 q 324 826 335 804 q 298 865 313 847 q 267 882 283 882 q 215 778 215 882 l 140 778 q 174 913 140 863 q 268 964 207 964 q 319 947 297 964 q 351 908 340 929 q 376 869 361 886 q 408 851 392 851 q 458 956 458 851 l 533 956 q 501 820 533 871 q 407 769 468 769 z "},"Ū":{"ha":824,"x_min":89,"x_max":735,"o":"m 413 -17 q 175 69 261 -17 q 89 313 89 156 l 89 926 l 243 926 l 243 311 q 287 169 243 218 q 413 119 331 119 q 537 169 493 119 q 581 311 581 218 l 581 926 l 735 926 l 735 313 q 649 69 735 156 q 413 -17 563 -17 m 626 1039 l 197 1039 l 197 1121 l 626 1121 l 626 1039 z "},"ū":{"ha":675,"x_min":82,"x_max":592,"o":"m 592 0 l 454 0 l 454 88 q 371 13 424 43 q 258 -17 318 -17 q 82 164 82 -17 l 82 671 l 219 671 l 219 213 q 317 106 219 106 q 395 132 358 106 q 454 196 432 158 l 454 671 l 592 671 l 592 0 m 551 800 l 122 800 l 122 882 l 551 882 l 551 800 z "},"Ŭ":{"ha":824,"x_min":89,"x_max":735,"o":"m 413 -17 q 175 69 261 -17 q 89 313 89 156 l 89 926 l 243 926 l 243 311 q 287 169 243 218 q 413 119 331 119 q 537 169 493 119 q 581 311 581 218 l 581 926 l 735 926 l 735 313 q 649 69 735 156 q 413 -17 563 -17 m 621 1103 q 414 999 546 999 q 207 1103 285 999 l 272 1154 q 414 1081 325 1081 q 556 1154 507 1081 l 621 1103 z "},"ŭ":{"ha":675,"x_min":82,"x_max":592,"o":"m 592 0 l 454 0 l 454 88 q 371 13 424 43 q 258 -17 318 -17 q 82 164 82 -17 l 82 671 l 219 671 l 219 213 q 317 106 219 106 q 395 132 358 106 q 454 196 432 158 l 454 671 l 592 671 l 592 0 m 546 882 q 339 778 471 778 q 132 882 210 778 l 197 933 q 339 860 250 860 q 481 933 432 860 l 546 882 z "},"Ů":{"ha":824,"x_min":89,"x_max":735,"o":"m 413 -17 q 175 69 261 -17 q 89 313 89 156 l 89 926 l 243 926 l 243 311 q 287 169 243 218 q 413 119 331 119 q 537 169 493 119 q 581 311 581 218 l 581 926 l 735 926 l 735 313 q 649 69 735 156 q 413 -17 563 -17 m 414 961 q 321 1000 360 961 q 282 1093 282 1039 q 321 1185 282 1147 q 414 1224 360 1224 q 505 1185 467 1224 q 543 1093 543 1147 q 505 1000 543 1039 q 414 961 467 961 m 414 1026 q 459 1046 440 1026 q 478 1093 478 1065 q 459 1140 478 1121 q 414 1158 440 1158 q 367 1140 386 1158 q 347 1093 347 1121 q 367 1046 347 1065 q 414 1026 386 1026 z "},"ů":{"ha":675,"x_min":82,"x_max":592,"o":"m 592 0 l 454 0 l 454 88 q 371 13 424 43 q 258 -17 318 -17 q 82 164 82 -17 l 82 671 l 219 671 l 219 213 q 317 106 219 106 q 395 132 358 106 q 454 196 432 158 l 454 671 l 592 671 l 592 0 m 339 758 q 246 797 285 758 q 207 890 207 836 q 246 983 207 944 q 339 1021 285 1021 q 430 983 392 1021 q 468 890 468 944 q 430 797 468 836 q 339 758 392 758 m 339 824 q 384 843 365 824 q 403 890 403 863 q 384 937 403 918 q 339 956 365 956 q 292 937 311 956 q 272 890 272 918 q 292 843 272 863 q 339 824 311 824 z "},"Ű":{"ha":824,"x_min":89,"x_max":735,"o":"m 413 -17 q 175 69 261 -17 q 89 313 89 156 l 89 926 l 243 926 l 243 311 q 287 169 243 218 q 413 119 331 119 q 537 169 493 119 q 581 311 581 218 l 581 926 l 735 926 l 735 313 q 649 69 735 156 q 413 -17 563 -17 m 478 1211 l 342 1011 l 264 1011 l 365 1211 l 478 1211 m 664 1211 l 529 1011 l 451 1011 l 551 1211 l 664 1211 z "},"ű":{"ha":675,"x_min":82,"x_max":592,"o":"m 592 0 l 454 0 l 454 88 q 371 13 424 43 q 258 -17 318 -17 q 82 164 82 -17 l 82 671 l 219 671 l 219 213 q 317 106 219 106 q 395 132 358 106 q 454 196 432 158 l 454 671 l 592 671 l 592 0 m 403 972 l 267 772 l 189 772 l 290 972 l 403 972 m 589 972 l 454 772 l 376 772 l 476 972 l 589 972 z "},"Ų":{"ha":824,"x_min":89,"x_max":735,"o":"m 413 -17 q 175 69 261 -17 q 89 313 89 156 l 89 926 l 243 926 l 243 311 q 287 169 243 218 q 413 119 331 119 q 537 169 493 119 q 581 311 581 218 l 581 926 l 735 926 l 735 313 q 681 108 735 189 q 529 0 628 28 q 438 -136 438 -53 q 483 -194 438 -194 q 536 -147 522 -194 l 597 -181 q 483 -258 563 -258 q 397 -229 431 -258 q 364 -142 364 -200 q 414 -17 364 -74 l 413 -17 z "},"ų":{"ha":675,"x_min":82,"x_max":658,"o":"m 597 -147 l 658 -181 q 544 -258 624 -258 q 458 -229 492 -258 q 425 -142 425 -200 q 492 0 425 -62 l 454 0 l 454 88 q 371 13 424 43 q 258 -17 318 -17 q 82 164 82 -17 l 82 671 l 219 671 l 219 213 q 317 106 219 106 q 395 132 358 106 q 454 196 432 158 l 454 671 l 592 671 l 592 0 q 499 -136 499 -54 q 544 -194 499 -194 q 597 -147 583 -194 z "},"Ŵ":{"ha":1038,"x_min":14,"x_max":1024,"o":"m 814 0 l 653 0 l 519 664 l 385 0 l 225 0 l 14 926 l 179 926 l 313 236 l 457 926 l 581 926 l 725 236 l 858 926 l 1024 926 l 814 0 m 694 1011 l 611 1011 l 518 1146 l 429 1011 l 346 1011 l 454 1211 l 582 1211 l 694 1011 z "},"ŵ":{"ha":929,"x_min":10,"x_max":919,"o":"m 739 0 l 594 0 l 464 492 l 335 0 l 190 0 l 10 671 l 153 671 l 271 182 l 399 671 l 526 671 l 658 182 l 775 671 l 919 671 l 739 0 m 639 772 l 556 772 l 463 907 l 374 772 l 290 772 l 399 972 l 526 972 l 639 772 z "},"Ŷ":{"ha":728,"x_min":0,"x_max":728,"o":"m 540 1011 l 457 1011 l 364 1146 l 275 1011 l 192 1011 l 300 1211 l 428 1211 l 540 1011 m 440 0 l 288 0 l 288 386 l 0 926 l 169 926 l 364 531 l 558 926 l 728 926 l 440 386 l 440 0 z "},"ŷ":{"ha":600,"x_min":1,"x_max":599,"o":"m 60 -262 l 81 -140 q 124 -150 96 -150 q 200 -93 179 -150 l 229 -12 l 1 671 l 150 671 l 300 167 l 451 671 l 599 671 l 332 -125 q 257 -238 304 -206 q 135 -272 210 -271 q 60 -262 89 -272 m 475 772 l 392 772 l 299 907 l 210 772 l 126 772 l 235 972 l 363 972 l 475 772 z "},"Ÿ":{"ha":728,"x_min":0,"x_max":728,"o":"m 549 1135 q 560 1124 549 1135 q 572 1081 572 1113 q 549 1026 572 1049 q 493 1003 525 1003 q 438 1026 461 1003 q 415 1081 415 1049 q 438 1135 415 1113 q 493 1158 461 1158 q 549 1135 525 1158 m 295 1135 q 307 1124 295 1135 q 318 1081 318 1113 q 295 1026 318 1049 q 240 1003 272 1003 q 185 1026 208 1003 q 163 1081 163 1049 q 185 1135 163 1113 q 240 1158 208 1158 q 295 1135 272 1158 m 440 0 l 288 0 l 288 386 l 0 926 l 169 926 l 364 531 l 558 926 l 728 926 l 440 386 l 440 0 z "},"Ź":{"ha":663,"x_min":53,"x_max":610,"o":"m 610 0 l 53 0 l 53 128 l 414 792 l 53 792 l 53 926 l 600 926 l 600 801 l 236 135 l 610 135 l 610 0 m 521 1211 l 333 1011 l 239 1011 l 392 1211 l 521 1211 z "},"ź":{"ha":556,"x_min":53,"x_max":503,"o":"m 503 0 l 53 0 l 53 106 l 324 550 l 53 550 l 53 671 l 497 671 l 497 569 l 225 121 l 503 121 l 503 0 m 467 972 l 279 772 l 185 772 l 338 972 l 467 972 z "},"Ż":{"ha":663,"x_min":53,"x_max":610,"o":"m 610 0 l 53 0 l 53 128 l 414 792 l 53 792 l 53 926 l 600 926 l 600 801 l 236 135 l 610 135 l 610 0 m 382 1026 q 370 1014 382 1026 q 326 1003 358 1003 q 272 1026 294 1003 q 249 1082 249 1049 q 272 1137 249 1114 q 326 1160 294 1160 q 382 1137 358 1160 q 406 1082 406 1114 q 382 1026 406 1049 z "},"ż":{"ha":556,"x_min":53,"x_max":503,"o":"m 503 0 l 53 0 l 53 106 l 324 550 l 53 550 l 53 671 l 497 671 l 497 569 l 225 121 l 503 121 l 503 0 m 332 805 q 320 793 332 805 q 276 782 308 782 q 222 805 244 782 q 199 861 199 828 q 222 916 199 893 q 276 939 244 939 q 332 916 308 939 q 356 861 356 893 q 332 805 356 828 z "},"Ž":{"ha":663,"x_min":53,"x_max":610,"o":"m 397 1011 l 269 1011 l 157 1211 l 240 1211 l 333 1076 l 422 1211 l 506 1211 l 397 1011 m 610 0 l 53 0 l 53 128 l 414 792 l 53 792 l 53 926 l 600 926 l 600 801 l 236 135 l 610 135 l 610 0 z "},"ž":{"ha":556,"x_min":53,"x_max":503,"o":"m 503 0 l 53 0 l 53 106 l 324 550 l 53 550 l 53 671 l 497 671 l 497 569 l 225 121 l 503 121 l 503 0 m 338 772 l 210 772 l 97 972 l 181 972 l 274 838 l 363 972 l 446 972 l 338 772 z "},"ſ":{"ha":379,"x_min":22,"x_max":432,"o":"m 247 0 l 110 0 l 110 550 l 22 550 l 22 671 l 110 671 l 110 732 q 160 885 110 831 q 299 940 210 940 q 432 893 385 940 l 386 794 q 324 821 361 821 q 267 797 288 821 q 247 732 247 774 l 247 0 z "},"ƒ":{"ha":576,"x_min":24,"x_max":594,"o":"m 179 -224 l 24 -224 l 147 343 l 75 343 l 75 465 l 175 465 l 238 747 q 320 888 256 835 q 468 940 385 940 q 594 897 550 940 l 539 781 q 485 806 519 806 q 423 781 449 806 q 388 713 397 757 l 332 465 l 478 465 l 478 343 l 306 343 l 179 -224 z "},"Ǽ":{"ha":1075,"x_min":6,"x_max":1017,"o":"m 1017 0 l 510 0 l 510 183 l 254 183 l 171 0 l 6 0 l 446 926 l 1017 926 l 1017 792 l 663 792 l 663 540 l 1007 540 l 1007 406 l 663 406 l 663 135 l 1017 135 l 1017 0 m 510 319 l 510 763 l 308 319 l 510 319 m 758 1211 l 571 1011 l 476 1011 l 629 1211 l 758 1211 z "},"ǽ":{"ha":1040,"x_min":47,"x_max":996,"o":"m 996 290 l 567 290 q 618 151 572 204 q 743 97 664 97 q 896 171 833 97 l 963 86 q 731 -17 872 -17 q 490 107 576 -17 q 258 -17 404 -17 q 108 42 169 -17 q 47 204 47 101 q 106 365 47 306 q 253 425 165 425 q 431 342 372 425 l 431 442 q 397 536 431 503 q 300 569 363 569 q 132 492 208 569 l 78 589 q 325 688 175 688 q 519 578 475 688 q 722 688 586 688 q 923 588 850 688 q 996 331 996 488 l 996 290 m 567 389 l 863 389 q 825 518 861 463 q 714 574 789 574 q 606 517 643 574 q 567 389 569 461 m 446 171 q 431 257 431 214 q 303 329 393 329 q 219 295 251 329 q 186 204 186 261 q 218 113 186 146 q 303 79 250 79 q 446 171 401 79 m 696 972 l 508 772 l 414 772 l 567 972 l 696 972 z "},"Ǿ":{"ha":854,"x_min":54,"x_max":800,"o":"m 618 1211 l 431 1011 l 336 1011 l 489 1211 l 618 1211 m 426 -17 q 228 44 315 -17 l 203 0 l 99 0 l 161 108 q 54 463 54 240 q 154 807 54 672 q 426 942 254 942 q 618 885 535 942 l 643 926 l 747 926 l 686 824 q 800 463 800 689 q 700 118 800 253 q 426 -17 600 -17 m 426 119 q 585 216 528 119 q 642 463 642 313 q 601 678 642 589 l 303 171 q 426 119 351 119 m 211 463 q 249 256 211 342 l 544 758 q 426 806 494 806 q 268 710 325 806 q 211 463 211 614 z "},"ǿ":{"ha":681,"x_min":49,"x_max":632,"o":"m 531 972 l 343 772 l 249 772 l 401 972 l 531 972 m 149 0 l 63 0 l 124 88 q 49 336 49 186 q 126 586 49 485 q 340 688 203 688 q 503 636 433 688 l 528 671 l 613 671 l 554 586 q 632 336 632 489 q 555 85 632 186 q 340 -17 478 -17 q 174 36 244 -17 l 149 0 m 340 106 q 450 172 413 106 q 488 336 488 238 q 468 461 488 406 l 249 144 q 340 106 285 106 m 192 336 q 210 213 192 265 l 428 528 q 340 565 393 565 q 229 499 267 565 q 192 336 192 433 z "},"Ș":{"ha":679,"x_min":35,"x_max":636,"o":"m 335 -17 q 35 101 149 -17 l 113 221 q 333 119 201 119 q 442 156 404 119 q 479 244 479 192 q 436 332 479 296 q 332 393 393 368 q 210 449 271 418 q 106 538 149 479 q 63 682 63 597 q 142 867 63 793 q 351 942 222 942 q 618 840 517 942 l 544 724 q 347 804 465 804 q 255 773 290 804 q 219 692 219 742 q 263 613 219 646 q 367 553 306 579 q 489 496 428 528 q 593 403 550 464 q 636 256 636 342 q 558 60 636 138 q 335 -17 479 -17 m 426 -192 q 397 -302 426 -250 q 319 -387 367 -354 l 268 -346 q 322 -294 299 -326 q 350 -231 346 -261 q 333 -233 347 -233 q 286 -214 306 -233 q 267 -164 267 -194 q 289 -112 267 -133 q 342 -90 311 -90 q 401 -117 376 -90 q 426 -192 426 -144 z "},"ș":{"ha":564,"x_min":29,"x_max":518,"o":"m 275 -17 q 29 79 118 -17 l 92 176 q 172 117 124 140 q 272 93 221 93 q 355 117 325 93 q 385 181 385 140 q 351 239 385 215 q 267 279 317 263 q 169 317 218 296 q 85 383 119 338 q 51 496 51 428 q 114 633 51 578 q 283 688 176 688 q 506 601 415 688 l 446 507 q 285 578 388 578 q 210 556 239 578 q 182 500 182 533 q 217 446 182 468 q 301 408 251 424 q 399 369 350 392 q 483 300 449 347 q 518 185 518 253 q 452 40 518 96 q 275 -17 386 -17 m 371 -192 q 341 -302 371 -250 q 264 -387 311 -354 l 213 -346 q 267 -294 243 -326 q 294 -231 290 -261 q 278 -233 292 -233 q 231 -214 250 -233 q 211 -164 211 -194 q 233 -112 211 -133 q 286 -90 256 -90 q 346 -117 321 -90 q 371 -192 371 -144 z "},"ʰ":{"ha":492,"x_min":67,"x_max":425,"o":"m 425 453 l 322 453 l 322 743 q 257 813 322 813 q 168 757 203 813 l 168 453 l 67 453 l 67 1056 l 168 1056 l 168 832 q 224 880 188 860 q 303 900 261 900 q 425 775 425 900 l 425 453 z "},"ˆ":{"ha":349,"x_min":0,"x_max":349,"o":"m 349 772 l 265 772 l 172 907 l 83 772 l 0 772 l 108 972 l 236 972 l 349 772 z "},"ˇ":{"ha":349,"x_min":0,"x_max":349,"o":"m 240 772 l 113 772 l 0 972 l 83 972 l 176 838 l 265 972 l 349 972 l 240 772 z "},"˘":{"ha":414,"x_min":0,"x_max":414,"o":"m 414 882 q 207 778 339 778 q 0 882 78 778 l 65 933 q 207 860 118 860 q 349 933 300 860 l 414 882 z "},"˙":{"ha":196,"x_min":19,"x_max":176,"o":"m 153 805 q 141 793 153 805 q 97 782 129 782 q 42 805 65 782 q 19 861 19 828 q 42 916 19 893 q 97 939 65 939 q 153 916 129 939 q 176 861 176 893 q 153 805 176 828 z "},"˚":{"ha":261,"x_min":0,"x_max":261,"o":"m 132 765 q 39 804 78 765 q 0 897 0 843 q 39 990 0 951 q 132 1028 78 1028 q 223 990 185 1028 q 261 897 261 951 q 223 804 261 843 q 132 765 185 765 m 132 831 q 177 850 158 831 q 196 897 196 869 q 177 944 196 925 q 132 963 158 963 q 85 944 104 963 q 65 897 65 925 q 85 850 65 869 q 132 831 104 831 z "},"˛":{"ha":233,"x_min":0,"x_max":233,"o":"m 172 -147 l 233 -181 q 119 -258 199 -258 q 33 -229 67 -258 q 0 -142 0 -200 q 113 36 0 -36 l 167 0 q 74 -136 74 -54 q 119 -194 74 -194 q 172 -147 158 -194 z "},"˜":{"ha":393,"x_min":0,"x_max":393,"o":"m 267 769 q 216 787 238 769 q 183 826 194 804 q 158 865 172 847 q 126 882 143 882 q 75 778 75 882 l 0 778 q 33 913 0 863 q 128 964 67 964 q 178 947 157 964 q 210 908 200 929 q 236 869 221 886 q 268 851 251 851 q 318 956 318 851 l 393 956 q 360 820 393 871 q 267 769 328 769 z "},"˝":{"ha":400,"x_min":0,"x_max":400,"o":"m 214 972 l 78 772 l 0 772 l 101 972 l 214 972 m 400 972 l 265 772 l 188 772 l 288 972 l 400 972 z "},"Δ":{"ha":763,"x_min":4,"x_max":758,"o":"m 758 0 l 4 0 l 289 926 l 474 926 l 758 0 m 561 135 l 381 763 l 201 135 l 561 135 z "},"Ω":{"ha":846,"x_min":50,"x_max":796,"o":"m 69 0 l 69 135 l 221 135 q 97 285 144 193 q 50 494 50 378 q 151 819 50 696 q 424 942 251 942 q 696 819 596 942 q 796 494 796 697 q 625 135 796 272 l 776 135 l 776 0 l 492 0 l 492 135 q 596 248 553 157 q 639 463 639 339 q 583 710 639 617 q 424 804 528 804 q 263 710 318 804 q 208 463 208 617 q 251 248 208 339 q 356 135 294 157 l 356 0 l 69 0 z "},"π":{"ha":689,"x_min":32,"x_max":657,"o":"m 579 0 l 440 0 l 440 572 l 249 572 l 249 0 l 110 0 l 110 572 l 32 572 l 32 694 l 657 694 l 657 572 l 579 572 l 579 0 z "},"–":{"ha":732,"x_min":42,"x_max":690,"o":"m 690 276 l 42 276 l 42 396 l 690 396 l 690 276 z "},"—":{"ha":1024,"x_min":42,"x_max":982,"o":"m 982 276 l 42 276 l 42 396 l 982 396 l 982 276 z "},"‘":{"ha":338,"x_min":65,"x_max":258,"o":"m 65 710 q 99 840 65 779 q 192 940 133 901 l 254 890 q 192 831 221 869 q 157 760 163 793 q 179 763 163 763 q 235 739 213 763 q 258 678 258 715 q 232 614 258 640 q 168 588 206 588 q 95 620 125 588 q 65 710 65 653 z "},"’":{"ha":338,"x_min":75,"x_max":268,"o":"m 268 818 q 234 688 268 749 q 142 586 200 626 l 79 638 q 142 696 113 658 q 176 768 171 733 q 154 765 171 765 q 98 789 121 765 q 75 849 75 813 q 101 913 75 886 q 165 940 128 940 q 238 908 208 940 q 268 818 268 875 z "},"‚":{"ha":338,"x_min":75,"x_max":268,"o":"m 268 49 q 233 -81 268 -19 q 142 -182 199 -143 l 79 -131 q 142 -73 113 -111 q 176 -1 171 -35 q 154 -4 171 -4 q 98 19 121 -4 q 75 81 75 43 q 101 144 75 118 q 165 171 128 171 q 238 138 208 171 q 268 49 268 106 z "},"“":{"ha":588,"x_min":68,"x_max":513,"o":"m 68 710 q 103 840 68 779 q 194 940 138 900 l 258 890 q 194 831 224 869 q 160 760 165 793 q 182 763 165 763 q 240 739 217 763 q 263 678 263 715 q 235 614 263 640 q 171 588 208 588 q 98 621 128 588 q 68 710 68 654 m 318 710 q 353 840 318 779 q 444 940 388 900 l 508 890 q 444 831 474 869 q 410 760 415 793 q 432 763 418 763 q 490 739 467 763 q 513 678 513 715 q 486 614 513 640 q 422 588 460 588 q 349 621 379 588 q 318 710 318 654 z "},"”":{"ha":588,"x_min":75,"x_max":519,"o":"m 519 818 q 485 689 519 750 q 393 586 450 628 l 329 638 q 393 696 364 658 q 428 768 422 733 q 406 765 419 765 q 348 789 371 765 q 325 849 325 813 q 351 913 325 886 q 415 940 378 940 q 489 907 458 940 q 519 818 519 874 m 268 818 q 234 688 268 749 q 142 586 200 626 l 79 638 q 142 696 113 658 q 176 768 171 733 q 154 765 171 765 q 98 789 121 765 q 75 849 75 813 q 101 913 75 886 q 165 940 128 940 q 238 908 208 940 q 268 818 268 875 z "},"„":{"ha":588,"x_min":75,"x_max":519,"o":"m 268 49 q 233 -81 268 -19 q 142 -182 199 -143 l 79 -131 q 142 -73 113 -111 q 176 -1 171 -35 q 154 -4 171 -4 q 98 19 121 -4 q 75 81 75 43 q 101 144 75 118 q 165 171 128 171 q 238 138 208 171 q 268 49 268 106 m 519 49 q 485 -81 519 -19 q 393 -182 450 -142 l 329 -131 q 393 -72 364 -110 q 428 -1 422 -35 q 406 -4 419 -4 q 348 19 371 -4 q 325 81 325 43 q 351 144 325 118 q 415 171 378 171 q 489 138 458 171 q 519 49 519 104 z "},"†":{"ha":374,"x_min":29,"x_max":344,"o":"m 344 732 l 221 738 l 226 454 l 147 454 l 153 738 l 29 732 l 29 804 l 153 800 l 147 940 l 226 940 l 221 800 l 344 804 l 344 732 z "},"‡":{"ha":374,"x_min":29,"x_max":344,"o":"m 344 804 l 344 732 l 221 738 l 221 454 l 344 460 l 344 388 l 221 392 l 226 250 l 147 250 l 153 392 l 29 388 l 29 460 l 153 454 l 153 738 l 29 732 l 29 804 l 153 800 l 147 940 l 226 940 l 221 800 l 344 804 z "},"•":{"ha":497,"x_min":93,"x_max":407,"o":"m 360 447 q 384 423 360 447 q 407 336 407 400 q 360 226 407 272 q 250 181 314 181 q 140 226 186 181 q 93 336 93 272 q 140 447 93 400 q 250 493 186 493 q 360 447 314 493 z "},"…":{"ha":1008,"x_min":75,"x_max":933,"o":"m 261 79 q 234 13 261 40 q 168 -14 207 -14 q 102 13 129 -14 q 75 79 75 40 q 102 144 75 117 q 168 171 129 171 q 234 144 207 171 q 261 79 261 117 m 597 79 q 570 13 597 40 q 504 -14 543 -14 q 438 13 465 -14 q 411 79 411 40 q 438 144 411 117 q 504 171 465 171 q 570 144 543 171 q 597 79 597 117 m 933 79 q 906 13 933 40 q 840 -14 878 -14 q 774 13 801 -14 q 747 79 747 40 q 774 144 747 117 q 840 171 801 171 q 906 144 878 171 q 933 79 933 117 z "},"‰":{"ha":1361,"x_min":36,"x_max":1325,"o":"m 442 710 q 385 546 442 611 q 239 481 329 481 q 92 546 149 481 q 36 710 36 611 q 92 875 36 810 q 239 940 149 940 q 385 875 329 940 q 442 710 442 810 m 746 926 l 257 0 l 179 0 l 667 926 l 746 926 m 885 211 q 828 48 885 113 q 682 -17 772 -17 q 535 48 592 -17 q 479 211 479 113 q 535 377 479 311 q 682 443 592 443 q 828 377 772 443 q 885 211 885 311 m 342 710 q 314 815 342 775 q 239 856 286 856 q 163 815 192 856 q 135 710 135 775 q 163 606 135 646 q 239 565 192 565 q 313 606 285 565 q 342 710 342 646 m 786 211 q 758 317 786 276 q 682 358 729 358 q 606 317 635 358 q 578 211 578 276 q 606 108 578 149 q 682 68 635 68 q 758 108 729 68 q 786 211 786 149 m 1325 211 q 1269 48 1325 113 q 1122 -17 1213 -17 q 976 48 1032 -17 q 919 211 919 113 q 976 377 919 311 q 1122 443 1032 443 q 1269 377 1213 443 q 1325 211 1325 311 m 1226 211 q 1198 317 1226 276 q 1122 358 1169 358 q 1047 318 1075 358 q 1019 211 1019 278 q 1048 108 1019 149 q 1122 68 1076 68 q 1198 108 1169 68 q 1226 211 1226 149 z "},"‹":{"ha":378,"x_min":42,"x_max":336,"o":"m 336 88 l 215 88 l 42 338 l 215 583 l 336 583 l 163 338 l 336 88 z "},"›":{"ha":378,"x_min":42,"x_max":336,"o":"m 336 338 l 163 88 l 42 88 l 215 338 l 42 583 l 163 583 l 336 338 z "},"⁄":{"ha":192,"x_min":-187,"x_max":379,"o":"m 379 926 l -110 0 l -187 0 l 300 926 l 379 926 z "},"⁰":{"ha":469,"x_min":31,"x_max":439,"o":"m 388 1065 q 413 1023 388 1065 q 439 863 439 981 q 388 660 439 744 q 236 575 336 575 q 83 660 135 575 q 31 863 31 744 q 83 1065 31 981 q 236 1149 135 1149 q 388 1065 336 1149 m 331 863 q 236 1063 331 1063 q 139 863 139 1063 q 236 661 139 661 q 331 863 331 661 z "},"⁴":{"ha":469,"x_min":33,"x_max":439,"o":"m 439 715 l 378 715 l 378 585 l 271 585 l 271 715 l 33 715 l 33 794 l 239 1140 l 378 1140 l 378 800 l 439 800 l 439 715 m 271 800 l 271 1036 l 132 800 l 271 800 z "},"⁵":{"ha":469,"x_min":39,"x_max":429,"o":"m 383 894 q 406 870 383 894 q 429 764 429 847 q 374 628 429 681 q 231 575 319 575 q 39 665 101 575 l 101 732 q 228 661 151 661 q 297 690 271 661 q 322 761 322 719 q 298 834 322 807 q 232 861 274 861 q 131 807 172 861 l 54 833 l 54 1140 l 396 1140 l 396 1054 l 161 1054 l 161 893 q 271 940 201 940 q 383 894 338 940 z "},"⁶":{"ha":469,"x_min":35,"x_max":435,"o":"m 435 763 q 383 628 435 682 q 247 575 331 575 q 87 656 139 575 q 35 863 35 736 q 95 1069 35 989 q 264 1149 156 1149 q 411 1089 354 1149 l 360 1015 q 264 1063 321 1063 q 175 1011 207 1063 q 142 886 143 960 q 143 869 142 876 q 197 924 163 901 q 272 946 231 946 q 388 897 342 946 q 435 763 435 849 m 328 758 q 302 836 328 811 q 239 861 276 861 q 143 797 181 861 q 240 661 153 661 q 304 691 281 661 q 328 758 328 721 z "},"⁷":{"ha":435,"x_min":31,"x_max":400,"o":"m 400 1067 l 214 585 l 103 585 l 292 1054 l 31 1054 l 31 1140 l 400 1140 l 400 1067 z "},"⁸":{"ha":469,"x_min":38,"x_max":432,"o":"m 432 726 q 377 615 432 654 q 235 575 322 575 q 92 614 147 575 q 38 726 38 653 q 72 816 38 776 q 156 871 106 856 q 77 920 108 886 q 46 1003 46 954 q 101 1112 46 1075 q 235 1149 157 1149 q 368 1112 313 1149 q 424 1003 424 1075 q 392 920 424 954 q 314 871 361 886 q 397 815 363 856 q 432 726 432 775 m 318 989 q 296 1045 318 1025 q 235 1065 274 1065 q 173 1045 196 1065 q 150 989 150 1025 q 169 943 150 963 q 204 916 188 924 q 235 906 221 908 q 290 931 261 911 q 318 989 318 951 m 326 736 q 293 805 326 779 q 235 832 260 831 q 176 805 210 831 q 143 736 143 779 q 169 678 143 699 q 235 657 194 657 q 300 678 274 657 q 326 736 326 699 z "},"⁹":{"ha":469,"x_min":36,"x_max":436,"o":"m 36 961 q 88 1095 36 1042 q 225 1149 140 1149 q 384 1068 332 1149 q 436 861 436 988 q 376 654 436 733 q 207 575 317 575 q 61 635 117 575 l 111 708 q 207 661 147 661 q 295 713 263 661 q 328 839 328 764 l 328 854 q 274 800 308 822 q 199 778 240 778 q 83 826 131 778 q 36 961 36 875 m 143 965 q 169 888 143 913 q 232 863 194 863 q 328 928 290 863 q 301 1023 324 983 q 231 1063 278 1063 q 167 1033 190 1063 q 143 965 143 1003 z "},"⁽":{"ha":228,"x_min":36,"x_max":211,"o":"m 211 521 l 151 494 q 36 863 36 654 q 151 1231 36 1068 l 211 1206 q 135 863 135 1043 q 211 521 135 679 z "},"⁾":{"ha":228,"x_min":24,"x_max":199,"o":"m 83 1231 q 199 863 199 1068 q 83 494 199 657 l 24 521 q 100 863 100 682 q 24 1206 100 1043 l 83 1231 z "},"ⁿ":{"ha":492,"x_min":67,"x_max":425,"o":"m 425 453 l 324 453 l 324 742 q 258 814 324 814 q 168 757 206 814 l 168 453 l 67 453 l 67 889 l 168 889 l 168 832 q 226 880 189 860 q 303 900 263 900 q 425 772 425 900 l 425 453 z "},"₀":{"ha":469,"x_min":31,"x_max":439,"o":"m 388 277 q 413 235 388 277 q 439 75 439 193 q 388 -128 439 -43 q 236 -212 336 -212 q 83 -128 135 -212 q 31 75 31 -43 q 83 277 31 193 q 236 361 135 361 q 388 277 336 361 m 331 75 q 236 275 331 275 q 139 75 139 275 q 236 -126 139 -126 q 331 75 331 -126 z "},"₁":{"ha":343,"x_min":15,"x_max":269,"o":"m 269 -203 l 163 -203 l 163 215 l 76 126 l 15 190 l 176 353 l 269 353 l 269 -203 z "},"₂":{"ha":469,"x_min":43,"x_max":428,"o":"m 428 -203 l 54 -203 l 54 -124 q 267 83 215 22 q 318 193 318 143 q 293 253 318 232 q 231 275 268 275 q 104 206 150 275 l 43 271 q 235 361 113 361 q 372 318 318 361 q 425 199 425 275 q 374 68 425 135 q 197 -117 324 1 l 428 -117 l 428 -203 z "},"₃":{"ha":469,"x_min":38,"x_max":429,"o":"m 429 -50 q 376 -167 429 -122 q 233 -212 322 -212 q 38 -122 99 -212 l 100 -57 q 229 -126 149 -126 q 299 -104 275 -126 q 324 -44 324 -82 q 217 39 324 39 q 168 38 176 39 l 168 124 q 214 122 176 122 q 317 199 317 122 q 292 256 317 236 q 225 275 267 275 q 103 213 150 275 l 44 272 q 233 361 111 361 q 370 322 319 361 q 421 211 421 283 q 388 128 421 163 q 311 85 356 93 q 393 41 357 78 q 429 -50 429 4 z "},"₄":{"ha":469,"x_min":33,"x_max":439,"o":"m 439 -72 l 378 -72 l 378 -203 l 271 -203 l 271 -72 l 33 -72 l 33 7 l 239 353 l 378 353 l 378 13 l 439 13 l 439 -72 m 271 13 l 271 249 l 132 13 l 271 13 z "},"₅":{"ha":469,"x_min":39,"x_max":429,"o":"m 383 106 q 406 83 383 106 q 429 -24 429 60 q 374 -160 429 -107 q 231 -212 319 -212 q 39 -122 101 -212 l 101 -56 q 228 -126 151 -126 q 297 -97 271 -126 q 322 -26 322 -68 q 298 47 322 19 q 232 74 274 74 q 131 19 172 74 l 54 46 l 54 353 l 396 353 l 396 267 l 161 267 l 161 106 q 271 153 201 153 q 383 106 338 153 z "},"₆":{"ha":469,"x_min":35,"x_max":435,"o":"m 435 -25 q 383 -159 435 -106 q 247 -212 331 -212 q 87 -132 139 -212 q 35 75 35 -51 q 95 281 35 201 q 264 361 156 361 q 411 301 354 361 l 360 228 q 264 275 321 275 q 175 224 207 275 q 142 99 143 172 q 143 82 142 89 q 197 136 163 114 q 272 158 231 158 q 388 110 342 158 q 435 -25 435 61 m 328 -29 q 302 49 328 24 q 239 74 276 74 q 143 10 181 74 q 240 -126 153 -126 q 304 -97 281 -126 q 328 -29 328 -67 z "},"₇":{"ha":435,"x_min":31,"x_max":400,"o":"m 400 279 l 214 -203 l 103 -203 l 292 267 l 31 267 l 31 353 l 400 353 l 400 279 z "},"₈":{"ha":469,"x_min":38,"x_max":432,"o":"m 432 -61 q 377 -173 432 -133 q 235 -212 322 -212 q 92 -174 147 -212 q 38 -61 38 -135 q 72 28 38 -11 q 156 83 106 68 q 77 133 108 99 q 46 215 46 167 q 101 324 46 288 q 235 361 157 361 q 368 324 313 361 q 424 215 424 288 q 392 133 424 167 q 314 83 361 99 q 397 28 363 68 q 432 -61 432 -12 m 318 201 q 296 258 318 238 q 235 278 274 278 q 173 258 196 278 q 150 201 150 238 q 169 156 150 175 q 204 128 188 136 q 235 118 221 121 q 290 144 261 124 q 318 201 318 164 m 326 -51 q 293 17 326 -8 q 235 44 260 43 q 176 17 210 43 q 143 -51 143 -8 q 169 -110 143 -89 q 235 -131 194 -131 q 300 -110 274 -131 q 326 -51 326 -89 z "},"₉":{"ha":469,"x_min":36,"x_max":436,"o":"m 36 174 q 88 308 36 254 q 225 361 140 361 q 384 281 332 361 q 436 74 436 200 q 376 -133 436 -54 q 207 -212 317 -212 q 61 -153 117 -212 l 111 -79 q 207 -126 147 -126 q 295 -75 263 -126 q 328 51 328 -24 l 328 67 q 274 13 308 35 q 199 -10 240 -10 q 83 39 131 -10 q 36 174 36 88 m 143 178 q 169 100 143 125 q 232 75 194 75 q 328 140 290 75 q 301 235 324 196 q 231 275 278 275 q 167 245 190 275 q 143 178 143 215 z "},"₍":{"ha":228,"x_min":36,"x_max":211,"o":"m 211 -267 l 151 -293 q 36 75 36 -133 q 151 443 36 281 l 211 418 q 135 75 135 256 q 211 -267 135 -108 z "},"₎":{"ha":228,"x_min":24,"x_max":199,"o":"m 83 443 q 199 75 199 281 q 83 -293 199 -131 l 24 -267 q 100 75 100 -106 q 24 418 100 256 l 83 443 z "},"₡":{"ha":754,"x_min":54,"x_max":729,"o":"m 433 -17 q 425 -16 431 -17 q 417 -15 419 -15 l 383 -139 l 301 -139 l 338 -4 q 264 25 297 7 l 219 -139 l 138 -139 l 194 75 q 54 463 54 208 q 156 806 54 672 q 428 942 257 939 l 461 1067 l 543 1067 l 507 933 q 582 906 547 925 l 625 1067 l 708 1067 l 650 853 q 728 738 694 807 l 604 682 l 453 119 q 601 256 557 133 l 729 200 q 433 -17 632 -17 m 304 175 q 374 129 333 144 l 543 763 q 471 800 511 792 l 304 175 m 211 463 q 246 265 211 344 l 389 800 q 259 688 307 779 q 211 463 211 596 z "},"₣":{"ha":661,"x_min":19,"x_max":614,"o":"m 258 0 l 106 0 l 106 172 l 19 172 l 19 254 l 106 254 l 106 926 l 614 926 l 614 792 l 258 792 l 258 540 l 604 540 l 604 406 l 258 406 l 258 254 l 447 254 l 447 172 l 258 172 l 258 0 z "},"₤":{"ha":656,"x_min":36,"x_max":640,"o":"m 36 458 l 36 535 l 94 535 q 65 664 65 597 q 151 860 65 781 q 351 940 236 940 q 513 897 446 940 q 610 772 581 854 l 488 710 q 363 814 454 814 q 269 772 308 814 q 231 661 231 731 q 264 535 231 594 l 456 535 l 456 458 l 308 458 q 339 372 333 410 l 456 372 l 456 297 l 339 297 q 251 151 324 207 q 313 164 276 164 q 398 142 350 164 q 476 119 446 119 q 586 168 551 119 l 640 46 q 467 -18 582 -18 q 348 13 408 -18 q 251 43 288 43 q 113 -10 194 43 l 64 99 q 166 185 128 133 q 204 293 204 238 l 204 297 l 36 297 l 36 372 l 188 372 q 139 458 178 394 l 36 458 z "},"₦":{"ha":858,"x_min":19,"x_max":829,"o":"m 753 0 l 606 0 l 422 329 l 258 329 l 258 0 l 106 0 l 106 329 l 19 329 l 19 411 l 106 411 l 106 524 l 19 524 l 19 606 l 106 606 l 106 926 l 261 926 l 439 606 l 599 606 l 599 926 l 753 926 l 753 606 l 829 606 l 829 524 l 753 524 l 753 411 l 829 411 l 829 329 l 753 329 l 753 0 m 258 625 l 258 411 l 376 411 l 258 625 m 485 524 l 599 319 l 599 524 l 485 524 z "},"₧":{"ha":785,"x_min":19,"x_max":774,"o":"m 774 596 l 693 596 q 610 420 681 489 q 421 351 539 351 l 258 351 l 258 0 l 106 0 l 106 596 l 19 596 l 19 683 l 106 683 l 106 926 l 421 926 q 609 858 539 926 q 693 683 679 790 l 774 683 l 774 596 m 403 486 q 489 515 454 486 q 535 596 524 544 l 258 596 l 258 486 l 403 486 m 258 792 l 258 683 l 533 683 q 488 763 522 733 q 403 792 453 792 l 258 792 z "},"₨":{"ha":1240,"x_min":89,"x_max":1200,"o":"m 688 0 l 515 0 l 357 350 l 242 350 l 242 0 l 89 0 l 89 926 l 408 926 q 605 847 529 926 q 681 640 681 768 q 629 463 681 529 q 507 376 578 396 l 688 0 m 386 486 q 485 528 449 486 q 522 639 522 569 q 485 750 522 708 q 386 792 449 792 l 242 792 l 242 486 l 386 486 m 957 -17 q 711 79 800 -17 l 774 176 q 854 117 806 140 q 954 93 903 93 q 1037 117 1007 93 q 1067 181 1067 140 q 1033 239 1067 215 q 949 279 999 263 q 851 317 900 296 q 767 383 801 338 q 733 496 733 428 q 796 633 733 578 q 965 688 858 688 q 1188 601 1097 688 l 1128 507 q 967 578 1069 578 q 892 556 921 578 q 864 500 864 533 q 899 446 864 468 q 983 408 933 424 q 1081 369 1032 392 q 1165 300 1131 347 q 1200 185 1200 253 q 1134 40 1200 96 q 957 -17 1068 -17 z "},"₩":{"ha":1060,"x_min":25,"x_max":1035,"o":"m 825 0 l 664 0 l 597 329 l 463 329 l 396 0 l 236 0 l 161 329 l 31 329 l 31 411 l 142 411 l 117 524 l 31 524 l 31 606 l 97 606 l 25 926 l 190 926 l 251 606 l 401 606 l 468 926 l 592 926 l 658 606 l 807 606 l 869 926 l 1035 926 l 963 606 l 1019 606 l 1019 524 l 943 524 l 918 411 l 1019 411 l 1019 329 l 899 329 l 825 0 m 675 524 l 736 236 l 792 524 l 675 524 m 268 524 l 324 236 l 383 524 l 268 524 m 531 664 l 479 411 l 581 411 l 531 664 z "},"₪":{"ha":953,"x_min":82,"x_max":871,"o":"m 378 764 q 583 694 517 764 q 649 476 649 624 l 649 225 l 531 225 l 531 494 q 494 615 531 576 q 378 654 457 654 l 200 654 l 200 0 l 82 0 l 82 764 l 378 764 m 600 0 l 304 0 l 304 538 l 422 538 l 422 110 l 600 110 q 716 149 679 110 q 753 269 753 188 l 753 764 l 871 764 l 871 288 q 805 70 871 140 q 600 0 739 0 z "},"€":{"ha":788,"x_min":29,"x_max":756,"o":"m 460 -17 q 222 75 318 -17 q 94 321 125 167 l 29 321 l 29 411 l 82 411 q 81 463 81 428 q 82 518 81 500 l 29 518 l 29 607 l 94 607 q 222 851 126 761 q 460 942 318 942 q 754 738 657 942 l 628 681 q 460 806 571 806 q 333 752 386 806 q 254 607 279 699 l 519 607 l 519 518 l 240 518 q 238 463 238 482 q 239 411 238 428 l 519 411 l 519 321 l 254 321 q 331 174 278 228 q 460 119 385 119 q 561 157 518 119 q 628 256 604 194 l 756 200 q 460 -17 658 -17 z "},"ℓ":{"ha":633,"x_min":88,"x_max":603,"o":"m 88 697 l 88 150 q 242 -17 88 -17 q 363 22 322 -17 l 329 114 q 276 92 307 92 q 225 165 225 92 l 225 356 l 453 533 q 567 644 531 594 q 603 751 603 693 q 529 888 603 835 q 354 940 456 940 q 161 872 235 940 q 88 697 88 803 m 378 614 l 225 496 l 225 696 q 260 801 225 763 q 354 839 296 839 q 437 813 403 839 q 471 747 471 788 q 449 684 471 713 q 378 614 428 656 z "},"№":{"ha":1315,"x_min":89,"x_max":1274,"o":"m 736 0 l 589 0 l 242 625 l 242 0 l 89 0 l 89 926 l 244 926 l 582 319 l 582 926 l 736 926 l 736 0 m 1069 486 q 922 553 976 486 q 868 715 868 619 q 922 878 868 813 q 1069 944 976 944 q 1219 878 1165 944 q 1274 715 1274 813 q 1219 553 1274 619 q 1069 486 1164 486 m 1069 569 q 1143 610 1118 569 q 1168 715 1168 650 q 1143 820 1168 781 q 1069 860 1118 860 q 998 819 1022 860 q 974 715 974 779 q 998 610 974 650 q 1069 569 1022 569 z "},"℗":{"ha":1081,"x_min":61,"x_max":1019,"o":"m 879 802 q 949 732 879 802 q 1019 464 1019 661 q 879 126 1019 267 q 540 -15 739 -15 q 201 126 342 -15 q 61 464 61 267 q 201 802 61 661 q 540 943 342 943 q 879 802 739 943 m 846 158 q 910 222 846 158 q 974 464 974 286 q 846 769 974 642 q 540 897 718 897 q 235 769 363 897 q 108 464 108 642 q 235 158 108 286 q 540 31 363 31 q 846 158 718 31 m 767 581 q 716 464 767 508 q 592 419 665 419 l 436 419 l 436 182 l 379 182 l 379 744 l 592 744 q 715 700 664 744 q 767 581 767 656 m 708 581 q 675 661 708 631 q 592 692 642 692 l 436 692 l 436 471 l 592 471 q 675 501 642 471 q 708 581 708 532 z "},"℠":{"ha":590,"x_min":21,"x_max":539,"o":"m 539 621 l 500 621 l 500 874 l 410 621 l 399 621 l 308 874 l 308 621 l 269 621 l 269 926 l 329 926 l 404 707 l 479 926 l 539 926 l 539 621 m 215 700 q 189 635 215 660 q 117 611 163 611 q 21 651 57 611 l 43 683 q 114 647 74 647 q 157 661 142 647 q 172 697 172 675 q 150 740 172 722 q 100 765 128 757 q 50 796 72 774 q 28 851 28 818 q 54 911 28 888 q 121 935 81 935 q 208 901 178 935 l 188 872 q 124 900 163 900 q 87 888 101 900 q 72 854 72 875 q 94 817 72 832 q 144 792 117 801 q 193 759 171 782 q 215 700 215 736 z "},"™":{"ha":575,"x_min":24,"x_max":526,"o":"m 526 621 l 488 621 l 488 874 l 397 621 l 386 621 l 296 874 l 296 621 l 257 621 l 257 926 l 317 926 l 392 707 l 467 926 l 526 926 l 526 621 m 207 890 l 135 890 l 135 621 l 96 621 l 96 890 l 24 890 l 24 926 l 207 926 l 207 890 z "},"℮":{"ha":1169,"x_min":43,"x_max":1126,"o":"m 1126 450 l 249 450 q 242 443 242 450 l 242 179 q 254 147 242 160 q 588 4 390 4 q 935 164 797 4 l 1014 164 q 826 26 939 76 q 585 -25 714 -25 q 202 118 361 -25 q 43 463 43 261 q 202 807 43 664 q 585 950 361 950 q 967 807 808 950 q 1126 463 1126 664 l 1126 450 m 928 485 l 928 750 q 914 783 928 769 q 588 921 779 921 q 256 779 393 921 q 242 746 242 765 l 242 485 q 249 476 242 476 l 922 476 q 928 485 928 476 z "},"⅓":{"ha":1038,"x_min":15,"x_max":997,"o":"m 756 926 l 267 0 l 189 0 l 676 926 l 756 926 m 997 153 q 944 35 997 81 q 801 -10 890 -10 q 606 81 667 -10 l 668 146 q 797 76 717 76 q 867 99 843 76 q 892 158 892 121 q 785 242 892 242 q 736 240 744 242 l 736 326 q 782 325 744 325 q 885 401 885 325 q 860 458 885 439 q 793 478 835 478 q 671 415 719 478 l 613 475 q 801 564 679 564 q 938 525 888 564 q 989 414 989 486 q 956 331 989 365 q 879 288 924 296 q 961 244 925 281 q 997 153 997 207 m 269 371 l 163 371 l 163 789 l 76 700 l 15 764 l 176 926 l 269 926 l 269 371 z "},"⅔":{"ha":1132,"x_min":43,"x_max":1090,"o":"m 849 926 l 360 0 l 282 0 l 769 926 l 849 926 m 1090 153 q 1037 35 1090 81 q 894 -10 983 -10 q 699 81 760 -10 l 761 146 q 890 76 810 76 q 960 99 936 76 q 985 158 985 121 q 878 242 985 242 q 829 240 838 242 l 829 326 q 875 325 838 325 q 978 401 978 325 q 953 458 978 439 q 886 478 928 478 q 764 415 811 478 l 706 475 q 894 564 772 564 q 1031 525 981 564 q 1082 414 1082 486 q 1049 331 1082 365 q 972 288 1017 296 q 1054 244 1018 281 q 1090 153 1090 207 m 428 371 l 54 371 l 54 450 q 267 656 215 596 q 318 767 318 717 q 293 827 318 806 q 231 849 268 849 q 104 779 150 849 l 43 844 q 235 935 113 935 q 372 892 318 935 q 425 772 425 849 q 374 642 425 708 q 197 457 324 575 l 428 457 l 428 371 z "},"⅛":{"ha":1038,"x_min":15,"x_max":1000,"o":"m 756 926 l 267 0 l 189 0 l 676 926 l 756 926 m 1000 142 q 945 30 1000 69 q 803 -10 890 -10 q 660 29 715 -10 q 606 142 606 68 q 640 231 606 192 q 724 286 674 271 q 645 335 676 301 q 614 418 614 369 q 669 527 614 490 q 803 564 725 564 q 936 527 881 564 q 992 418 992 490 q 960 335 992 369 q 882 286 929 301 q 965 231 931 271 q 1000 142 1000 190 m 886 404 q 864 460 886 440 q 803 481 842 481 q 741 460 764 481 q 718 404 718 440 q 737 358 718 378 q 772 331 756 339 q 803 321 789 324 q 858 347 829 326 q 886 404 886 367 m 894 151 q 861 220 894 194 q 803 247 828 246 q 744 220 778 246 q 711 151 711 194 q 737 93 711 114 q 803 72 763 72 q 868 93 842 72 q 894 151 894 114 m 269 371 l 163 371 l 163 789 l 76 700 l 15 764 l 176 926 l 269 926 l 269 371 z "},"⅜":{"ha":1132,"x_min":38,"x_max":1093,"o":"m 849 926 l 360 0 l 282 0 l 769 926 l 849 926 m 1093 142 q 1038 30 1093 69 q 896 -10 983 -10 q 753 29 808 -10 q 699 142 699 68 q 733 231 699 192 q 817 286 767 271 q 738 335 769 301 q 707 418 707 369 q 763 527 707 490 q 896 564 818 564 q 1029 527 974 564 q 1085 418 1085 490 q 1053 335 1085 369 q 975 286 1022 301 q 1058 231 1024 271 q 1093 142 1093 190 m 979 404 q 957 460 979 440 q 896 481 935 481 q 834 460 857 481 q 811 404 811 440 q 830 358 811 378 q 865 331 849 339 q 896 321 882 324 q 951 347 922 326 q 979 404 979 367 m 988 151 q 954 220 988 194 q 896 247 921 246 q 838 220 871 246 q 804 151 804 194 q 830 93 804 114 q 896 72 856 72 q 961 93 935 72 q 988 151 988 114 m 429 524 q 376 406 429 451 q 233 361 322 361 q 38 451 99 361 l 100 517 q 229 447 149 447 q 299 469 275 447 q 324 529 324 492 q 217 613 324 613 q 168 611 176 613 l 168 697 q 214 696 176 696 q 317 772 317 696 q 292 829 317 810 q 225 849 267 849 q 103 786 150 849 l 44 846 q 233 935 111 935 q 370 896 319 935 q 421 785 421 857 q 388 701 421 736 q 311 658 356 667 q 393 615 357 651 q 429 524 429 578 z "},"⅝":{"ha":1125,"x_min":39,"x_max":1088,"o":"m 843 926 l 354 0 l 276 0 l 764 926 l 843 926 m 1088 142 q 1033 30 1088 69 q 890 -10 978 -10 q 748 29 803 -10 q 693 142 693 68 q 727 231 693 192 q 811 286 761 271 q 733 335 764 301 q 701 418 701 369 q 757 527 701 490 q 890 564 813 564 q 1024 527 968 564 q 1079 418 1079 490 q 1048 335 1079 369 q 969 286 1017 301 q 1053 231 1018 271 q 1088 142 1088 190 m 974 404 q 951 460 974 440 q 890 481 929 481 q 828 460 851 481 q 806 404 806 440 q 824 358 806 378 q 860 331 843 339 q 890 321 876 324 q 945 347 917 326 q 974 404 974 367 m 982 151 q 949 220 982 194 q 890 247 915 246 q 832 220 865 246 q 799 151 799 194 q 824 93 799 114 q 890 72 850 72 q 956 93 929 72 q 982 151 982 114 m 383 680 q 406 657 383 680 q 429 550 429 633 q 374 414 429 467 q 231 361 319 361 q 39 451 101 361 l 101 518 q 228 447 151 447 q 297 476 271 447 q 322 547 322 506 q 298 620 322 593 q 232 647 274 647 q 131 593 172 647 l 54 619 l 54 926 l 396 926 l 396 840 l 161 840 l 161 679 q 271 726 201 726 q 383 680 338 726 z "},"⅞":{"ha":1035,"x_min":31,"x_max":996,"o":"m 751 926 l 263 0 l 185 0 l 672 926 l 751 926 m 996 142 q 941 30 996 69 q 799 -10 886 -10 q 656 29 711 -10 q 601 142 601 68 q 635 231 601 192 q 719 286 669 271 q 641 335 672 301 q 610 418 610 369 q 665 527 610 490 q 799 564 721 564 q 932 527 876 564 q 988 418 988 490 q 956 335 988 369 q 878 286 925 301 q 961 231 926 271 q 996 142 996 190 m 882 404 q 860 460 882 440 q 799 481 838 481 q 737 460 760 481 q 714 404 714 440 q 733 358 714 378 q 768 331 751 339 q 799 321 785 324 q 853 347 825 326 q 882 404 882 367 m 890 151 q 857 220 890 194 q 799 247 824 246 q 740 220 774 246 q 707 151 707 194 q 733 93 707 114 q 799 72 758 72 q 864 93 838 72 q 890 151 890 114 m 400 853 l 214 371 l 103 371 l 292 840 l 31 840 l 31 926 l 400 926 l 400 853 z "},"←":{"ha":808,"x_min":0,"x_max":747,"o":"m 747 293 l 374 293 l 390 113 l 0 397 l 390 681 l 374 501 l 747 501 l 747 293 z "},"↑":{"ha":808,"x_min":119,"x_max":688,"o":"m 300 24 l 300 397 l 119 381 l 404 771 l 688 381 l 508 397 l 508 24 l 300 24 z "},"→":{"ha":808,"x_min":65,"x_max":811,"o":"m 811 397 l 421 113 l 438 293 l 65 293 l 65 501 l 438 501 l 421 681 l 811 397 z "},"↓":{"ha":808,"x_min":121,"x_max":689,"o":"m 508 771 l 508 397 l 689 414 l 404 24 l 121 414 l 300 397 l 300 771 l 508 771 z "},"∂":{"ha":681,"x_min":49,"x_max":632,"o":"m 340 -17 q 126 80 203 -17 q 49 319 49 176 q 118 556 49 458 q 301 653 188 653 q 471 551 413 653 q 383 730 443 643 q 240 879 324 817 l 353 947 q 554 680 476 835 q 632 343 632 525 q 556 84 632 185 q 340 -17 479 -17 m 230 167 q 249 136 230 167 q 340 106 268 106 q 450 167 413 106 q 488 319 488 228 q 450 471 488 410 q 340 532 413 532 q 230 471 268 532 q 192 319 192 410 q 230 167 192 228 z "},"∏":{"ha":857,"x_min":32,"x_max":824,"o":"m 714 -125 l 560 -125 l 560 792 l 296 792 l 296 -125 l 143 -125 l 143 792 l 32 792 l 32 926 l 824 926 l 824 792 l 714 792 l 714 -125 z "},"∑":{"ha":647,"x_min":60,"x_max":592,"o":"m 464 414 l 236 792 l 592 792 l 592 926 l 61 926 l 61 792 l 290 414 l 60 14 l 60 -125 l 592 -125 l 592 10 l 231 10 l 464 414 z "},"−":{"ha":613,"x_min":40,"x_max":572,"o":"m 572 419 l 40 419 l 40 510 l 572 510 l 572 419 z "},"√":{"ha":813,"x_min":69,"x_max":781,"o":"m 489 0 l 392 0 l 260 432 l 92 381 l 69 467 l 324 542 l 443 140 l 682 926 l 781 926 l 489 0 z "},"∞":{"ha":807,"x_min":40,"x_max":767,"o":"m 229 229 q 88 299 136 229 q 40 465 40 369 q 88 633 40 563 q 229 703 136 703 q 333 663 289 703 q 403 558 376 622 q 475 663 429 622 q 578 703 521 703 q 719 633 671 703 q 767 465 767 563 q 719 299 767 369 q 578 229 671 229 q 475 269 521 229 q 403 374 429 310 q 333 269 376 308 q 229 229 289 229 m 565 318 q 645 359 615 318 q 675 465 675 400 q 645 573 675 532 q 565 614 615 614 q 443 465 486 614 q 565 318 486 318 m 243 318 q 364 465 321 318 q 243 614 321 614 q 163 573 193 614 q 132 465 132 532 q 163 359 132 400 q 243 318 193 318 z "},"∫":{"ha":417,"x_min":24,"x_max":393,"o":"m 86 -139 l 24 -139 l 24 -43 l 86 -43 q 136 -19 115 -43 q 157 42 157 4 l 157 886 q 209 1016 157 965 q 332 1067 261 1067 l 393 1067 l 393 971 l 332 971 q 281 947 301 971 q 260 886 260 924 l 260 42 q 208 -88 260 -37 q 86 -139 156 -139 z "},"≈":{"ha":613,"x_min":40,"x_max":572,"o":"m 40 286 l 40 383 q 174 347 101 347 q 299 378 228 347 q 439 410 371 410 q 572 382 514 410 l 572 285 q 439 319 515 319 q 313 289 383 319 q 174 258 242 258 q 40 286 99 258 m 40 546 l 40 643 q 174 608 100 608 q 299 639 228 608 q 439 669 371 669 q 572 642 514 669 l 572 544 q 439 581 513 581 q 313 549 383 581 q 174 518 242 518 q 40 546 99 518 z "},"≠":{"ha":613,"x_min":40,"x_max":572,"o":"m 169 129 l 92 129 l 174 286 l 40 286 l 40 376 l 221 376 l 314 551 l 40 551 l 40 642 l 361 642 l 443 797 l 522 797 l 440 642 l 572 642 l 572 551 l 392 551 l 300 376 l 572 376 l 572 286 l 251 286 l 169 129 z "},"≤":{"ha":613,"x_min":40,"x_max":572,"o":"m 572 182 l 40 425 l 40 524 l 572 768 l 572 661 l 147 474 l 572 289 l 572 182 m 572 22 l 40 22 l 40 113 l 572 113 l 572 22 z "},"≥":{"ha":613,"x_min":40,"x_max":572,"o":"m 572 425 l 40 182 l 40 289 l 467 474 l 40 661 l 40 768 l 572 524 l 572 425 m 572 22 l 40 22 l 40 113 l 572 113 l 572 22 z "},"⊲":{"ha":815,"x_min":75,"x_max":818,"o":"m 818 397 l 75 -32 l 75 826 l 818 397 z "},"⊳":{"ha":815,"x_min":0,"x_max":743,"o":"m 743 826 l 743 -32 l 0 397 l 743 826 z "},"⌘":{"ha":926,"x_min":58,"x_max":868,"o":"m 310 214 l 310 311 l 213 311 q 144 283 172 311 q 117 214 117 254 q 144 144 117 174 q 213 115 172 115 q 281 144 253 115 q 310 214 310 174 m 310 615 l 310 714 q 282 783 310 754 q 214 811 254 811 q 145 783 174 811 q 117 714 117 754 q 145 644 117 674 q 214 615 174 615 l 310 615 m 368 368 l 558 368 l 558 558 l 368 558 l 368 368 m 782 144 q 796 159 782 144 q 810 214 810 174 q 782 283 810 254 q 714 311 754 311 l 617 311 l 617 214 q 645 144 617 174 q 714 115 674 115 q 782 144 754 115 m 782 644 q 796 659 782 644 q 810 714 810 674 q 782 783 810 754 q 714 811 754 811 q 645 783 674 811 q 617 714 617 754 l 617 615 l 714 615 q 782 644 754 615 m 823 323 q 845 300 823 323 q 868 214 868 278 q 823 104 868 150 q 714 58 778 58 q 604 104 650 58 q 558 214 558 150 l 558 311 l 368 311 l 368 214 q 322 104 368 150 q 213 58 276 58 q 103 104 149 58 q 58 214 58 150 q 103 323 58 278 q 213 368 149 368 l 310 368 l 310 558 l 214 558 q 104 604 150 558 q 58 714 58 650 q 104 823 58 778 q 214 868 150 868 q 323 823 278 868 q 368 714 368 778 l 368 615 l 558 615 l 558 714 q 604 823 558 778 q 714 868 650 868 q 823 823 778 868 q 868 714 868 778 q 823 604 868 650 q 714 558 778 558 l 617 558 l 617 368 l 714 368 q 823 323 778 368 z "},"■":{"ha":918,"x_min":65,"x_max":858,"o":"m 858 0 l 65 0 l 65 794 l 858 794 l 858 0 z "},"▲":{"ha":856,"x_min":-3,"x_max":857,"o":"m 857 40 l -3 42 l 426 785 l 857 40 z "},"▼":{"ha":856,"x_min":-3,"x_max":857,"o":"m 857 708 l 426 -35 l -3 708 l 857 708 z "},"◊":{"ha":521,"x_min":26,"x_max":494,"o":"m 275 0 l 246 0 l 26 464 l 246 926 l 275 926 l 494 464 l 275 0 m 261 57 l 444 464 l 260 869 l 76 464 l 261 57 z "},"●":{"ha":965,"x_min":69,"x_max":894,"o":"m 774 688 q 834 627 774 688 q 894 396 894 567 q 774 104 894 225 q 482 -17 653 -17 q 190 104 311 -17 q 69 396 69 225 q 190 688 69 567 q 482 808 311 808 q 774 688 653 808 z "},"★":{"ha":1054,"x_min":0,"x_max":1054,"o":"m 1054 585 l 728 347 l 853 -35 l 526 201 l 201 -35 l 325 347 l 0 585 l 403 585 l 526 968 l 651 585 l 1054 585 z "},"☐":{"ha":918,"x_min":63,"x_max":856,"o":"m 856 0 l 63 0 l 63 794 l 856 794 l 856 0 m 758 90 l 758 704 l 160 704 l 160 90 l 758 90 z "},"☑":{"ha":918,"x_min":63,"x_max":949,"o":"m 949 969 l 853 794 l 856 794 l 856 0 l 63 0 l 63 794 l 749 794 l 871 1018 l 949 969 m 758 90 l 758 618 l 492 126 l 211 468 l 282 533 l 478 293 l 700 704 l 160 704 l 160 90 l 758 90 z "},"♦":{"ha":696,"x_min":0,"x_max":696,"o":"m 696 396 l 347 49 l 0 396 l 347 744 l 696 396 z "},"✓":{"ha":738,"x_min":0,"x_max":738,"o":"m 738 969 l 281 126 l 0 468 l 71 533 l 267 293 l 660 1018 l 738 969 z "},"":{"ha":1060,"x_min":22,"x_max":994,"o":"m 247 0 l 110 0 l 110 550 l 22 550 l 22 671 l 110 671 l 110 732 q 160 885 110 831 q 299 940 210 940 q 432 893 385 940 l 386 794 q 324 821 361 821 q 267 797 288 821 q 247 732 247 774 l 247 671 l 358 671 l 358 550 l 247 550 l 247 0 m 626 0 l 489 0 l 489 550 l 401 550 l 401 671 l 489 671 l 489 732 q 538 885 489 831 q 671 940 588 940 q 772 918 732 940 l 744 808 q 701 821 728 821 q 647 797 667 821 q 626 732 626 774 l 626 671 l 738 671 l 738 550 l 626 550 l 626 0 m 969 781 q 957 768 969 781 q 908 756 944 756 q 847 781 872 756 q 821 842 821 807 q 847 903 821 878 q 908 928 872 928 q 969 903 944 928 q 994 842 994 878 q 969 781 994 806 m 781 -272 q 663 -229 710 -272 l 701 -122 q 767 -153 729 -153 q 839 -57 839 -153 l 839 671 l 976 671 l 976 -57 q 781 -272 976 -272 z "},"":{"ha":681,"x_min":22,"x_max":617,"o":"m 247 0 l 110 0 l 110 550 l 22 550 l 22 671 l 110 671 l 110 732 q 159 885 110 831 q 292 940 208 940 q 393 918 353 940 l 365 808 q 322 821 349 821 q 267 797 288 821 q 247 732 247 774 l 247 671 l 358 671 l 358 550 l 247 550 l 247 0 m 592 781 q 579 768 592 781 q 531 756 567 756 q 469 781 494 756 q 443 842 443 807 q 469 903 443 878 q 531 928 494 928 q 592 903 567 928 q 617 842 617 878 q 592 781 617 806 m 403 -272 q 285 -229 332 -272 l 324 -122 q 389 -153 351 -153 q 461 -57 461 -153 l 461 671 l 599 671 l 599 -57 q 403 -272 599 -272 z "},"":{"ha":1110,"x_min":29,"x_max":1081,"o":"m 317 726 q 340 698 317 726 q 363 589 363 671 q 317 453 363 507 q 196 399 271 399 q 76 453 122 399 q 29 589 29 507 q 76 726 29 671 q 196 781 122 781 q 317 726 271 781 m 671 312 q 694 284 671 312 q 717 175 717 257 q 671 39 717 93 q 551 -15 625 -15 q 431 39 476 -15 q 385 175 385 93 q 431 313 385 258 q 551 367 476 367 q 671 312 625 367 m 633 764 l 196 0 l 121 0 l 557 764 l 633 764 m 275 589 q 253 673 275 640 q 196 706 232 706 q 139 672 161 706 q 117 589 117 639 q 139 507 117 539 q 196 475 161 475 q 253 507 232 475 q 275 589 275 539 m 631 175 q 608 259 631 226 q 551 292 586 292 q 493 259 515 292 q 471 175 471 226 q 493 93 471 125 q 551 61 515 61 q 608 93 586 61 q 631 175 631 125 m 1034 312 q 1057 284 1034 312 q 1081 175 1081 257 q 1034 39 1081 93 q 914 -15 988 -15 q 794 40 840 -15 q 747 175 747 94 q 794 312 747 257 q 914 367 840 367 q 1034 312 988 367 m 994 175 q 972 259 994 226 q 914 292 950 292 q 856 259 878 292 q 835 175 835 226 q 856 93 835 125 q 914 61 878 61 q 972 93 950 61 q 994 175 994 125 z "},"":{"ha":726,"x_min":51,"x_max":678,"o":"m 364 -17 q 188 51 260 -17 l 160 0 l 58 0 l 128 128 q 51 463 51 261 q 81 690 51 586 q 184 867 111 794 q 364 940 257 940 q 538 874 464 940 l 567 926 l 668 926 l 599 799 q 678 463 678 665 q 660 290 678 372 q 606 137 642 207 q 508 25 571 67 q 364 -17 446 -17 m 364 119 q 521 463 521 119 q 507 633 521 560 l 260 182 q 364 119 297 119 m 208 463 q 221 296 208 360 l 467 744 q 364 804 429 804 q 208 463 208 804 z "},"":{"ha":719,"x_min":47,"x_max":674,"o":"m 360 -17 q 217 25 279 -17 q 119 137 154 67 q 65 290 83 207 q 47 463 47 372 q 77 690 47 586 q 180 867 107 794 q 360 940 253 940 q 540 867 467 940 q 644 690 614 794 q 674 463 674 586 q 656 290 674 372 q 602 137 638 207 q 504 25 567 67 q 360 -17 442 -17 m 360 119 q 517 463 517 119 q 360 804 517 804 q 204 463 204 804 q 360 119 204 119 z "},"":{"ha":719,"x_min":64,"x_max":651,"o":"m 651 0 l 79 0 l 79 125 q 418 491 344 397 q 492 669 492 585 q 452 767 492 731 q 356 804 413 804 q 158 694 233 804 l 64 790 q 358 940 172 940 q 565 867 483 940 q 647 671 647 794 q 574 458 647 567 q 303 135 500 350 l 651 135 l 651 0 z "},"":{"ha":719,"x_min":54,"x_max":656,"o":"m 354 -17 q 176 26 254 -17 q 54 135 97 68 l 150 229 q 349 119 225 119 q 464 159 425 119 q 503 267 503 199 q 339 406 503 406 q 260 403 288 406 l 260 542 q 336 540 274 540 q 448 573 406 540 q 490 669 490 606 q 451 769 490 735 q 344 804 411 804 q 157 704 232 804 l 65 792 q 356 940 167 940 q 564 876 486 940 q 642 692 642 811 q 592 552 642 611 q 471 479 542 493 q 599 406 543 468 q 656 253 656 344 q 574 58 656 132 q 354 -17 493 -17 z "},"":{"ha":719,"x_min":46,"x_max":669,"o":"m 572 0 l 419 0 l 419 214 l 46 214 l 46 346 l 376 926 l 572 926 l 572 350 l 669 350 l 669 214 l 572 214 l 572 0 m 419 350 l 419 765 l 185 350 l 419 350 z "},"":{"ha":719,"x_min":63,"x_max":661,"o":"m 357 -17 q 63 132 164 -17 l 158 229 q 353 119 229 119 q 463 169 421 119 q 506 290 506 219 q 467 416 506 371 q 360 461 428 461 q 200 381 267 461 l 88 413 l 88 926 l 610 926 l 610 792 l 242 792 l 242 515 q 413 594 306 594 q 590 515 519 594 q 661 294 661 435 q 577 70 661 157 q 357 -17 493 -17 z "},"":{"ha":719,"x_min":60,"x_max":669,"o":"m 382 -17 q 258 9 313 -17 q 166 78 203 35 q 105 184 129 122 q 70 315 81 246 q 60 463 60 383 q 149 806 60 671 q 407 940 239 940 q 635 833 553 940 l 557 722 q 408 804 500 804 q 266 710 317 804 q 215 488 215 617 l 215 465 q 297 555 242 518 q 417 592 351 592 q 597 513 525 592 q 669 293 669 435 q 590 72 669 161 q 382 -17 511 -17 m 374 119 q 477 170 440 119 q 514 288 514 221 q 474 417 514 375 q 371 460 433 460 q 283 427 324 460 q 217 344 243 394 q 228 268 219 304 q 253 197 236 232 q 301 140 269 161 q 374 119 332 119 z "},"":{"ha":719,"x_min":78,"x_max":642,"o":"m 347 0 l 181 0 l 468 792 l 78 792 l 78 926 l 642 926 l 642 819 l 347 0 z "},"":{"ha":719,"x_min":58,"x_max":661,"o":"m 360 -17 q 141 50 224 -17 q 58 233 58 117 q 111 383 58 317 q 240 478 164 449 q 119 562 168 504 q 71 701 71 619 q 156 879 71 818 q 360 940 240 940 q 563 879 478 940 q 647 701 647 818 q 599 562 647 619 q 479 478 551 504 q 608 383 554 449 q 661 233 661 317 q 578 50 661 117 q 360 -17 494 -17 m 360 533 q 448 579 403 543 q 493 676 493 615 q 456 769 493 735 q 360 804 419 804 q 262 769 299 804 q 225 676 225 735 q 270 579 225 615 q 360 533 315 543 m 360 119 q 464 156 422 119 q 506 254 506 192 q 453 366 506 322 q 360 415 401 410 q 265 366 317 410 q 213 254 213 322 q 254 156 213 192 q 360 119 296 119 z "},"":{"ha":719,"x_min":51,"x_max":661,"o":"m 314 -15 q 86 92 168 -15 l 164 203 q 313 121 221 121 q 456 215 406 121 q 506 438 506 308 l 506 460 q 424 370 479 407 q 304 333 369 333 q 124 412 196 333 q 51 632 51 490 q 131 853 51 764 q 339 942 210 942 q 463 916 408 942 q 555 847 518 890 q 616 741 592 803 q 651 610 640 679 q 661 463 661 542 q 572 119 661 254 q 314 -15 482 -15 m 350 465 q 504 581 443 465 q 488 683 501 636 q 438 767 474 729 q 349 806 403 806 q 244 755 281 806 q 207 638 207 704 q 247 508 207 550 q 350 465 288 465 z "},"":{"ha":746,"x_min":29,"x_max":717,"o":"m 317 726 q 340 698 317 726 q 363 589 363 671 q 317 453 363 507 q 196 399 271 399 q 76 453 122 399 q 29 589 29 507 q 76 726 29 671 q 196 781 122 781 q 317 726 271 781 m 671 312 q 694 284 671 312 q 717 175 717 257 q 671 39 717 93 q 551 -15 625 -15 q 431 39 476 -15 q 385 175 385 93 q 431 313 385 258 q 551 367 476 367 q 671 312 625 367 m 631 764 l 192 0 l 117 0 l 554 764 l 631 764 m 275 589 q 253 673 275 640 q 196 706 232 706 q 139 672 161 706 q 117 589 117 639 q 139 507 117 539 q 196 475 161 475 q 253 507 232 475 q 275 589 275 539 m 631 175 q 608 259 631 226 q 551 292 586 292 q 493 259 515 292 q 471 175 471 226 q 493 93 471 125 q 551 61 515 61 q 608 93 586 61 q 631 175 631 125 z "},"":{"ha":719,"x_min":47,"x_max":674,"o":"m 674 382 q 594 101 674 218 q 360 -17 515 -17 q 217 17 279 -17 q 119 110 156 51 q 65 237 83 168 q 47 382 47 306 q 78 574 47 486 q 181 721 108 661 q 360 781 254 781 q 539 721 465 781 q 643 574 613 661 q 674 382 674 486 m 478 196 q 498 234 478 196 q 517 382 517 272 q 479 568 517 492 q 360 644 442 644 q 242 568 279 644 q 204 382 204 492 q 242 196 204 272 q 360 119 279 119 q 478 196 440 119 z "},"":{"ha":719,"x_min":139,"x_max":524,"o":"m 524 0 l 369 0 l 369 565 l 229 417 l 139 510 l 389 764 l 524 764 l 524 0 z "},"":{"ha":719,"x_min":63,"x_max":638,"o":"m 624 0 l 86 0 l 86 125 q 481 515 481 344 q 444 608 481 572 q 351 644 408 644 q 157 539 231 644 l 63 631 q 358 781 168 781 q 560 715 483 781 q 638 539 638 649 q 558 338 638 443 q 329 135 478 233 l 624 135 l 624 0 z "},"":{"ha":719,"x_min":54,"x_max":656,"o":"m 354 -181 q 176 -138 254 -181 q 54 -29 97 -96 l 150 65 q 349 -44 225 -44 q 464 -5 425 -44 q 503 103 503 35 q 339 242 503 242 q 260 239 288 242 l 260 378 q 336 376 274 376 q 448 409 406 376 q 490 506 490 442 q 451 606 490 571 q 344 640 411 640 q 157 540 232 640 l 65 628 q 356 776 167 776 q 564 712 486 776 q 642 528 642 647 q 592 388 642 447 q 471 315 542 329 q 599 242 543 304 q 656 89 656 181 q 574 -106 656 -32 q 354 -181 493 -181 z "},"":{"ha":719,"x_min":46,"x_max":669,"o":"m 669 58 l 572 58 l 572 -162 l 419 -162 l 419 58 l 46 58 l 46 189 l 376 764 l 572 764 l 572 193 l 669 193 l 669 58 m 419 193 l 419 603 l 185 193 l 419 193 z "},"":{"ha":719,"x_min":63,"x_max":661,"o":"m 357 -179 q 63 -31 164 -179 l 158 67 q 353 -43 229 -43 q 463 7 421 -43 q 506 128 506 57 q 467 253 506 208 q 360 299 428 299 q 200 218 267 299 l 88 250 l 88 764 l 610 764 l 610 629 l 242 629 l 242 353 q 413 432 306 432 q 590 352 519 432 q 661 132 661 272 q 577 -92 661 -6 q 357 -179 493 -179 z "},"":{"ha":719,"x_min":60,"x_max":669,"o":"m 382 -17 q 258 9 313 -17 q 166 78 203 35 q 105 184 129 122 q 70 315 81 246 q 60 463 60 383 q 149 806 60 671 q 407 940 239 940 q 635 833 553 940 l 557 722 q 408 804 500 804 q 266 710 317 804 q 215 488 215 617 l 215 465 q 297 555 242 518 q 417 592 351 592 q 597 513 525 592 q 669 293 669 435 q 590 72 669 161 q 382 -17 511 -17 m 374 119 q 477 170 440 119 q 514 288 514 221 q 474 417 514 375 q 371 460 433 460 q 283 427 324 460 q 217 344 243 394 q 228 268 219 304 q 253 197 236 232 q 301 140 269 161 q 374 119 332 119 z "},"":{"ha":719,"x_min":78,"x_max":642,"o":"m 347 -162 l 181 -162 l 468 629 l 78 629 l 78 764 l 642 764 l 642 657 l 347 -162 z "},"":{"ha":719,"x_min":58,"x_max":661,"o":"m 360 -17 q 141 50 224 -17 q 58 233 58 117 q 111 383 58 317 q 240 478 164 449 q 119 562 168 504 q 71 701 71 619 q 156 879 71 818 q 360 940 240 940 q 563 879 478 940 q 647 701 647 818 q 599 562 647 619 q 479 478 551 504 q 608 383 554 449 q 661 233 661 317 q 578 50 661 117 q 360 -17 494 -17 m 360 533 q 448 579 403 543 q 493 676 493 615 q 456 769 493 735 q 360 804 419 804 q 262 769 299 804 q 225 676 225 735 q 270 579 225 615 q 360 533 315 543 m 360 119 q 464 156 422 119 q 506 254 506 192 q 453 366 506 322 q 360 415 401 410 q 265 366 317 410 q 213 254 213 322 q 254 156 213 192 q 360 119 296 119 z "},"":{"ha":719,"x_min":51,"x_max":661,"o":"m 314 -176 q 86 -69 168 -176 l 164 42 q 313 -40 221 -40 q 456 53 406 -40 q 506 276 506 147 l 506 299 q 424 209 479 246 q 304 172 369 172 q 124 251 196 172 q 51 471 51 329 q 131 692 51 603 q 339 781 210 781 q 463 755 408 781 q 555 685 518 729 q 616 580 592 642 q 651 449 640 518 q 661 301 661 381 q 572 -42 661 93 q 314 -176 482 -176 m 350 304 q 504 419 443 304 q 488 522 501 475 q 438 606 474 568 q 349 644 403 644 q 244 594 281 644 q 207 476 207 543 q 247 347 207 389 q 350 304 288 304 z "},"":{"ha":665,"x_min":50,"x_max":638,"o":"m 265 -74 l 285 -3 q 232 18 258 3 l 207 -74 l 142 -74 l 176 56 q 50 382 50 164 q 138 668 50 557 q 375 781 226 779 l 389 832 l 454 832 l 438 775 q 492 757 469 768 l 513 832 l 578 832 l 547 722 q 638 603 599 679 l 519 554 q 515 565 518 557 q 508 576 511 572 l 381 110 q 463 138 426 110 q 519 213 500 165 l 638 165 q 379 -17 550 -17 q 363 -16 374 -17 q 346 -15 351 -15 l 331 -74 l 265 -74 m 269 157 q 318 122 289 136 l 457 631 q 404 651 431 647 l 269 157 m 197 382 q 224 229 197 297 l 339 649 q 235 558 272 631 q 197 382 197 486 z "},"":{"ha":693,"x_min":29,"x_max":665,"o":"m 446 426 l 226 426 q 225 382 225 411 q 226 336 225 350 l 446 336 l 446 264 l 240 264 q 303 151 260 192 q 407 110 346 110 q 547 213 506 110 l 665 165 q 407 -17 578 -17 q 200 59 283 -17 q 89 264 117 135 l 29 264 l 29 336 l 79 336 q 78 382 78 351 q 79 426 78 411 l 29 426 l 29 499 l 89 499 q 199 704 115 628 q 407 781 283 781 q 665 603 579 781 l 547 554 q 407 654 503 654 q 303 613 346 654 q 239 499 260 571 l 446 499 l 446 426 z "},"":{"ha":510,"x_min":31,"x_max":524,"o":"m 186 -165 l 31 -165 l 131 290 l 74 290 l 74 392 l 153 392 l 194 574 q 407 779 243 779 q 524 736 481 779 l 469 624 q 425 644 456 644 q 346 550 368 644 l 311 392 l 421 392 l 421 290 l 288 290 l 186 -165 z "},"":{"ha":618,"x_min":25,"x_max":593,"o":"m 593 553 l 574 474 l 479 474 l 429 296 l 524 296 l 501 215 l 406 215 l 344 0 l 247 0 l 310 215 l 210 215 l 150 0 l 53 0 l 115 215 l 25 215 l 46 296 l 139 296 l 189 474 l 96 474 l 117 553 l 211 553 l 271 764 l 368 764 l 307 553 l 406 553 l 467 764 l 563 764 l 501 553 l 593 553 m 382 474 l 285 474 l 235 296 l 332 296 l 382 474 z "},"":{"ha":539,"x_min":26,"x_max":526,"o":"m 26 314 l 26 394 l 96 394 q 50 554 50 481 q 119 716 50 653 q 285 779 189 779 q 419 744 361 779 q 500 644 476 708 l 393 594 q 294 675 364 675 q 222 641 251 675 q 192 553 192 607 q 240 394 192 494 l 376 394 l 376 314 l 272 314 q 282 257 282 282 q 222 126 282 181 q 250 132 233 132 q 322 116 282 132 q 386 100 363 100 q 475 139 446 100 l 526 40 q 378 -14 476 -14 q 283 8 331 -14 q 204 31 236 31 q 92 -11 160 31 l 47 81 q 161 225 161 139 q 138 314 161 264 l 26 314 z "},"":{"ha":638,"x_min":-1,"x_max":639,"o":"m 392 0 l 249 0 l 249 154 l 31 154 l 31 232 l 249 232 l 249 318 l 31 318 l 31 396 l 206 396 l -1 764 l 157 764 l 321 451 l 482 764 l 639 764 l 433 396 l 607 396 l 607 318 l 392 318 l 392 232 l 607 232 l 607 154 l 392 154 l 392 0 z "},"":{"ha":665,"x_min":50,"x_max":638,"o":"m 326 -122 l 326 -12 q 124 115 197 7 q 50 382 50 222 q 124 649 50 542 q 326 776 197 757 l 326 863 l 428 863 l 428 776 q 638 603 563 756 l 519 554 q 428 646 488 622 l 428 118 q 519 213 492 142 l 638 165 q 428 -12 564 11 l 428 -122 l 326 -122 m 231 551 q 214 516 231 551 q 197 382 197 481 q 231 213 197 283 q 326 119 265 142 l 326 644 q 231 551 265 622 z "},"":{"ha":469,"x_min":31,"x_max":439,"o":"m 388 480 q 413 438 388 480 q 439 278 439 396 q 388 75 439 160 q 236 -10 336 -10 q 83 75 135 -10 q 31 278 31 160 q 83 480 31 396 q 236 564 135 564 q 388 480 336 564 m 331 278 q 236 478 331 478 q 139 278 139 478 q 236 76 139 76 q 331 278 331 76 z "},"":{"ha":343,"x_min":15,"x_max":269,"o":"m 269 0 l 163 0 l 163 418 l 76 329 l 15 393 l 176 556 l 269 556 l 269 0 z "},"":{"ha":469,"x_min":43,"x_max":428,"o":"m 428 0 l 54 0 l 54 79 q 267 285 215 225 q 318 396 318 346 q 293 456 318 435 q 231 478 268 478 q 104 408 150 478 l 43 474 q 235 564 113 564 q 372 521 318 564 q 425 401 425 478 q 374 271 425 338 q 197 86 324 204 l 428 86 l 428 0 z "},"":{"ha":469,"x_min":38,"x_max":429,"o":"m 429 153 q 376 35 429 81 q 233 -10 322 -10 q 38 81 99 -10 l 100 146 q 229 76 149 76 q 299 99 275 76 q 324 158 324 121 q 217 242 324 242 q 168 240 176 242 l 168 326 q 214 325 176 325 q 317 401 317 325 q 292 458 317 439 q 225 478 267 478 q 103 415 150 478 l 44 475 q 233 564 111 564 q 370 525 319 564 q 421 414 421 486 q 388 331 421 365 q 311 288 356 296 q 393 244 357 281 q 429 153 429 207 z "},"":{"ha":469,"x_min":33,"x_max":439,"o":"m 439 131 l 378 131 l 378 0 l 271 0 l 271 131 l 33 131 l 33 210 l 239 556 l 378 556 l 378 215 l 439 215 l 439 131 m 271 215 l 271 451 l 132 215 l 271 215 z "},"":{"ha":469,"x_min":39,"x_max":429,"o":"m 383 309 q 406 286 383 309 q 429 179 429 263 q 374 43 429 96 q 231 -10 319 -10 q 39 81 101 -10 l 101 147 q 228 76 151 76 q 297 106 271 76 q 322 176 322 135 q 298 249 322 222 q 232 276 274 276 q 131 222 172 276 l 54 249 l 54 556 l 396 556 l 396 469 l 161 469 l 161 308 q 271 356 201 356 q 383 309 338 356 z "},"":{"ha":469,"x_min":35,"x_max":435,"o":"m 435 178 q 383 44 435 97 q 247 -10 331 -10 q 87 71 139 -10 q 35 278 35 151 q 95 484 35 404 q 264 564 156 564 q 411 504 354 564 l 360 431 q 264 478 321 478 q 175 426 207 478 q 142 301 143 375 q 143 285 142 292 q 197 339 163 317 q 272 361 231 361 q 388 313 342 361 q 435 178 435 264 m 328 174 q 302 251 328 226 q 239 276 276 276 q 143 213 181 276 q 240 76 153 76 q 304 106 281 76 q 328 174 328 136 z "},"":{"ha":435,"x_min":31,"x_max":400,"o":"m 400 482 l 214 0 l 103 0 l 292 469 l 31 469 l 31 556 l 400 556 l 400 482 z "},"":{"ha":469,"x_min":38,"x_max":432,"o":"m 432 142 q 377 30 432 69 q 235 -10 322 -10 q 92 29 147 -10 q 38 142 38 68 q 72 231 38 192 q 156 286 106 271 q 77 335 108 301 q 46 418 46 369 q 101 527 46 490 q 235 564 157 564 q 368 527 313 564 q 424 418 424 490 q 392 335 424 369 q 314 286 361 301 q 397 231 363 271 q 432 142 432 190 m 318 404 q 296 460 318 440 q 235 481 274 481 q 173 460 196 481 q 150 404 150 440 q 169 358 150 378 q 204 331 188 339 q 235 321 221 324 q 290 347 261 326 q 318 404 318 367 m 326 151 q 293 220 326 194 q 235 247 260 246 q 176 220 210 246 q 143 151 143 194 q 169 93 143 114 q 235 72 194 72 q 300 93 274 72 q 326 151 326 114 z "},"":{"ha":469,"x_min":36,"x_max":436,"o":"m 36 376 q 88 510 36 457 q 225 564 140 564 q 384 483 332 564 q 436 276 436 403 q 376 69 436 149 q 207 -10 317 -10 q 61 50 117 -10 l 111 124 q 207 76 147 76 q 295 128 263 76 q 328 254 328 179 l 328 269 q 274 215 308 238 q 199 193 240 193 q 83 242 131 193 q 36 376 36 290 m 143 381 q 169 303 143 328 q 232 278 194 278 q 328 343 290 278 q 301 438 324 399 q 231 478 278 478 q 167 448 190 478 q 143 381 143 418 z "},"":{"ha":469,"x_min":31,"x_max":439,"o":"m 388 851 q 413 809 388 851 q 439 649 439 767 q 388 446 439 531 q 236 361 336 361 q 83 446 135 361 q 31 649 31 531 q 83 851 31 767 q 236 935 135 935 q 388 851 336 935 m 331 649 q 236 849 331 849 q 139 649 139 849 q 236 447 139 447 q 331 649 331 447 z "},"":{"ha":343,"x_min":15,"x_max":269,"o":"m 269 371 l 163 371 l 163 789 l 76 700 l 15 764 l 176 926 l 269 926 l 269 371 z "},"":{"ha":469,"x_min":43,"x_max":428,"o":"m 428 371 l 54 371 l 54 450 q 267 656 215 596 q 318 767 318 717 q 293 827 318 806 q 231 849 268 849 q 104 779 150 849 l 43 844 q 235 935 113 935 q 372 892 318 935 q 425 772 425 849 q 374 642 425 708 q 197 457 324 575 l 428 457 l 428 371 z "},"":{"ha":469,"x_min":38,"x_max":429,"o":"m 429 524 q 376 406 429 451 q 233 361 322 361 q 38 451 99 361 l 100 517 q 229 447 149 447 q 299 469 275 447 q 324 529 324 492 q 217 613 324 613 q 168 611 176 613 l 168 697 q 214 696 176 696 q 317 772 317 696 q 292 829 317 810 q 225 849 267 849 q 103 786 150 849 l 44 846 q 233 935 111 935 q 370 896 319 935 q 421 785 421 857 q 388 701 421 736 q 311 658 356 667 q 393 615 357 651 q 429 524 429 578 z "},"":{"ha":469,"x_min":33,"x_max":439,"o":"m 439 501 l 378 501 l 378 371 l 271 371 l 271 501 l 33 501 l 33 581 l 239 926 l 378 926 l 378 586 l 439 586 l 439 501 m 271 586 l 271 822 l 132 586 l 271 586 z "},"":{"ha":469,"x_min":39,"x_max":429,"o":"m 383 680 q 406 657 383 680 q 429 550 429 633 q 374 414 429 467 q 231 361 319 361 q 39 451 101 361 l 101 518 q 228 447 151 447 q 297 476 271 447 q 322 547 322 506 q 298 620 322 593 q 232 647 274 647 q 131 593 172 647 l 54 619 l 54 926 l 396 926 l 396 840 l 161 840 l 161 679 q 271 726 201 726 q 383 680 338 726 z "},"":{"ha":469,"x_min":35,"x_max":435,"o":"m 435 549 q 383 415 435 468 q 247 361 331 361 q 87 442 139 361 q 35 649 35 522 q 95 855 35 775 q 264 935 156 935 q 411 875 354 935 l 360 801 q 264 849 321 849 q 175 797 207 849 q 142 672 143 746 q 143 656 142 663 q 197 710 163 688 q 272 732 231 732 q 388 683 342 732 q 435 549 435 635 m 328 544 q 302 622 328 597 q 239 647 276 647 q 143 583 181 647 q 240 447 153 447 q 304 477 281 447 q 328 544 328 507 z "},"":{"ha":435,"x_min":31,"x_max":400,"o":"m 400 853 l 214 371 l 103 371 l 292 840 l 31 840 l 31 926 l 400 926 l 400 853 z "},"":{"ha":469,"x_min":38,"x_max":432,"o":"m 432 513 q 377 401 432 440 q 235 361 322 361 q 92 400 147 361 q 38 513 38 439 q 72 602 38 563 q 156 657 106 642 q 77 706 108 672 q 46 789 46 740 q 101 898 46 861 q 235 935 157 935 q 368 898 313 935 q 424 789 424 861 q 392 706 424 740 q 314 657 361 672 q 397 601 363 642 q 432 513 432 561 m 318 775 q 296 831 318 811 q 235 851 274 851 q 173 831 196 851 q 150 775 150 811 q 169 729 150 749 q 204 702 188 710 q 235 692 221 694 q 290 717 261 697 q 318 775 318 738 m 326 522 q 293 591 326 565 q 235 618 260 617 q 176 591 210 617 q 143 522 143 565 q 169 464 143 485 q 235 443 194 443 q 300 464 274 443 q 326 522 326 485 z "},"":{"ha":469,"x_min":36,"x_max":436,"o":"m 36 747 q 88 881 36 828 q 225 935 140 935 q 384 854 332 935 q 436 647 436 774 q 376 440 436 519 q 207 361 317 361 q 61 421 117 361 l 111 494 q 207 447 147 447 q 295 499 263 447 q 328 625 328 550 l 328 640 q 274 586 308 608 q 199 564 240 564 q 83 613 131 564 q 36 747 36 661 m 143 751 q 169 674 143 699 q 232 649 194 649 q 328 714 290 649 q 301 809 324 769 q 231 849 278 849 q 167 819 190 849 q 143 751 143 789 z "},"":{"ha":651,"x_min":1,"x_max":649,"o":"m 242 764 l 410 764 l 649 0 l 494 0 l 453 149 l 199 149 l 157 0 l 1 0 l 242 764 m 422 274 l 326 608 l 228 274 l 422 274 m 533 938 q 326 833 458 833 q 119 938 197 833 l 185 989 q 326 915 238 915 q 468 989 419 915 l 533 938 z "},"":{"ha":651,"x_min":1,"x_max":649,"o":"m 242 764 l 410 764 l 649 0 l 494 0 l 453 149 l 199 149 l 157 0 l 1 0 l 242 764 m 422 274 l 326 608 l 228 274 l 422 274 m 540 869 l 111 869 l 111 951 l 540 951 l 540 869 z "},"":{"ha":651,"x_min":1,"x_max":715,"o":"m 242 764 l 410 764 l 649 0 q 556 -136 556 -54 q 601 -194 556 -194 q 654 -147 640 -194 l 715 -181 q 601 -258 681 -258 q 515 -229 549 -258 q 482 -142 482 -200 q 549 0 482 -62 l 494 0 l 453 149 l 199 149 l 157 0 l 1 0 l 242 764 m 422 274 l 326 608 l 228 274 l 422 274 z "},"":{"ha":932,"x_min":-1,"x_max":876,"o":"m 675 1042 l 488 842 l 393 842 l 546 1042 l 675 1042 m 876 0 l 428 0 l 428 149 l 221 149 l 153 0 l -1 0 l 369 764 l 876 764 l 876 639 l 572 639 l 572 453 l 868 453 l 868 328 l 572 328 l 572 125 l 876 125 l 876 0 m 428 274 l 428 608 l 271 274 l 428 274 z "},"":{"ha":665,"x_min":50,"x_max":638,"o":"m 379 -17 q 139 94 228 -17 q 50 382 50 206 q 139 669 50 558 q 379 781 228 781 q 638 603 551 781 l 519 554 q 379 654 475 654 q 247 578 296 654 q 197 382 197 503 q 247 186 197 263 q 379 110 296 110 q 519 213 478 110 l 638 165 q 379 -17 550 -17 m 569 1042 l 382 842 l 288 842 l 440 1042 l 569 1042 z "},"":{"ha":665,"x_min":50,"x_max":638,"o":"m 379 -17 q 139 94 228 -17 q 50 382 50 206 q 139 669 50 558 q 379 781 228 781 q 638 603 551 781 l 519 554 q 379 654 475 654 q 247 578 296 654 q 197 382 197 503 q 247 186 197 263 q 379 110 296 110 q 519 213 478 110 l 638 165 q 379 -17 550 -17 m 447 842 l 319 842 l 207 1042 l 290 1042 l 383 907 l 472 1042 l 556 1042 l 447 842 z "},"":{"ha":665,"x_min":50,"x_max":638,"o":"m 379 -17 q 139 94 228 -17 q 50 382 50 206 q 139 669 50 558 q 379 781 228 781 q 638 603 551 781 l 519 554 q 379 654 475 654 q 247 578 296 654 q 197 382 197 503 q 247 186 197 263 q 379 110 296 110 q 519 213 478 110 l 638 165 q 379 -17 550 -17 m 556 842 l 472 842 l 379 976 l 290 842 l 207 842 l 315 1042 l 443 1042 l 556 842 z "},"":{"ha":665,"x_min":50,"x_max":638,"o":"m 379 -17 q 139 94 228 -17 q 50 382 50 206 q 139 669 50 558 q 379 781 228 781 q 638 603 551 781 l 519 554 q 379 654 475 654 q 247 578 296 654 q 197 382 197 503 q 247 186 197 263 q 379 110 296 110 q 519 213 478 110 l 638 165 q 379 -17 550 -17 m 436 887 q 424 875 436 887 q 381 864 413 864 q 326 887 349 864 q 303 943 303 910 q 326 998 303 975 q 381 1021 349 1021 q 436 998 413 1021 q 460 943 460 975 q 436 887 460 910 z "},"":{"ha":718,"x_min":71,"x_max":657,"o":"m 318 0 l 71 0 l 71 764 l 317 764 q 567 658 478 764 q 657 381 657 551 q 568 105 657 210 q 318 0 479 0 m 317 125 q 460 195 410 125 q 511 381 511 265 q 461 569 511 499 q 317 639 411 639 l 214 639 l 214 125 l 317 125 m 417 842 l 289 842 l 176 1042 l 260 1042 l 353 907 l 442 1042 l 525 1042 l 417 842 z "},"":{"ha":742,"x_min":19,"x_max":681,"o":"m 342 0 l 94 0 l 94 336 l 19 336 l 19 429 l 94 429 l 94 764 l 340 764 q 591 658 501 764 q 681 381 681 551 q 592 105 681 210 q 342 0 503 0 m 365 336 l 238 336 l 238 125 l 340 125 q 484 195 433 125 q 535 381 535 265 q 485 569 535 499 q 340 639 435 639 l 238 639 l 238 429 l 365 429 l 365 336 z "},"":{"ha":585,"x_min":82,"x_max":529,"o":"m 529 0 l 82 0 l 82 764 l 529 764 l 529 639 l 225 639 l 225 453 l 522 453 l 522 328 l 225 328 l 225 125 l 529 125 l 529 0 m 513 938 q 306 833 438 833 q 99 938 176 833 l 164 989 q 306 915 217 915 q 447 989 399 915 l 513 938 z "},"":{"ha":585,"x_min":82,"x_max":529,"o":"m 529 0 l 82 0 l 82 764 l 529 764 l 529 639 l 225 639 l 225 453 l 522 453 l 522 328 l 225 328 l 225 125 l 529 125 l 529 0 m 372 842 l 244 842 l 132 1042 l 215 1042 l 308 907 l 397 1042 l 481 1042 l 372 842 z "},"":{"ha":585,"x_min":82,"x_max":529,"o":"m 529 0 l 82 0 l 82 764 l 529 764 l 529 639 l 225 639 l 225 453 l 522 453 l 522 328 l 225 328 l 225 125 l 529 125 l 529 0 m 367 887 q 355 875 367 887 q 311 864 343 864 q 256 887 279 864 q 233 943 233 910 q 256 998 233 975 q 311 1021 279 1021 q 367 998 343 1021 q 390 943 390 975 q 367 887 390 910 z "},"":{"ha":585,"x_min":82,"x_max":529,"o":"m 529 0 l 82 0 l 82 764 l 529 764 l 529 639 l 225 639 l 225 453 l 522 453 l 522 328 l 225 328 l 225 125 l 529 125 l 529 0 m 521 869 l 92 869 l 92 951 l 521 951 l 521 869 z "},"":{"ha":732,"x_min":82,"x_max":650,"o":"m 407 -272 q 235 -204 303 -272 l 286 -93 q 393 -146 329 -146 q 476 -115 446 -146 q 506 -31 506 -85 l 506 0 l 225 506 l 225 0 l 82 0 l 82 764 l 232 764 l 507 274 l 507 764 l 650 764 l 650 -46 q 585 -216 650 -160 q 407 -272 519 -272 z "},"":{"ha":585,"x_min":82,"x_max":596,"o":"m 535 -147 l 596 -181 q 482 -258 561 -258 q 396 -229 429 -258 q 363 -142 363 -200 q 429 0 363 -62 l 82 0 l 82 764 l 529 764 l 529 639 l 225 639 l 225 453 l 522 453 l 522 328 l 225 328 l 225 125 l 529 125 l 529 0 q 436 -136 436 -54 q 482 -194 436 -194 q 535 -147 521 -194 z "},"":{"ha":706,"x_min":50,"x_max":643,"o":"m 381 -17 q 140 93 229 -17 q 50 382 50 203 q 140 671 50 561 q 381 781 231 781 q 635 615 550 781 l 521 560 q 381 654 469 654 q 247 581 296 654 q 197 382 197 507 q 247 183 197 257 q 382 110 297 110 q 507 161 461 110 l 507 293 l 360 293 l 360 411 l 643 411 l 643 103 q 381 -17 538 -17 m 589 938 q 382 833 514 833 q 175 938 253 833 l 240 989 q 382 915 293 915 q 524 989 475 915 l 589 938 z "},"":{"ha":706,"x_min":50,"x_max":643,"o":"m 381 -17 q 140 93 229 -17 q 50 382 50 203 q 140 671 50 561 q 381 781 231 781 q 635 615 550 781 l 521 560 q 381 654 469 654 q 247 581 296 654 q 197 382 197 507 q 247 183 197 257 q 382 110 297 110 q 507 161 461 110 l 507 293 l 360 293 l 360 411 l 643 411 l 643 103 q 381 -17 538 -17 m 556 842 l 472 842 l 379 976 l 290 842 l 207 842 l 315 1042 l 443 1042 l 556 842 z "},"":{"ha":706,"x_min":50,"x_max":643,"o":"m 381 -17 q 140 93 229 -17 q 50 382 50 203 q 140 671 50 561 q 381 781 231 781 q 635 615 550 781 l 521 560 q 381 654 469 654 q 247 581 296 654 q 197 382 197 507 q 247 183 197 257 q 382 110 297 110 q 507 161 461 110 l 507 293 l 360 293 l 360 411 l 643 411 l 643 103 q 381 -17 538 -17 m 469 -192 q 440 -302 469 -250 q 363 -387 410 -354 l 311 -346 q 365 -294 342 -326 q 393 -231 389 -261 q 376 -233 390 -233 q 329 -214 349 -233 q 310 -164 310 -194 q 332 -112 310 -133 q 385 -90 354 -90 q 444 -117 419 -90 q 469 -192 469 -144 z "},"":{"ha":706,"x_min":50,"x_max":643,"o":"m 381 -17 q 140 93 229 -17 q 50 382 50 203 q 140 671 50 561 q 381 781 231 781 q 635 615 550 781 l 521 560 q 381 654 469 654 q 247 581 296 654 q 197 382 197 507 q 247 183 197 257 q 382 110 297 110 q 507 161 461 110 l 507 293 l 360 293 l 360 411 l 643 411 l 643 103 q 381 -17 538 -17 m 436 887 q 424 875 436 887 q 381 864 413 864 q 326 887 349 864 q 303 943 303 910 q 326 998 303 975 q 381 1021 349 1021 q 436 998 413 1021 q 460 943 460 975 q 436 887 460 910 z "},"":{"ha":738,"x_min":82,"x_max":656,"o":"m 656 0 l 513 0 l 513 329 l 225 329 l 225 0 l 82 0 l 82 764 l 225 764 l 225 454 l 513 454 l 513 764 l 656 764 l 656 0 m 542 842 l 458 842 l 365 976 l 276 842 l 193 842 l 301 1042 l 429 1042 l 542 842 z "},"":{"ha":775,"x_min":19,"x_max":749,"o":"m 675 0 l 532 0 l 532 329 l 244 329 l 244 0 l 101 0 l 101 571 l 19 571 l 19 653 l 101 653 l 101 764 l 244 764 l 244 653 l 532 653 l 532 764 l 675 764 l 675 653 l 749 653 l 749 571 l 675 571 l 675 0 m 244 454 l 532 454 l 532 571 l 244 571 l 244 454 z "},"":{"ha":304,"x_min":-57,"x_max":357,"o":"m 224 0 l 81 0 l 81 764 l 224 764 l 224 0 m 357 938 q 150 833 282 833 q -57 938 21 833 l 8 989 q 150 915 61 915 q 292 989 243 915 l 357 938 z "},"":{"ha":813,"x_min":82,"x_max":732,"o":"m 225 0 l 82 0 l 82 764 l 225 764 l 225 0 m 489 -17 q 317 51 383 -17 l 367 163 q 475 110 413 110 q 558 140 528 110 q 588 224 588 169 l 588 764 l 731 764 l 731 210 q 666 40 732 96 q 489 -17 600 -17 z "},"":{"ha":304,"x_min":-61,"x_max":368,"o":"m 224 0 l 81 0 l 81 764 l 224 764 l 224 0 m 368 869 l -61 869 l -61 951 l 368 951 l 368 869 z "},"":{"ha":304,"x_min":57,"x_max":290,"o":"m 229 -147 l 290 -181 q 176 -258 256 -258 q 90 -229 124 -258 q 57 -142 57 -200 q 124 0 57 -62 l 81 0 l 81 764 l 224 764 l 224 0 q 131 -136 131 -54 q 176 -194 131 -194 q 229 -147 215 -194 z "},"":{"ha":304,"x_min":-42,"x_max":351,"o":"m 224 0 l 81 0 l 81 764 l 224 764 l 224 0 m 225 818 q 164 847 188 818 q 123 903 140 875 q 85 931 106 931 q 33 826 33 931 l -42 826 q -8 962 -42 911 q 86 1013 25 1013 q 137 995 115 1013 q 169 956 158 978 q 194 917 179 935 q 226 900 210 900 q 276 1004 276 900 l 351 1004 q 319 869 351 919 q 225 818 286 818 z "},"":{"ha":506,"x_min":8,"x_max":526,"o":"m 181 -17 q 8 51 75 -17 l 58 163 q 167 110 104 110 q 249 140 219 110 q 279 224 279 169 l 279 764 l 422 764 l 422 210 q 358 40 424 96 q 181 -17 292 -17 m 526 842 l 443 842 l 350 976 l 261 842 l 178 842 l 286 1042 l 414 1042 l 526 842 z "},"":{"ha":661,"x_min":82,"x_max":651,"o":"m 651 0 l 483 0 l 281 306 l 225 226 l 225 0 l 82 0 l 82 764 l 225 764 l 225 417 l 465 764 l 632 764 l 368 403 l 651 0 m 422 -192 q 392 -302 422 -250 q 315 -387 363 -354 l 264 -346 q 318 -294 294 -326 q 346 -231 342 -261 q 329 -233 343 -233 q 282 -214 301 -233 q 263 -164 263 -194 q 285 -112 263 -133 q 338 -90 307 -90 q 397 -117 372 -90 q 422 -192 422 -144 z "},"":{"ha":540,"x_min":82,"x_max":503,"o":"m 503 0 l 82 0 l 82 764 l 225 764 l 225 125 l 503 125 l 503 0 m 486 1042 l 299 842 l 204 842 l 357 1042 l 486 1042 z "},"":{"ha":550,"x_min":82,"x_max":503,"o":"m 503 0 l 82 0 l 82 764 l 225 764 l 225 125 l 503 125 l 503 0 m 463 675 q 433 565 463 617 q 356 479 403 513 l 304 521 q 358 573 335 540 q 386 636 382 606 q 369 633 383 633 q 322 653 342 633 q 303 703 303 672 q 325 755 303 733 q 378 776 347 776 q 438 749 413 776 q 463 675 463 722 z "},"":{"ha":540,"x_min":82,"x_max":503,"o":"m 503 0 l 82 0 l 82 764 l 225 764 l 225 125 l 503 125 l 503 0 m 376 -192 q 347 -302 376 -250 q 269 -387 317 -354 l 218 -346 q 272 -294 249 -326 q 300 -231 296 -261 q 283 -233 297 -233 q 236 -214 256 -233 q 217 -164 217 -194 q 239 -112 217 -133 q 292 -90 261 -90 q 351 -117 326 -90 q 376 -192 376 -144 z "},"":{"ha":606,"x_min":82,"x_max":556,"o":"m 503 0 l 82 0 l 82 764 l 225 764 l 225 125 l 503 125 l 503 0 m 556 415 q 528 349 556 376 q 463 322 501 322 q 397 349 424 322 q 369 415 369 376 q 397 480 369 453 q 463 507 424 507 q 528 480 501 507 q 556 415 556 453 z "},"":{"ha":732,"x_min":82,"x_max":650,"o":"m 650 0 l 507 0 l 225 506 l 225 0 l 82 0 l 82 764 l 232 764 l 507 274 l 507 764 l 650 764 l 650 0 m 554 1042 l 367 842 l 272 842 l 425 1042 l 554 1042 z "},"":{"ha":732,"x_min":82,"x_max":650,"o":"m 650 0 l 507 0 l 225 506 l 225 0 l 82 0 l 82 764 l 232 764 l 507 274 l 507 764 l 650 764 l 650 0 m 431 842 l 303 842 l 190 1042 l 274 1042 l 367 907 l 456 1042 l 539 1042 l 431 842 z "},"":{"ha":732,"x_min":82,"x_max":650,"o":"m 650 0 l 507 0 l 225 506 l 225 0 l 82 0 l 82 764 l 232 764 l 507 274 l 507 764 l 650 764 l 650 0 m 453 -192 q 423 -302 453 -250 q 346 -387 393 -354 l 294 -346 q 349 -294 325 -326 q 376 -231 372 -261 q 360 -233 374 -233 q 313 -214 332 -233 q 293 -164 293 -194 q 315 -112 293 -133 q 368 -90 338 -90 q 428 -117 403 -90 q 453 -192 453 -144 z "},"":{"ha":750,"x_min":50,"x_max":699,"o":"m 613 96 q 569 40 613 96 q 375 -17 526 -17 q 137 95 224 -17 q 50 382 50 207 q 137 669 50 557 q 375 781 224 781 q 613 668 526 781 q 699 382 699 556 q 613 96 699 208 m 375 110 q 506 187 458 110 q 553 382 553 264 q 506 578 553 501 q 375 654 458 654 q 244 578 290 654 q 197 382 197 501 q 244 186 197 263 q 375 110 290 110 m 582 938 q 375 833 507 833 q 168 938 246 833 l 233 989 q 375 915 286 915 q 517 989 468 915 l 582 938 z "},"":{"ha":750,"x_min":50,"x_max":699,"o":"m 613 96 q 569 40 613 96 q 375 -17 526 -17 q 137 95 224 -17 q 50 382 50 207 q 137 669 50 557 q 375 781 224 781 q 613 668 526 781 q 699 382 699 556 q 613 96 699 208 m 375 110 q 506 187 458 110 q 553 382 553 264 q 506 578 553 501 q 375 654 458 654 q 244 578 290 654 q 197 382 197 501 q 244 186 197 263 q 375 110 290 110 m 442 1042 l 306 842 l 228 842 l 329 1042 l 442 1042 m 628 1042 l 493 842 l 415 842 l 515 1042 l 628 1042 z "},"":{"ha":750,"x_min":50,"x_max":699,"o":"m 613 96 q 569 40 613 96 q 375 -17 526 -17 q 137 95 224 -17 q 50 382 50 207 q 137 669 50 557 q 375 781 224 781 q 613 668 526 781 q 699 382 699 556 q 613 96 699 208 m 375 110 q 506 187 458 110 q 553 382 553 264 q 506 578 553 501 q 375 654 458 654 q 244 578 290 654 q 197 382 197 501 q 244 186 197 263 q 375 110 290 110 m 590 874 l 161 874 l 161 956 l 590 956 l 590 874 z "},"":{"ha":750,"x_min":50,"x_max":699,"o":"m 375 -17 q 200 35 275 -17 l 178 0 l 81 0 l 139 92 q 50 382 50 201 q 137 669 50 557 q 375 781 224 781 q 549 729 476 781 l 571 764 l 668 764 l 610 672 q 699 382 699 563 q 613 96 699 208 q 375 -17 526 -17 m 375 110 q 506 187 458 110 q 553 382 553 264 q 525 540 553 472 l 274 149 q 375 110 315 110 m 197 382 q 224 224 197 289 l 475 614 q 375 654 431 654 q 244 578 290 654 q 197 382 197 501 m 567 1042 l 379 842 l 285 842 l 438 1042 l 567 1042 z "},"":{"ha":656,"x_min":82,"x_max":608,"o":"m 608 0 l 449 0 l 317 281 l 225 281 l 225 0 l 82 0 l 82 764 l 363 764 q 536 697 474 764 q 599 524 599 629 q 556 375 599 432 q 451 303 514 318 l 608 0 m 346 406 q 425 438 397 406 q 453 522 453 471 q 425 607 453 575 q 346 639 397 639 l 225 639 l 225 406 l 346 406 m 511 1042 l 324 842 l 229 842 l 382 1042 l 511 1042 z "},"":{"ha":656,"x_min":82,"x_max":608,"o":"m 608 0 l 449 0 l 317 281 l 225 281 l 225 0 l 82 0 l 82 764 l 363 764 q 536 697 474 764 q 599 524 599 629 q 556 375 599 432 q 451 303 514 318 l 608 0 m 346 406 q 425 438 397 406 q 453 522 453 471 q 425 607 453 575 q 346 639 397 639 l 225 639 l 225 406 l 346 406 m 388 842 l 260 842 l 147 1042 l 231 1042 l 324 907 l 413 1042 l 496 1042 l 388 842 z "},"":{"ha":656,"x_min":82,"x_max":608,"o":"m 608 0 l 449 0 l 317 281 l 225 281 l 225 0 l 82 0 l 82 764 l 363 764 q 536 697 474 764 q 599 524 599 629 q 556 375 599 432 q 451 303 514 318 l 608 0 m 346 406 q 425 438 397 406 q 453 522 453 471 q 425 607 453 575 q 346 639 397 639 l 225 639 l 225 406 l 346 406 m 410 -192 q 380 -302 410 -250 q 303 -387 350 -354 l 251 -346 q 306 -294 282 -326 q 333 -231 329 -261 q 317 -233 331 -233 q 269 -214 289 -233 q 250 -164 250 -194 q 272 -112 250 -133 q 325 -90 294 -90 q 385 -117 360 -90 q 410 -192 410 -144 z "},"":{"ha":590,"x_min":29,"x_max":554,"o":"m 289 -17 q 29 82 128 -17 l 94 192 q 286 107 169 107 q 376 134 344 107 q 407 206 407 161 q 371 275 407 246 q 283 324 335 304 q 178 370 231 344 q 90 445 126 396 q 54 565 54 494 q 124 719 54 657 q 306 781 194 781 q 542 694 447 781 l 479 589 q 310 657 411 657 q 232 632 263 657 q 201 568 201 607 q 238 506 201 532 q 326 460 274 481 q 430 412 378 439 q 518 333 482 385 q 554 210 554 282 q 484 46 554 108 q 289 -17 414 -17 m 489 1042 l 301 842 l 207 842 l 360 1042 l 489 1042 z "},"":{"ha":590,"x_min":29,"x_max":554,"o":"m 290 -268 q 160 -225 210 -268 l 189 -165 q 288 -204 239 -204 q 336 -190 315 -204 q 357 -153 357 -176 q 315 -110 357 -110 q 274 -131 290 -110 l 219 -100 l 250 -15 q 29 82 113 -3 l 94 192 q 286 107 169 107 q 376 134 344 107 q 407 206 407 161 q 371 275 407 246 q 283 324 335 304 q 178 370 231 344 q 90 445 126 396 q 54 565 54 494 q 124 719 54 657 q 306 781 194 781 q 542 694 447 781 l 479 589 q 310 657 411 657 q 232 632 263 657 q 201 568 201 607 q 238 506 201 532 q 326 460 274 481 q 430 412 378 439 q 518 333 482 385 q 554 210 554 282 q 494 55 554 115 q 322 -15 433 -6 l 300 -74 q 344 -60 318 -60 q 406 -86 381 -60 q 431 -154 431 -112 q 391 -237 431 -206 q 290 -268 351 -268 z "},"":{"ha":590,"x_min":29,"x_max":554,"o":"m 289 -17 q 29 82 128 -17 l 94 192 q 286 107 169 107 q 376 134 344 107 q 407 206 407 161 q 371 275 407 246 q 283 324 335 304 q 178 370 231 344 q 90 445 126 396 q 54 565 54 494 q 124 719 54 657 q 306 781 194 781 q 542 694 447 781 l 479 589 q 310 657 411 657 q 232 632 263 657 q 201 568 201 607 q 238 506 201 532 q 326 460 274 481 q 430 412 378 439 q 518 333 482 385 q 554 210 554 282 q 484 46 554 108 q 289 -17 414 -17 m 475 842 l 392 842 l 299 976 l 210 842 l 126 842 l 235 1042 l 363 1042 l 475 842 z "},"":{"ha":590,"x_min":29,"x_max":554,"o":"m 289 -17 q 29 82 128 -17 l 94 192 q 286 107 169 107 q 376 134 344 107 q 407 206 407 161 q 371 275 407 246 q 283 324 335 304 q 178 370 231 344 q 90 445 126 396 q 54 565 54 494 q 124 719 54 657 q 306 781 194 781 q 542 694 447 781 l 479 589 q 310 657 411 657 q 232 632 263 657 q 201 568 201 607 q 238 506 201 532 q 326 460 274 481 q 430 412 378 439 q 518 333 482 385 q 554 210 554 282 q 484 46 554 108 q 289 -17 414 -17 m 383 -192 q 353 -302 383 -250 q 276 -387 324 -354 l 225 -346 q 279 -294 256 -326 q 307 -231 303 -261 q 290 -233 304 -233 q 243 -214 263 -233 q 224 -164 224 -194 q 246 -112 224 -133 q 299 -90 268 -90 q 358 -117 333 -90 q 383 -192 383 -144 z "},"":{"ha":540,"x_min":26,"x_max":513,"o":"m 342 0 l 199 0 l 199 313 l 86 313 l 86 394 l 199 394 l 199 639 l 26 639 l 26 764 l 513 764 l 513 639 l 342 639 l 342 394 l 446 394 l 446 313 l 342 313 l 342 0 z "},"":{"ha":540,"x_min":26,"x_max":513,"o":"m 342 0 l 199 0 l 199 639 l 26 639 l 26 764 l 513 764 l 513 639 l 342 639 l 342 0 m 336 842 l 208 842 l 96 1042 l 179 1042 l 272 907 l 361 1042 l 444 1042 l 336 842 z "},"":{"ha":540,"x_min":26,"x_max":513,"o":"m 342 0 l 199 0 l 199 639 l 26 639 l 26 764 l 513 764 l 513 639 l 342 639 l 342 0 m 354 -192 q 324 -302 354 -250 q 247 -387 294 -354 l 196 -346 q 250 -294 226 -326 q 278 -231 274 -261 q 261 -233 275 -233 q 214 -214 233 -233 q 194 -164 194 -194 q 217 -112 194 -133 q 269 -90 239 -90 q 329 -117 304 -90 q 354 -192 354 -144 z "},"":{"ha":731,"x_min":82,"x_max":649,"o":"m 576 62 q 539 23 576 62 q 365 -17 503 -17 q 155 62 228 -17 q 82 288 82 140 l 82 764 l 226 764 l 226 269 q 262 151 226 193 q 365 110 297 110 q 468 151 432 110 q 504 269 504 193 l 504 764 l 649 764 l 649 288 q 576 62 649 140 m 572 938 q 365 833 497 833 q 158 938 236 833 l 224 989 q 365 915 276 915 q 507 989 458 915 l 572 938 z "},"":{"ha":731,"x_min":82,"x_max":649,"o":"m 576 62 q 539 23 576 62 q 365 -17 503 -17 q 155 62 228 -17 q 82 288 82 140 l 82 764 l 226 764 l 226 269 q 262 151 226 193 q 365 110 297 110 q 468 151 432 110 q 504 269 504 193 l 504 764 l 649 764 l 649 288 q 576 62 649 140 m 431 1042 l 294 842 l 217 842 l 318 1042 l 431 1042 m 617 1042 l 482 842 l 404 842 l 504 1042 l 617 1042 z "},"":{"ha":731,"x_min":82,"x_max":649,"o":"m 576 62 q 539 23 576 62 q 365 -17 503 -17 q 155 62 228 -17 q 82 288 82 140 l 82 764 l 226 764 l 226 269 q 262 151 226 193 q 365 110 297 110 q 468 151 432 110 q 504 269 504 193 l 504 764 l 649 764 l 649 288 q 576 62 649 140 m 581 869 l 151 869 l 151 951 l 581 951 l 581 869 z "},"":{"ha":731,"x_min":82,"x_max":649,"o":"m 482 -147 l 543 -181 q 429 -258 508 -258 q 343 -229 376 -258 q 310 -142 310 -200 q 360 -17 310 -74 q 153 63 225 -15 q 82 288 82 142 l 82 764 l 226 764 l 226 269 q 262 151 226 193 q 365 110 297 110 q 468 151 432 110 q 504 269 504 193 l 504 764 l 649 764 l 649 288 q 474 -1 649 54 q 383 -136 383 -56 q 429 -194 383 -194 q 482 -147 468 -194 z "},"":{"ha":731,"x_min":82,"x_max":649,"o":"m 576 62 q 539 23 576 62 q 365 -17 503 -17 q 155 62 228 -17 q 82 288 82 140 l 82 764 l 226 764 l 226 269 q 262 151 226 193 q 365 110 297 110 q 468 151 432 110 q 504 269 504 193 l 504 764 l 649 764 l 649 288 q 576 62 649 140 m 369 835 q 276 874 315 835 q 238 967 238 913 q 276 1059 238 1021 q 369 1097 315 1097 q 460 1059 422 1097 q 499 967 499 1021 q 460 874 499 913 q 369 835 422 835 m 369 900 q 415 919 396 900 q 433 967 433 939 q 415 1013 433 994 q 369 1032 396 1032 q 322 1013 342 1032 q 303 967 303 994 q 322 919 303 939 q 369 900 342 900 z "},"":{"ha":731,"x_min":82,"x_max":649,"o":"m 576 62 q 539 23 576 62 q 365 -17 503 -17 q 155 62 228 -17 q 82 288 82 140 l 82 764 l 226 764 l 226 269 q 262 151 226 193 q 365 110 297 110 q 468 151 432 110 q 504 269 504 193 l 504 764 l 649 764 l 649 288 q 576 62 649 140 m 436 839 q 385 856 407 839 q 353 895 364 874 q 327 934 342 917 q 296 951 313 951 q 244 847 244 951 l 169 847 q 203 983 169 932 q 297 1033 236 1033 q 348 1016 326 1033 q 380 977 369 999 q 406 938 390 956 q 438 921 421 921 q 488 1025 488 921 l 563 1025 q 530 890 563 940 q 436 839 497 839 z "},"":{"ha":904,"x_min":7,"x_max":896,"o":"m 626 842 l 543 842 l 450 976 l 361 842 l 278 842 l 386 1042 l 514 1042 l 626 842 m 713 0 l 564 0 l 451 517 l 339 0 l 192 0 l 7 764 l 161 764 l 272 229 l 394 764 l 510 764 l 631 228 l 744 764 l 896 764 l 713 0 z "},"":{"ha":638,"x_min":-1,"x_max":639,"o":"m 392 0 l 249 0 l 249 319 l -1 764 l 157 764 l 321 451 l 482 764 l 639 764 l 392 319 l 392 0 m 496 842 l 413 842 l 319 976 l 231 842 l 147 842 l 256 1042 l 383 1042 l 496 842 z "},"":{"ha":578,"x_min":43,"x_max":535,"o":"m 535 0 l 43 0 l 43 108 l 347 639 l 43 639 l 43 764 l 526 764 l 526 658 l 222 125 l 535 125 l 535 0 m 475 1042 l 288 842 l 193 842 l 346 1042 l 475 1042 z "},"":{"ha":578,"x_min":43,"x_max":535,"o":"m 535 0 l 43 0 l 43 108 l 347 639 l 43 639 l 43 764 l 526 764 l 526 658 l 222 125 l 535 125 l 535 0 m 353 887 q 341 875 353 887 q 297 864 329 864 q 242 887 265 864 q 219 943 219 910 q 242 998 219 975 q 297 1021 265 1021 q 353 998 329 1021 q 376 943 376 975 q 353 887 376 910 z "},"":{"ha":283,"x_min":65,"x_max":222,"o":"m 214 0 l 71 0 l 71 764 l 214 764 l 214 0 m 199 887 q 187 875 199 887 q 143 864 175 864 q 88 887 111 864 q 65 943 65 910 q 88 998 65 975 q 143 1021 111 1021 q 199 998 175 1021 q 222 943 222 975 q 199 887 222 910 z "},"":{"ha":357,"x_min":63,"x_max":331,"o":"m 331 -96 l 238 -151 q 63 463 63 124 q 238 1076 63 801 l 331 1022 q 213 463 213 751 q 331 -96 213 174 z "},"":{"ha":357,"x_min":26,"x_max":294,"o":"m 26 -96 l 118 -151 q 294 463 294 125 q 118 1076 294 800 l 26 1022 q 144 463 144 746 q 26 -96 144 178 z "},"":{"ha":318,"x_min":54,"x_max":294,"o":"m 294 -139 l 54 -139 l 54 1067 l 294 1067 l 294 971 l 157 971 l 157 -43 l 294 -43 l 294 -139 z "},"":{"ha":318,"x_min":24,"x_max":264,"o":"m 264 -139 l 24 -139 l 24 -43 l 161 -43 l 161 971 l 24 971 l 24 1067 l 264 1067 l 264 -139 z "},"":{"ha":339,"x_min":7,"x_max":315,"o":"m 315 -139 l 253 -139 q 131 -88 183 -139 q 79 42 79 -37 l 79 328 q 60 395 79 368 q 7 422 42 422 l 7 506 q 60 533 42 506 q 79 600 79 560 l 79 886 q 131 1016 79 965 q 253 1067 183 1067 l 315 1067 l 315 971 l 253 971 q 202 947 222 971 q 182 886 182 924 l 182 588 q 118 464 182 492 q 182 340 182 436 l 182 42 q 203 -19 182 4 q 253 -43 224 -43 l 315 -43 l 315 -139 z "},"":{"ha":339,"x_min":24,"x_max":332,"o":"m 24 -139 l 24 -43 l 86 -43 q 136 -19 115 -43 q 157 42 157 4 l 157 340 q 221 464 157 436 q 157 588 157 492 l 157 886 q 137 947 157 924 q 86 971 117 971 l 24 971 l 24 1067 l 86 1067 q 208 1016 156 1067 q 260 886 260 965 l 260 600 q 278 533 260 560 q 332 506 297 506 l 332 422 q 278 395 297 422 q 260 328 260 368 l 260 42 q 208 -88 260 -37 q 86 -139 156 -139 l 24 -139 z "},"":{"ha":336,"x_min":75,"x_max":261,"o":"m 83 0 l 108 647 l 226 647 l 253 0 l 83 0 m 75 847 q 102 913 75 886 q 168 940 129 940 q 233 913 206 940 q 261 847 261 886 q 233 783 261 810 q 168 756 206 756 q 102 783 129 756 q 75 847 75 810 z "},"":{"ha":542,"x_min":31,"x_max":513,"o":"m 324 654 q 365 536 365 608 q 347 453 365 490 q 301 389 328 415 q 249 338 275 363 q 203 283 222 314 q 185 218 185 253 q 215 147 185 176 q 296 118 244 118 q 435 190 378 118 l 513 93 q 271 -17 419 -17 q 96 42 161 -17 q 31 192 31 101 q 63 308 31 256 q 133 392 94 361 q 203 463 171 422 q 235 546 235 504 q 207 611 235 586 l 324 654 m 272 940 q 338 913 311 940 q 365 847 365 886 q 338 783 365 810 q 272 756 311 756 q 207 783 235 756 q 179 847 179 810 q 207 913 179 886 q 272 940 235 940 z "},"":{"ha":588,"x_min":42,"x_max":546,"o":"m 546 225 l 426 225 l 253 475 l 426 721 l 546 721 l 372 475 l 546 225 m 336 225 l 215 225 l 42 475 l 215 721 l 336 721 l 163 475 l 336 225 z "},"":{"ha":588,"x_min":42,"x_max":546,"o":"m 336 475 l 163 225 l 42 225 l 215 475 l 42 721 l 163 721 l 336 475 m 546 475 l 372 225 l 253 225 l 426 475 l 253 721 l 372 721 l 546 475 z "},"":{"ha":378,"x_min":42,"x_max":336,"o":"m 336 225 l 215 225 l 42 475 l 215 721 l 336 721 l 163 475 l 336 225 z "},"":{"ha":378,"x_min":42,"x_max":336,"o":"m 336 475 l 163 225 l 42 225 l 215 475 l 42 721 l 163 721 l 336 475 z "},"":{"ha":375,"x_min":42,"x_max":333,"o":"m 333 414 l 42 414 l 42 533 l 333 533 l 333 414 z "},"":{"ha":732,"x_min":42,"x_max":690,"o":"m 690 414 l 42 414 l 42 533 l 690 533 l 690 414 z "},"":{"ha":1024,"x_min":42,"x_max":982,"o":"m 982 414 l 42 414 l 42 533 l 982 533 l 982 414 z "},"":{"ha":336,"x_min":75,"x_max":261,"o":"m 261 476 q 234 410 261 438 q 168 383 207 383 q 102 410 129 383 q 75 476 75 438 q 102 541 75 514 q 168 568 129 568 q 234 541 207 568 q 261 476 261 514 z "},"":{"ha":497,"x_min":93,"x_max":407,"o":"m 407 474 q 360 364 407 410 q 250 318 314 318 q 140 364 186 318 q 93 474 93 410 q 140 585 93 539 q 250 631 186 631 q 360 585 314 631 q 407 474 407 539 z "},"":{"ha":579,"x_min":49,"x_max":549,"o":"m 279 -12 l 279 117 q 110 233 172 139 q 49 463 49 328 q 110 690 49 596 q 279 807 172 783 l 279 911 l 382 911 l 382 811 q 549 724 488 800 l 479 629 q 382 690 439 682 l 382 233 q 479 294 436 242 l 549 200 q 382 111 488 122 l 382 -12 l 279 -12 m 192 463 q 279 256 192 313 l 279 668 q 192 463 192 611 z "},"":{"ha":338,"x_min":92,"x_max":251,"o":"m 251 -192 q 222 -302 251 -250 q 144 -387 192 -354 l 93 -346 q 147 -294 124 -326 q 175 -231 171 -261 q 158 -233 172 -233 q 111 -214 131 -233 q 92 -164 92 -194 q 114 -112 92 -133 q 167 -90 136 -90 q 226 -117 201 -90 q 251 -192 251 -144 z "},"":{"ha":719,"x_min":139,"x_max":524,"o":"m 524 0 l 369 0 l 369 728 l 229 579 l 139 672 l 389 926 l 524 926 l 524 0 z "},"":{"ha":1371,"x_min":89,"x_max":1321,"o":"m 688 0 l 515 0 l 357 350 l 242 350 l 242 0 l 89 0 l 89 926 l 408 926 q 605 847 529 926 q 681 640 681 768 q 629 463 681 529 q 507 376 578 396 l 688 0 m 386 486 q 485 528 449 486 q 522 639 522 569 q 485 750 522 708 q 386 792 449 792 l 242 792 l 242 486 l 386 486 m 1075 -17 q 901 90 963 -17 l 901 -256 l 764 -256 l 764 671 l 901 671 l 901 582 q 1075 688 965 688 q 1255 593 1189 688 q 1321 336 1321 499 q 1255 79 1321 175 q 1075 -17 1189 -17 m 1035 106 q 1141 169 1104 106 q 1178 336 1178 233 q 1141 501 1178 438 q 1035 565 1104 565 q 958 540 994 565 q 901 475 921 514 l 901 197 q 958 133 919 160 q 1035 106 996 106 z "},"":{"ha":374,"x_min":31,"x_max":357,"o":"m 181 -210 l 181 -132 q 72 -62 113 -118 q 31 75 31 -6 q 72 212 31 156 q 181 282 113 268 l 181 344 l 251 344 l 251 283 q 357 226 319 274 l 306 168 q 251 206 281 200 l 251 -57 q 306 -18 282 -49 l 357 -76 q 251 -133 319 -124 l 251 -210 l 181 -210 m 129 75 q 181 -46 129 -11 l 181 194 q 129 75 129 163 z "},"":{"ha":374,"x_min":31,"x_max":357,"o":"m 181 578 l 181 656 q 72 726 113 669 q 31 863 31 782 q 72 999 31 943 q 181 1069 113 1056 l 181 1132 l 251 1132 l 251 1071 q 357 1014 319 1061 l 306 956 q 251 993 281 988 l 251 731 q 306 769 283 739 l 357 711 q 251 653 321 663 l 251 578 l 181 578 m 129 863 q 181 742 129 774 l 181 982 q 129 863 129 950 z "},"":{"ha":206,"x_min":39,"x_max":164,"o":"m 164 -158 q 86 -312 164 -257 q 63 -293 78 -306 q 43 -278 47 -281 q 83 -245 63 -268 q 104 -204 103 -222 q 99 -206 100 -206 q 58 -188 76 -206 q 39 -147 39 -171 q 57 -103 39 -121 q 101 -85 75 -85 q 147 -106 129 -85 q 164 -158 164 -126 z "},"":{"ha":206,"x_min":39,"x_max":164,"o":"m 164 629 q 86 475 164 531 q 63 494 78 482 q 43 510 47 507 q 83 542 63 519 q 104 583 103 565 q 99 582 100 582 q 58 599 76 582 q 39 640 39 617 q 57 685 39 667 q 101 703 75 703 q 147 682 129 703 q 164 629 164 661 z "},"":{"ha":439,"x_min":21,"x_max":418,"o":"m 192 -286 l 192 -211 q 21 -136 83 -206 l 74 -61 q 192 -126 124 -117 l 192 39 q 134 63 156 53 q 86 92 113 74 q 47 140 60 111 q 35 206 35 168 q 77 306 35 263 q 192 358 119 349 l 192 438 l 264 438 l 264 358 q 404 294 353 349 l 353 225 q 264 272 314 263 l 264 121 q 320 97 299 108 q 367 67 342 86 q 406 19 393 47 q 418 -47 418 -10 q 378 -155 418 -111 q 264 -208 338 -199 l 264 -286 l 192 -286 m 310 -56 q 264 10 310 -17 l 264 -118 q 310 -56 310 -99 m 143 211 q 192 150 143 175 l 192 271 q 143 211 143 254 z "},"":{"ha":439,"x_min":21,"x_max":418,"o":"m 192 501 l 192 575 q 21 651 82 583 l 74 726 q 192 661 126 669 l 192 826 q 134 851 156 840 q 86 880 113 861 q 47 927 60 899 q 35 993 35 956 q 77 1093 35 1050 q 192 1146 119 1136 l 192 1225 l 264 1225 l 264 1146 q 404 1082 353 1136 l 353 1013 q 264 1060 314 1050 l 264 908 q 320 885 299 896 q 367 854 342 874 q 406 806 393 835 q 418 740 418 778 q 378 632 418 675 q 264 578 338 589 l 264 501 l 192 501 m 310 732 q 264 797 310 771 l 264 668 q 310 732 310 688 m 143 999 q 192 938 143 963 l 192 1058 q 143 999 143 1042 z "},"":{"ha":233,"x_min":25,"x_max":208,"o":"m 208 33 l 25 33 l 25 114 l 208 114 l 208 33 z "},"":{"ha":233,"x_min":25,"x_max":208,"o":"m 208 822 l 25 822 l 25 903 l 208 903 l 208 822 z "},"":{"ha":208,"x_min":42,"x_max":165,"o":"m 165 -147 q 147 -190 165 -172 q 104 -208 129 -208 q 60 -190 79 -208 q 42 -147 42 -172 q 60 -103 42 -121 q 104 -85 79 -85 q 147 -103 129 -85 q 165 -147 165 -121 z "},"":{"ha":208,"x_min":42,"x_max":165,"o":"m 165 640 q 147 597 165 615 q 104 579 129 579 q 60 597 79 579 q 42 640 42 615 q 60 685 42 667 q 104 703 79 703 q 147 685 129 703 q 165 640 165 667 z "},"":{"ha":469,"x_min":40,"x_max":403,"o":"m 403 453 l 301 453 l 301 499 q 179 442 257 442 q 81 481 122 442 q 40 586 40 519 q 81 690 40 653 q 179 728 121 728 q 301 675 258 728 l 301 738 q 277 799 301 778 q 214 821 253 821 q 100 765 150 821 l 60 833 q 232 900 128 900 q 356 861 310 900 q 403 740 403 822 l 403 453 m 218 508 q 301 554 275 508 l 301 619 q 218 665 275 665 q 163 644 183 665 q 142 588 142 622 q 163 530 142 551 q 218 508 183 508 z "},"":{"ha":499,"x_min":67,"x_max":456,"o":"m 256 524 q 326 564 300 524 q 351 671 351 604 q 326 777 351 736 q 256 818 300 818 q 206 803 231 818 q 168 764 181 788 l 168 576 q 256 524 197 524 m 168 453 l 67 453 l 67 1056 l 169 1056 l 169 832 q 288 900 211 900 q 410 838 364 900 q 456 671 456 775 q 410 503 456 565 q 288 442 364 442 q 168 510 214 442 l 168 453 z "},"":{"ha":499,"x_min":43,"x_max":432,"o":"m 432 453 l 331 453 l 331 510 q 213 442 286 442 q 90 503 136 442 q 43 671 43 565 q 89 838 43 776 q 213 900 135 900 q 331 832 288 900 l 331 1056 l 432 1056 l 432 453 m 244 524 q 331 576 301 524 l 331 764 q 294 803 318 788 q 244 818 269 818 q 173 777 199 818 q 147 671 147 736 q 173 564 147 604 q 244 524 199 524 z "},"":{"ha":478,"x_min":43,"x_max":438,"o":"m 251 442 q 101 505 158 442 q 43 671 43 568 q 99 834 43 768 q 244 900 154 900 q 386 835 335 900 q 438 665 438 769 l 438 636 l 146 636 q 180 551 150 583 q 263 518 210 518 q 365 564 324 518 l 413 507 q 251 442 350 442 m 339 708 q 314 791 338 756 q 242 826 290 826 q 172 791 196 826 q 146 708 149 756 l 339 708 z "},"":{"ha":225,"x_min":51,"x_max":175,"o":"m 113 942 q 69 960 88 942 q 51 1004 51 979 q 69 1049 51 1031 q 113 1067 88 1067 q 157 1049 139 1067 q 175 1004 175 1031 q 157 960 175 979 q 113 942 139 942 m 164 453 l 61 453 l 61 889 l 164 889 l 164 453 z "},"":{"ha":235,"x_min":67,"x_max":168,"o":"m 168 453 l 67 453 l 67 1056 l 168 1056 l 168 453 z "},"":{"ha":717,"x_min":67,"x_max":650,"o":"m 650 453 l 549 453 l 549 749 q 493 814 549 814 q 444 797 468 814 q 410 757 421 779 l 410 453 l 307 453 l 307 749 q 251 814 307 814 q 168 757 200 814 l 168 453 l 67 453 l 67 889 l 168 889 l 168 832 q 220 878 183 857 q 296 900 257 900 q 404 824 383 900 q 459 877 422 854 q 538 900 496 900 q 650 779 650 900 l 650 453 z "},"":{"ha":492,"x_min":43,"x_max":449,"o":"m 244 442 q 97 508 151 442 q 43 671 43 575 q 97 834 43 768 q 244 900 151 900 q 394 834 340 900 q 449 671 449 768 q 394 508 449 575 q 244 442 339 442 m 244 525 q 318 565 293 525 q 343 671 343 606 q 318 776 343 736 q 244 815 293 815 q 173 775 197 815 q 149 671 149 735 q 173 565 149 606 q 244 525 197 525 z "}}}
